<svg width="24" height="25" viewBox="0 0 24 25" fill="none" xmlns="http://www.w3.org/2000/svg">
<g clip-path="url(#clip0_9552_108868)">
<path d="M12 15.752C13.6569 15.752 15 14.4088 15 12.752C15 11.0951 13.6569 9.75195 12 9.75195C10.3431 9.75195 9 11.0951 9 12.752C9 14.4088 10.3431 15.752 12 15.752Z" stroke="#BDD5FA" stroke-width="2" stroke-linecap="round" stroke-linejoin="round"/>
<path d="M19.4 15.752C19.2669 16.0536 19.2272 16.3881 19.286 16.7125C19.3448 17.0369 19.4995 17.3363 19.73 17.572L19.79 17.632C19.976 17.8177 20.1235 18.0383 20.2241 18.2811C20.3248 18.5239 20.3766 18.7841 20.3766 19.047C20.3766 19.3098 20.3248 19.57 20.2241 19.8128C20.1235 20.0556 19.976 20.2762 19.79 20.462C19.6043 20.6479 19.3837 20.7954 19.1409 20.8961C18.8981 20.9967 18.6378 21.0485 18.375 21.0485C18.1122 21.0485 17.8519 20.9967 17.6091 20.8961C17.3663 20.7954 17.1457 20.6479 16.96 20.462L16.9 20.402C16.6643 20.1714 16.365 20.0168 16.0406 19.9579C15.7162 19.8991 15.3816 19.9388 15.08 20.072C14.7842 20.1987 14.532 20.4092 14.3543 20.6775C14.1766 20.9458 14.0813 21.2602 14.08 21.582V21.752C14.08 22.2824 13.8693 22.7911 13.4942 23.1662C13.1191 23.5412 12.6104 23.752 12.08 23.752C11.5496 23.752 11.0409 23.5412 10.6658 23.1662C10.2907 22.7911 10.08 22.2824 10.08 21.752V21.662C10.0723 21.331 9.96512 21.0099 9.77251 20.7407C9.5799 20.4714 9.31074 20.2662 9 20.152C8.69838 20.0188 8.36381 19.9791 8.03941 20.0379C7.71502 20.0968 7.41568 20.2514 7.18 20.482L7.12 20.542C6.93425 20.7279 6.71368 20.8754 6.47088 20.9761C6.22808 21.0767 5.96783 21.1285 5.705 21.1285C5.44217 21.1285 5.18192 21.0767 4.93912 20.9761C4.69632 20.8754 4.47575 20.7279 4.29 20.542C4.10405 20.3562 3.95653 20.1356 3.85588 19.8928C3.75523 19.65 3.70343 19.3898 3.70343 19.127C3.70343 18.8641 3.75523 18.6039 3.85588 18.3611C3.95653 18.1183 4.10405 17.8977 4.29 17.712L4.35 17.652C4.58054 17.4163 4.73519 17.1169 4.794 16.7925C4.85282 16.4681 4.81312 16.1336 4.68 15.832C4.55324 15.5362 4.34276 15.2839 4.07447 15.1063C3.80618 14.9286 3.49179 14.8332 3.17 14.832H3C2.46957 14.832 1.96086 14.6212 1.58579 14.2462C1.21071 13.8711 1 13.3624 1 12.832C1 12.3015 1.21071 11.7928 1.58579 11.4177C1.96086 11.0427 2.46957 10.832 3 10.832H3.09C3.42099 10.8242 3.742 10.7171 4.0113 10.5245C4.28059 10.3319 4.48572 10.0627 4.6 9.75195C4.73312 9.45034 4.77282 9.11576 4.714 8.79136C4.65519 8.46697 4.50054 8.16763 4.27 7.93195L4.21 7.87195C4.02405 7.68621 3.87653 7.46563 3.77588 7.22283C3.67523 6.98004 3.62343 6.71978 3.62343 6.45695C3.62343 6.19412 3.67523 5.93387 3.77588 5.69107C3.87653 5.44828 4.02405 5.2277 4.21 5.04195C4.39575 4.856 4.61632 4.70848 4.85912 4.60783C5.10192 4.50719 5.36217 4.45538 5.625 4.45538C5.88783 4.45538 6.14808 4.50719 6.39088 4.60783C6.63368 4.70848 6.85425 4.856 7.04 5.04195L7.1 5.10195C7.33568 5.33249 7.63502 5.48714 7.95941 5.54596C8.28381 5.60478 8.61838 5.56507 8.92 5.43195H9C9.29577 5.30519 9.54802 5.09471 9.72569 4.82642C9.90337 4.55813 9.99872 4.24374 10 3.92195V3.75195C10 3.22152 10.2107 2.71281 10.5858 2.33774C10.9609 1.96267 11.4696 1.75195 12 1.75195C12.5304 1.75195 13.0391 1.96267 13.4142 2.33774C13.7893 2.71281 14 3.22152 14 3.75195V3.84195C14.0013 4.16374 14.0966 4.47813 14.2743 4.74642C14.452 5.01471 14.7042 5.22519 15 5.35195C15.3016 5.48507 15.6362 5.52478 15.9606 5.46596C16.285 5.40714 16.5843 5.25249 16.82 5.02195L16.88 4.96195C17.0657 4.776 17.2863 4.62848 17.5291 4.52783C17.7719 4.42719 18.0322 4.37538 18.295 4.37538C18.5578 4.37538 18.8181 4.42719 19.0609 4.52783C19.3037 4.62848 19.5243 4.776 19.71 4.96195C19.896 5.1477 20.0435 5.36828 20.1441 5.61107C20.2448 5.85387 20.2966 6.11412 20.2966 6.37695C20.2966 6.63978 20.2448 6.90004 20.1441 7.14283C20.0435 7.38563 19.896 7.60621 19.71 7.79195L19.65 7.85195C19.4195 8.08763 19.2648 8.38697 19.206 8.71136C19.1472 9.03576 19.1869 9.37034 19.32 9.67195V9.75195C19.4468 10.0477 19.6572 10.3 19.9255 10.4776C20.1938 10.6553 20.5082 10.7507 20.83 10.752H21C21.5304 10.752 22.0391 10.9627 22.4142 11.3377C22.7893 11.7128 23 12.2215 23 12.752C23 13.2824 22.7893 13.7911 22.4142 14.1662C22.0391 14.5412 21.5304 14.752 21 14.752H20.91C20.5882 14.7532 20.2738 14.8486 20.0055 15.0263C19.7372 15.2039 19.5268 15.4562 19.4 15.752Z" stroke="#BDD5FA" stroke-width="2" stroke-linecap="round" stroke-linejoin="round"/>
</g>
<defs>
<clipPath id="clip0_9552_108868">
<rect width="24" height="24" fill="white" transform="translate(0 0.751953)"/>
</clipPath>
</defs>
</svg>
