<svg width="24" height="25" viewBox="0 0 24 25" fill="none" xmlns="http://www.w3.org/2000/svg">
<path d="M17 21.752V19.752C17 18.6911 16.5786 17.6737 15.8284 16.9235C15.0783 16.1734 14.0609 15.752 13 15.752H5C3.93913 15.752 2.92172 16.1734 2.17157 16.9235C1.42143 17.6737 1 18.6911 1 19.752V21.752M23 21.752V19.752C22.9993 18.8657 22.7044 18.0047 22.1614 17.3043C21.6184 16.6038 20.8581 16.1035 20 15.882M16 3.88195C16.8604 4.10225 17.623 4.60265 18.1676 5.30426C18.7122 6.00587 19.0078 6.86878 19.0078 7.75695C19.0078 8.64512 18.7122 9.50803 18.1676 10.2096C17.623 10.9113 16.8604 11.4117 16 11.632M13 7.75195C13 9.96109 11.2091 11.752 9 11.752C6.79086 11.752 5 9.96109 5 7.75195C5 5.54281 6.79086 3.75195 9 3.75195C11.2091 3.75195 13 5.54281 13 7.75195Z" stroke="#BDD5FA" stroke-width="2" stroke-linecap="round" stroke-linejoin="round"/>
</svg>
