<svg width="24" height="25" viewBox="0 0 24 25" fill="none" xmlns="http://www.w3.org/2000/svg">
<path d="M12 7.75195C12 6.69109 11.5786 5.67367 10.8284 4.92353C10.0783 4.17338 9.06087 3.75195 8 3.75195H2V18.752H9C9.79565 18.752 10.5587 19.068 11.1213 19.6306C11.6839 20.1932 12 20.9563 12 21.752M12 7.75195V21.752M12 7.75195C12 6.69109 12.4214 5.67367 13.1716 4.92353C13.9217 4.17338 14.9391 3.75195 16 3.75195H22V18.752H15C14.2044 18.752 13.4413 19.068 12.8787 19.6306C12.3161 20.1932 12 20.9563 12 21.752" stroke="#BDD5FA" stroke-width="2" stroke-linecap="round" stroke-linejoin="round"/>
</svg>
