<svg width="24" height="25" viewBox="0 0 24 25" fill="none" xmlns="http://www.w3.org/2000/svg">
<path d="M22 12.752C22 18.2748 17.5228 22.752 12 22.752M22 12.752C22 7.22911 17.5228 2.75195 12 2.75195M22 12.752H2M12 22.752C6.47715 22.752 2 18.2748 2 12.752M12 22.752C14.5013 20.0136 15.9228 16.4599 16 12.752C15.9228 9.04399 14.5013 5.49031 12 2.75195M12 22.752C9.49872 20.0136 8.07725 16.4599 8 12.752C8.07725 9.04399 9.49872 5.49031 12 2.75195M2 12.752C2 7.22911 6.47715 2.75195 12 2.75195" stroke="#BDD5FA" stroke-width="2" stroke-linecap="round" stroke-linejoin="round"/>
</svg>
