<svg width="57" height="56" viewBox="0 0 57 56" fill="none" xmlns="http://www.w3.org/2000/svg">
<rect x="4.5" y="4" width="48" height="48" rx="24" fill="#F2F4F7"/>
<path d="M19.5 28H28.5V29.5H19.5V28ZM18 24.25H25.5V25.75H18V24.25Z" fill="#98A2B3"/>
<path d="M38.9393 28.4545L36.6893 23.2045C36.6315 23.0696 36.5354 22.9545 36.4129 22.8737C36.2903 22.793 36.1468 22.7499 36 22.75H33.75V21.25C33.75 21.0511 33.671 20.8603 33.5303 20.7197C33.3897 20.579 33.1989 20.5 33 20.5H21V22H32.25V31.417C31.9083 31.6154 31.6092 31.8796 31.37 32.1942C31.1308 32.5088 30.9563 32.8676 30.8565 33.25H26.1435C25.961 32.543 25.5268 31.9269 24.9225 31.517C24.3182 31.1072 23.5851 30.9319 22.8608 31.0239C22.1364 31.1159 21.4705 31.4689 20.9878 32.0168C20.5051 32.5647 20.2388 33.2698 20.2388 34C20.2388 34.7302 20.5051 35.4353 20.9878 35.9832C21.4705 36.5311 22.1364 36.8841 22.8608 36.9761C23.5851 37.0681 24.3182 36.8928 24.9225 36.483C25.5268 36.0731 25.961 35.457 26.1435 34.75H30.8565C31.0197 35.3937 31.3928 35.9646 31.9168 36.3724C32.4409 36.7802 33.086 37.0016 33.75 37.0016C34.414 37.0016 35.0591 36.7802 35.5832 36.3724C36.1072 35.9646 36.4804 35.3937 36.6435 34.75H38.25C38.4489 34.75 38.6397 34.671 38.7803 34.5303C38.921 34.3897 39 34.1989 39 34V28.75C39 28.6484 38.9794 28.5479 38.9393 28.4545ZM23.25 35.5C22.9533 35.5 22.6633 35.412 22.4167 35.2472C22.17 35.0824 21.9777 34.8481 21.8642 34.574C21.7507 34.2999 21.721 33.9983 21.7788 33.7074C21.8367 33.4164 21.9796 33.1491 22.1893 32.9393C22.3991 32.7296 22.6664 32.5867 22.9574 32.5288C23.2483 32.4709 23.5499 32.5006 23.824 32.6142C24.0981 32.7277 24.3324 32.92 24.4972 33.1666C24.662 33.4133 24.75 33.7033 24.75 34C24.7496 34.3977 24.5914 34.779 24.3102 35.0602C24.029 35.3414 23.6477 35.4996 23.25 35.5ZM33.75 24.25H35.505L37.113 28H33.75V24.25ZM33.75 35.5C33.4533 35.5 33.1633 35.412 32.9167 35.2472C32.67 35.0824 32.4777 34.8481 32.3642 34.574C32.2507 34.2999 32.221 33.9983 32.2788 33.7074C32.3367 33.4164 32.4796 33.1491 32.6893 32.9393C32.8991 32.7296 33.1664 32.5867 33.4574 32.5288C33.7483 32.4709 34.0499 32.5006 34.324 32.6142C34.5981 32.7277 34.8324 32.92 34.9972 33.1666C35.162 33.4133 35.25 33.7033 35.25 34C35.2496 34.3977 35.0914 34.779 34.8102 35.0602C34.529 35.3414 34.1477 35.4996 33.75 35.5ZM37.5 33.25H36.6435C36.4783 32.6076 36.1046 32.0381 35.5809 31.6309C35.0573 31.2238 34.4133 31.0018 33.75 31V29.5H37.5V33.25Z" fill="#98A2B3"/>
<rect x="4.5" y="4" width="48" height="48" rx="24" stroke="#F9FAFB" stroke-width="8"/>
</svg>
