<svg width="55" height="55" viewBox="0 0 55 55" fill="none" xmlns="http://www.w3.org/2000/svg">
<path d="M27.5 0.699951C34.6078 0.699951 41.4244 3.52351 46.4504 8.54949C51.4764 13.5755 54.2999 20.3921 54.2999 27.5C54.2999 34.6078 51.4764 41.4244 46.4504 46.4504C41.4244 51.4764 34.6078 54.2999 27.5 54.2999C20.3921 54.2999 13.5755 51.4764 8.54949 46.4504C3.52351 41.4244 0.699951 34.6078 0.699951 27.5C0.699951 20.3921 3.52351 13.5755 8.54949 8.54949C13.5755 3.52351 20.3921 0.699951 27.5 0.699951ZM27.5 4.04995C24.4205 4.04995 21.3711 4.6565 18.526 5.83498C15.6809 7.01345 13.0958 8.74076 10.9183 10.9183C8.74076 13.0958 7.01345 15.6809 5.83498 18.526C4.6565 21.3711 4.04995 24.4205 4.04995 27.5C4.04995 30.5794 4.6565 33.6288 5.83498 36.4739C7.01345 39.319 8.74076 41.9041 10.9183 44.0816C13.0958 46.2591 15.6809 47.9865 18.526 49.1649C21.3711 50.3434 24.4205 50.95 27.5 50.95C33.7193 50.95 39.6839 48.4793 44.0816 44.0816C48.4793 39.6839 50.95 33.7193 50.95 27.5C50.95 21.2806 48.4793 15.316 44.0816 10.9183C39.6839 6.52057 33.7193 4.04995 27.5 4.04995ZM27.5 35.875C28.1663 35.875 28.8054 36.1397 29.2766 36.6108C29.7477 37.082 30.0125 37.7211 30.0125 38.3875C30.0125 39.0538 29.7477 39.6929 29.2766 40.1641C28.8054 40.6352 28.1663 40.8999 27.5 40.8999C26.8336 40.8999 26.1945 40.6352 25.7233 40.1641C25.2522 39.6929 24.9874 39.0538 24.9874 38.3875C24.9874 37.7211 25.2522 37.082 25.7233 36.6108C26.1945 36.1397 26.8336 35.875 27.5 35.875ZM27.5 14.1C27.892 14.0998 28.2716 14.2372 28.5728 14.4882C28.874 14.7392 29.0776 15.0878 29.1481 15.4735L29.1749 15.775V30.85C29.1757 31.2685 29.0197 31.6722 28.7377 31.9815C28.4557 32.2908 28.0682 32.4834 27.6513 32.5212C27.2344 32.559 26.8185 32.4394 26.4855 32.1859C26.1524 31.9324 25.9263 31.5633 25.8518 31.1515L25.825 30.85V15.775C25.825 15.3307 26.0014 14.9047 26.3155 14.5905C26.6297 14.2764 27.0557 14.1 27.5 14.1Z" fill="#D92D20"/>
</svg>
