<svg width="57" height="56" viewBox="0 0 57 56" fill="none" xmlns="http://www.w3.org/2000/svg">
<rect x="4.5" y="4" width="48" height="48" rx="24" fill="#EBF3FF"/>
<path d="M27.5 36V38H19.5C18.4 38 17.5 37.1 17.5 36V20C17.5 18.9 18.4 18 19.5 18H37.5C38.6 18 39.5 18.9 39.5 20V28.1L39.3 27.9C38.8 27.4 38.2 27.1 37.5 27.1V22H19.5V36H27.5ZM37.9 29.3L39.2 30.6C39.4 30.8 39.4 31.2 39.2 31.4L38.2 32.4L36.1 30.3L37.1 29.3C37.2 29.2 37.3 29.1 37.5 29.1C37.7 29.1 37.8 29.2 37.9 29.3ZM37.6 32.9L31.6 39H29.5V36.9L35.6 30.8L37.6 32.9Z" fill="#0D47A1"/>
<rect x="4.5" y="4" width="48" height="48" rx="24" stroke="#F5F9FF" stroke-width="8"/>
</svg>
