<svg width="57" height="56" viewBox="0 0 57 56" fill="none" xmlns="http://www.w3.org/2000/svg">
<rect x="4.5" y="4" width="48" height="48" rx="24" fill="#D1FADF"/>
<path d="M21 28H25.5V29.5H21V28ZM21 25H28.5V26.5H21V25ZM21 22H28.5V23.5H21V22Z" fill="#027A48"/>
<path d="M27 35.5H19.5V20.5H37.5V28H39V20.5C39 20.1022 38.842 19.7206 38.5607 19.4393C38.2794 19.158 37.8978 19 37.5 19H19.5C19.1022 19 18.7206 19.158 18.4393 19.4393C18.158 19.7206 18 20.1022 18 20.5V35.5C18 35.8978 18.158 36.2794 18.4393 36.5607C18.7206 36.842 19.1022 37 19.5 37H27V35.5Z" fill="#027A48"/>
<path d="M33 35.1925L31.0575 33.25L30 34.3075L33 37.3075L39 31.3075L37.9425 30.25L33 35.1925Z" fill="#027A48"/>
<rect x="4.5" y="4" width="48" height="48" rx="24" stroke="#ECFDF3" stroke-width="8"/>
</svg>
