<svg width="56" height="57" viewBox="0 0 56 57" fill="none" xmlns="http://www.w3.org/2000/svg">
<rect x="4" y="4.5" width="48" height="48" rx="24" fill="#EBF3FF"/>
<path d="M37 23.78V21.5C37 20.4 36.1 19.5 35 19.5H21C20.4696 19.5 19.9609 19.7107 19.5858 20.0858C19.2107 20.4609 19 20.9696 19 21.5V35.5C19 36.0304 19.2107 36.5391 19.5858 36.9142C19.9609 37.2893 20.4696 37.5 21 37.5H35C36.1 37.5 37 36.6 37 35.5V33.22C37.3023 33.0455 37.5536 32.7949 37.7291 32.4932C37.9045 32.1914 37.9979 31.849 38 31.5V25.5C37.9979 25.151 37.9045 24.8086 37.7291 24.5068C37.5536 24.2051 37.3023 23.9545 37 23.78ZM36 25.5V31.5H29V25.5H36ZM21 35.5V21.5H35V23.5H29C27.9 23.5 27 24.4 27 25.5V31.5C27 32.6 27.9 33.5 29 33.5H35V35.5H21Z" fill="#0D47A1"/>
<path d="M32 30C32.8284 30 33.5 29.3284 33.5 28.5C33.5 27.6716 32.8284 27 32 27C31.1716 27 30.5 27.6716 30.5 28.5C30.5 29.3284 31.1716 30 32 30Z" fill="#0D47A1"/>
<rect x="4" y="4.5" width="48" height="48" rx="24" stroke="#F5F9FF" stroke-width="8"/>
</svg>
