<svg width="18" height="18" viewBox="0 0 18 18" fill="none" xmlns="http://www.w3.org/2000/svg">
<path d="M12 12.1875C11.6925 12.1875 11.4375 12.4425 11.4375 12.75V14.25C11.4375 14.7675 11.0175 15.1875 10.5 15.1875H4.5C3.9825 15.1875 3.5625 14.7675 3.5625 14.25V3.75C3.5625 3.2325 3.9825 2.8125 4.5 2.8125H10.5C11.0175 2.8125 11.4375 3.2325 11.4375 3.75V5.25C11.4375 5.5575 11.6925 5.8125 12 5.8125C12.3075 5.8125 12.5625 5.5575 12.5625 5.25V3.75C12.5625 2.61 11.64 1.6875 10.5 1.6875H4.5C3.36 1.6875 2.4375 2.61 2.4375 3.75V14.25C2.4375 15.39 3.36 16.3125 4.5 16.3125H10.5C11.64 16.3125 12.5625 15.39 12.5625 14.25V12.75C12.5625 12.4425 12.3075 12.1875 12 12.1875Z" fill="#FEF6EE"/>
<path d="M10.8976 7.14758C11.1151 6.93008 11.1151 6.57008 10.8976 6.35258C10.6801 6.13508 10.3201 6.13508 10.1026 6.35258L8.60261 7.85258C8.44511 8.01008 8.39261 8.25758 8.48261 8.46758C8.57261 8.67758 8.77511 8.81258 9.00011 8.81258H15.0001C15.3076 8.81258 15.5626 8.55758 15.5626 8.25008C15.5626 7.94258 15.3076 7.68758 15.0001 7.68758H10.3576L10.8976 7.14758Z" fill="#FEF6EE"/>
<path d="M15 9.9375H9C8.6925 9.9375 8.4375 10.1925 8.4375 10.5C8.4375 10.8075 8.6925 11.0625 9 11.0625H13.6425L13.1025 11.6025C12.885 11.82 12.885 12.18 13.1025 12.3975C13.215 12.51 13.3575 12.5625 13.5 12.5625C13.6425 12.5625 13.785 12.51 13.8975 12.3975L15.3975 10.8975C15.555 10.74 15.6075 10.4925 15.5175 10.2825C15.4275 10.0725 15.225 9.9375 15 9.9375Z" fill="#FEF6EE"/>
<path d="M6.1875 13.5C6.1875 13.8075 6.4425 14.0625 6.75 14.0625H8.25C8.5575 14.0625 8.8125 13.8075 8.8125 13.5C8.8125 13.1925 8.5575 12.9375 8.25 12.9375H6.75C6.4425 12.9375 6.1875 13.1925 6.1875 13.5Z" fill="#FEF6EE"/>
</svg>
