<svg width="40" height="40" viewBox="0 0 64 64" fill="none" xmlns="http://www.w3.org/2000/svg">
<path d="M56.41 51.8501C56.2864 51.1044 55.954 50.4089 55.4514 49.8443C54.9488 49.2798 54.2964 48.8691 53.57 48.6601L42 45.3601H22L10.43 48.6601C9.70171 48.8675 9.04727 49.2774 8.54275 49.8421C8.03824 50.4068 7.70438 51.1031 7.58 51.8501L7 55.3601C14.8944 58.7491 23.4094 60.4521 32 60.3601C40.59 60.4462 49.1039 58.7435 57 55.3601L56.41 51.8501Z" fill="#3268A6"/>
<path d="M10.43 52.4401L22 49.1401H42L53.57 52.4401C54.2905 52.6485 54.938 53.0553 55.4384 53.6141C55.9388 54.1728 56.272 54.861 56.4 55.6001C56.6 55.5201 56.8 55.4501 57 55.3601L56.41 51.8501C56.2864 51.1044 55.954 50.4089 55.4514 49.8443C54.9488 49.2798 54.2964 48.8691 53.57 48.6601L42 45.3601H22L10.43 48.6601C9.70171 48.8675 9.04727 49.2774 8.54275 49.8421C8.03824 50.4068 7.70438 51.1031 7.58 51.8501L7 55.3601L7.59 55.5901C7.7205 54.8516 8.05598 54.1647 8.55814 53.6077C9.0603 53.0507 9.70893 52.6461 10.43 52.4401V52.4401Z" fill="#3971AA"/>
<path d="M38.4386 45.0301L31.9986 49.3701L25.5586 45.0301V39.6101H38.4386V45.0301Z" fill="#A0775C"/>
<path d="M45.0019 24.0001C44.649 23.6875 44.2157 23.4797 43.751 23.4002C43.2863 23.3207 42.8086 23.3726 42.3719 23.5501V19.4601C42.3519 14.0001 40.0019 9.3501 32.0019 9.3501C24.0019 9.3501 21.6419 14.0001 21.6419 19.4101V23.5001C21.1993 23.3271 20.7169 23.2822 20.25 23.3707C19.7831 23.4591 19.3506 23.6772 19.0019 24.0001C17.8119 24.9501 18.0019 26.7201 18.3519 28.6701C18.7619 31.1201 20.2619 33.2201 22.4819 32.1801C22.4865 32.1739 22.4926 32.1688 22.4995 32.1654C22.5065 32.1619 22.5141 32.1601 22.5219 32.1601C22.5296 32.1601 22.5373 32.1619 22.5442 32.1654C22.5512 32.1688 22.5572 32.1739 22.5619 32.1801C22.5019 32.9823 22.5019 33.7879 22.5619 34.5901C22.7619 37.5901 24.3719 38.3401 27.1419 41.2301C27.7817 41.8507 28.5453 42.3291 29.3828 42.6341C30.2204 42.9392 31.1128 43.0639 32.0019 43.0001C32.8788 43.0574 33.758 42.9324 34.5841 42.6329C35.4103 42.3334 36.1654 41.866 36.8019 41.2601C39.5719 38.3701 41.1819 37.6101 41.3719 34.6201C41.4319 33.8179 41.4319 33.0123 41.3719 32.2101C41.3719 32.1942 41.3782 32.1789 41.3895 32.1677C41.4007 32.1564 41.416 32.1501 41.4319 32.1501V32.1501C43.6519 33.1501 45.1519 31.0901 45.5619 28.6401C45.9319 26.6701 46.1419 24.9001 45.0019 24.0001Z" fill="#AD8165"/>
<path d="M42.37 23.5499V19.4599C42.35 13.9999 40 9.34992 32 9.34992C30.9938 9.34713 29.9895 9.43751 29 9.61992V22.6199C28.9649 23.1388 28.7429 23.6274 28.3752 23.9951C28.0074 24.3628 27.5189 24.5848 27 24.6199C27.9795 24.6321 28.9294 24.9581 29.71 25.5499C30.0707 25.8979 30.5489 26.0977 31.05 26.1099H31.33C31.4193 26.1099 31.5077 26.1275 31.5902 26.1617C31.6727 26.1959 31.7477 26.2459 31.8108 26.3091C31.874 26.3722 31.9241 26.4472 31.9582 26.5297C31.9924 26.6122 32.01 26.7006 32.01 26.7899V29.1999C32.0096 29.4276 32.0628 29.6521 32.1653 29.8554C32.2678 30.0586 32.4167 30.2349 32.6 30.3699C32.7562 30.4991 32.8695 30.6726 32.9248 30.8676C32.9801 31.0625 32.9749 31.2697 32.9099 31.4616C32.8448 31.6536 32.7229 31.8212 32.5605 31.9424C32.398 32.0635 32.2025 32.1324 32 32.1399C31.26 32.1399 31 31.6399 30 31.6399C29.41 31.6399 29.5 32.4099 29.48 32.3899C29.8294 32.3952 30.1723 32.4844 30.48 32.6499C30.9498 32.891 31.4721 33.0112 32 32.9999V32.9999V37.9999C32 37.9999 34 37.5899 34 39.5699C34 41.0399 29.5 40.6199 29 42.2899C28.9952 42.3465 28.9952 42.4034 29 42.4599C29.9475 42.8603 30.9723 43.0448 32 42.9999C32.8769 43.0572 33.7561 42.9322 34.5823 42.6327C35.4084 42.3332 36.1635 41.8658 36.8 41.2599C39.57 38.3699 41.18 37.6099 41.37 34.6199C41.43 33.8177 41.43 33.0121 41.37 32.2099C41.37 32.194 41.3763 32.1787 41.3876 32.1675C41.3988 32.1562 41.4141 32.1499 41.43 32.1499V32.1499C43.65 33.1499 45.15 31.0899 45.56 28.6399C45.9 26.6399 46.11 24.8899 44.97 23.9899C44.619 23.6846 44.1906 23.482 43.7319 23.4044C43.2732 23.3268 42.8019 23.3771 42.37 23.5499V23.5499Z" fill="#A0775C"/>
<path d="M45.0019 24.0001C44.649 23.6875 44.2157 23.4797 43.751 23.4002C43.2863 23.3207 42.8086 23.3726 42.3719 23.5501V19.4601C42.3519 14.0001 40.0019 9.3501 32.0019 9.3501C24.0019 9.3501 21.6419 14.0001 21.6419 19.4101V23.5001C21.1993 23.3271 20.7169 23.2822 20.25 23.3707C19.7831 23.4591 19.3506 23.6772 19.0019 24.0001C17.8119 24.9501 18.0019 26.7201 18.3519 28.6701C18.7619 31.1201 20.2619 33.2201 22.4819 32.1801C22.4865 32.1739 22.4926 32.1688 22.4995 32.1654C22.5065 32.1619 22.5141 32.1601 22.5219 32.1601C22.5296 32.1601 22.5373 32.1619 22.5442 32.1654C22.5512 32.1688 22.5572 32.1739 22.5619 32.1801C22.5019 32.9823 22.5019 33.7879 22.5619 34.5901C22.7619 37.5901 24.3719 38.3401 27.1419 41.2301C27.7817 41.8507 28.5453 42.3291 29.3828 42.6341C30.2204 42.9392 31.1128 43.0639 32.0019 43.0001C32.8788 43.0574 33.758 42.9324 34.5841 42.6329C35.4103 42.3334 36.1654 41.866 36.8019 41.2601C39.5719 38.3701 41.1819 37.6101 41.3719 34.6201C41.4319 33.8179 41.4319 33.0123 41.3719 32.2101C41.3719 32.1942 41.3782 32.1789 41.3895 32.1677C41.4007 32.1564 41.416 32.1501 41.4319 32.1501V32.1501C43.6519 33.1501 45.1519 31.0901 45.5619 28.6401C45.9319 26.6701 46.1419 24.9001 45.0019 24.0001Z" stroke="#343433" stroke-width="1.5" stroke-miterlimit="10"/>
<path d="M25.6912 17.2599L24.0012 17.6799V19.6799L23.0012 21.6799V26.6799C23.0012 24.6799 22.0012 22.6799 21.0012 22.6799C19.0012 17.6799 21.0812 8.67993 32.0012 8.67993C42.9212 8.67993 45.0012 17.6799 43.0012 22.6799C41.8612 22.6799 41.0012 24.6799 41.0012 26.6799V21.6799L40.0012 19.6799V17.6799L38.3112 17.2599C34.1688 16.2198 29.8336 16.2198 25.6912 17.2599Z" fill="#333333" stroke="#333333" stroke-linecap="round" stroke-linejoin="round"/>
<path d="M38.3516 43.2501V39.6101" stroke="#343433" stroke-width="1.5" stroke-miterlimit="10"/>
<path d="M25.6484 43.2501V39.6101" stroke="#343433" stroke-width="1.5" stroke-miterlimit="10"/>
<path d="M22 59.87V44.23L16 45.87V57.87" fill="#FBB03B"/>
<path d="M16 57.8699L22 59.8699V46.8999L16 48.5399V57.8699Z" fill="#EFA13A"/>
<path d="M22 59.87V44.23L16 45.87V57.87" stroke="#343433" stroke-width="1.5" stroke-linejoin="round"/>
<path d="M42 59.87V44.23L48 45.87V57.87" fill="#FBB03B"/>
<path d="M42 59.8699L48 57.8699V48.5399L42 46.8999V59.8699Z" fill="#EFA13A"/>
<path d="M42 59.87V44.23L48 45.87V57.87" stroke="#343433" stroke-width="1.5" stroke-linejoin="round"/>
<path d="M48 47.0701L53.57 48.6601C54.2964 48.8691 54.9488 49.2797 55.4514 49.8443C55.954 50.4089 56.2864 51.1043 56.41 51.8501L57 55.3601C49.1039 58.7434 40.59 60.4462 32 60.3601C23.4094 60.4521 14.8944 58.749 7 55.3601L7.58 51.8501C7.70438 51.1031 8.03824 50.4068 8.54275 49.8421C9.04727 49.2774 9.70171 48.8675 10.43 48.6601L16 47.0701" stroke="#343433" stroke-width="1.5" stroke-linecap="round" stroke-linejoin="round"/>
<path d="M52.5819 12.8L32.0019 21.73L11.4219 12.8L32.0019 3L52.5819 12.8Z" fill="#3268A6"/>
<path d="M26.39 8.61C35.31 8.61 42.76 11.9 44.54 16.29L52.54 12.8L32 3L18 9.67C20.7394 8.95688 23.5594 8.6006 26.39 8.61V8.61Z" fill="#2F6396"/>
<path d="M52.5819 12.8L32.0019 21.73L11.4219 12.8L32.0019 3L52.5819 12.8Z" stroke="#343433" stroke-width="1.5" stroke-linecap="round" stroke-linejoin="round"/>
<path d="M17 33.3701H13V25.3701C13 24.8397 13.2107 24.331 13.5858 23.9559C13.9609 23.5808 14.4696 23.3701 15 23.3701C15.5304 23.3701 16.0391 23.5808 16.4142 23.9559C16.7893 24.331 17 24.8397 17 25.3701V33.3701Z" fill="#FBB03B"/>
<path d="M15 13.3701V25.3701" stroke="#FBB03B" stroke-miterlimit="10" stroke-linecap="round"/>
<path d="M15 24.3701C14.8022 24.3701 14.6089 24.3115 14.4444 24.2016C14.28 24.0917 14.1518 23.9355 14.0761 23.7528C14.0004 23.5701 13.9806 23.369 14.0192 23.175C14.0578 22.981 14.153 22.8029 14.2929 22.663C14.4327 22.5232 14.6109 22.4279 14.8049 22.3893C14.9989 22.3507 15.2 22.3706 15.3827 22.4462C15.5654 22.5219 15.7216 22.6501 15.8315 22.8145C15.9414 22.979 16 23.1723 16 23.3701C16 23.6353 15.8946 23.8897 15.7071 24.0772C15.5196 24.2648 15.2652 24.3701 15 24.3701Z" fill="#EFA13A"/>
<path d="M44 21.3701C41 21.3701 36.65 23.3701 32 23.3701C27.35 23.3701 23 21.3701 20 21.3701V14.3701C27.7756 11.6904 36.2244 11.6904 44 14.3701V21.3701Z" fill="#3268A6"/>
<path d="M44 20.8301C44.0002 20.9736 43.9453 21.1117 43.8467 21.2159C43.7481 21.3201 43.6133 21.3824 43.47 21.3901C40.47 21.6001 36.39 23.3901 32 23.3901C27.61 23.3901 23.5 21.6101 20.53 21.3901C20.3867 21.3824 20.2519 21.3201 20.1533 21.2159C20.0547 21.1117 19.9998 20.9736 20 20.8301V14.3701C27.7756 11.6904 36.2244 11.6904 44 14.3701V20.8301Z" stroke="#343433" stroke-width="1.5" stroke-linecap="round" stroke-linejoin="round"/>
<path d="M27.2109 28.3301C27.6252 28.3301 27.9609 27.9943 27.9609 27.5801C27.9609 27.1659 27.6252 26.8301 27.2109 26.8301C26.7967 26.8301 26.4609 27.1659 26.4609 27.5801C26.4609 27.9943 26.7967 28.3301 27.2109 28.3301Z" fill="#333333"/>
<path d="M36.3008 28.3301C36.715 28.3301 37.0508 27.9943 37.0508 27.5801C37.0508 27.1659 36.715 26.8301 36.3008 26.8301C35.8866 26.8301 35.5508 27.1659 35.5508 27.5801C35.5508 27.9943 35.8866 28.3301 36.3008 28.3301Z" fill="#333333"/>
<path d="M24.9297 25.3701C25.2154 25.0049 25.6241 24.7561 26.0797 24.6701C26.5158 24.5705 26.9663 24.5502 27.4097 24.6101C28.2767 24.723 29.0855 25.1082 29.7197 25.7101C28.9016 25.7767 28.0785 25.7397 27.2697 25.6001L26.1397 25.4401C25.7384 25.3896 25.3341 25.3662 24.9297 25.3701ZM38.9397 25.3701C38.5352 25.3662 38.131 25.3896 37.7297 25.4401L36.5997 25.6001C35.7909 25.7394 34.9677 25.7764 34.1497 25.7101C34.781 25.1041 35.5913 24.7182 36.4597 24.6101C36.9028 24.5456 37.3542 24.5659 37.7897 24.6701C38.2446 24.7578 38.6528 25.0063 38.9397 25.3701V25.3701Z" fill="#333333"/>
<path d="M32 60.3601C33.82 60.3601 35.62 60.3 37.43 60.16C39.2 57 42 50.9 42 44.75L41 44.55L39.67 41.55C37.6175 44.3821 35.0073 46.7643 32 48.55C28.9902 46.7524 26.3691 44.3727 24.29 41.55L23 44.55L22 44.75C22 50.91 24.8 56.95 26.57 60.17C28.38 60.3 30.19 60.3801 32 60.3601Z" fill="white" stroke="#333333" stroke-width="1.5" stroke-linecap="round" stroke-linejoin="round"/>
<path d="M32 60.3601C33 60.3601 34 60.3601 35 60.3601C34.06 57.2401 33 53.6001 33 53.6001H31L29 60.3701C30 60.3501 31 60.3701 32 60.3601Z" fill="#3467A8" stroke="#333333" stroke-width="1.5" stroke-miterlimit="10"/>
<path d="M31.9981 48.55L29.3281 51.8801L30.9981 53.55H32.9981L34.5781 51.7701L31.9981 48.55Z" fill="#3467A8" stroke="#343433" stroke-width="1.5" stroke-linecap="round" stroke-linejoin="round"/>
<path d="M32.5009 53.5499L32.2909 56.5499C32.2909 56.6269 32.2603 56.7006 32.206 56.755C32.1516 56.8094 32.0778 56.8399 32.0009 56.8399C31.924 56.8399 31.8502 56.8094 31.7958 56.755C31.7415 56.7006 31.7109 56.6269 31.7109 56.5499L31.5009 53.5499C31.4929 53.4173 31.538 53.287 31.6261 53.1876C31.7143 53.0882 31.8383 53.0279 31.9709 53.0199C32.1035 53.012 32.2338 53.057 32.3332 53.1452C32.4326 53.2333 32.4929 53.3573 32.5009 53.4899V53.5499Z" fill="#343433"/>
<path d="M24.29 41.55C26.3657 44.3758 28.9875 46.7561 32 48.55L28 53.55C25 50.55 23 46.55 23 44.55L24.29 41.55ZM39.67 41.55C37.6175 44.3821 35.0073 46.7643 32 48.55L36 53.55C39 50.55 41 46.55 41 44.55L39.67 41.55Z" fill="white" stroke="#333333" stroke-width="1.5" stroke-linecap="round" stroke-linejoin="round"/>
<path d="M29.46 32.7L27.59 34.1199C27.4063 34.2592 27.2574 34.4391 27.1551 34.6456C27.0527 34.8521 26.9996 35.0795 27 35.31V37" stroke="#A0775C" stroke-miterlimit="10" stroke-linecap="round"/>
<path d="M34.5 32.7L36.37 34.1199C36.5539 34.2612 36.7028 34.443 36.8051 34.6511C36.9074 34.8592 36.9604 35.0881 36.96 35.32V37" stroke="#AD8165" stroke-miterlimit="10" stroke-linecap="round"/>
<path d="M32.9389 35.3701L32.0289 35.7801L30.9989 35.5401L28.3789 36.7001C29.8489 37.3501 30.4889 38.1401 31.2089 38.1201C31.2089 38.1201 32.3089 38.0501 33.0789 37.9701C34.1589 37.8601 34.6689 37.0801 35.7489 35.6501C34.8042 35.6759 33.86 35.5818 32.9389 35.3701Z" fill="#916953"/>
<path d="M28.3795 36.29L28.0195 37.2" stroke="#936B55" stroke-width="0.5" stroke-miterlimit="10" stroke-linecap="round"/>
<path d="M35.5586 35.28L35.9186 36.09" stroke="#936B55" stroke-width="0.5" stroke-miterlimit="10" stroke-linecap="round"/>
<path d="M35.7184 35.8C35.4862 36.0242 35.2353 36.2283 34.9684 36.41C34.8184 36.5033 34.6571 36.5773 34.4884 36.63L34.0084 36.69C33.3684 36.75 32.7284 36.83 32.0784 36.86C31.4284 36.89 30.7784 36.86 30.1484 36.86C29.5184 36.86 28.8884 36.86 28.2884 36.86C28.2504 36.8575 28.2148 36.8405 28.1888 36.8127C28.1628 36.7848 28.1484 36.7481 28.1484 36.71C28.1483 36.6772 28.1607 36.6455 28.1829 36.6214C28.2052 36.5973 28.2357 36.5825 28.2684 36.58H28.4284L30.2884 36.33C30.8984 36.25 31.4884 36.18 32.0784 36.16C32.6684 36.14 33.2684 36.16 33.8684 36.16H34.3184C34.4512 36.1225 34.5788 36.0687 34.6984 36C34.9688 35.8725 35.2295 35.7255 35.4784 35.56C35.5114 35.5305 35.5542 35.5142 35.5984 35.5142C35.6427 35.5142 35.6854 35.5305 35.7184 35.56C35.7371 35.574 35.7522 35.5921 35.7626 35.6129C35.773 35.6337 35.7784 35.6567 35.7784 35.68C35.7784 35.7033 35.773 35.7262 35.7626 35.7471C35.7522 35.7679 35.7371 35.786 35.7184 35.8V35.8Z" fill="#674848"/>
<path d="M31.9805 33.6799V34.4299" stroke="#936B55" stroke-width="0.5" stroke-miterlimit="10" stroke-linecap="round"/>
<path d="M30.0508 32.9299C30.6147 33.3968 31.319 33.6609 32.0508 33.6799C32.7329 33.6527 33.384 33.3873 33.8908 32.9299" stroke="#936B55" stroke-width="0.5" stroke-miterlimit="10" stroke-linecap="round"/>
<path d="M29.4805 32.6101C29.9172 32.6117 30.3467 32.7217 30.7305 32.9301V32.9301C31.113 33.142 31.5432 33.2531 31.9805 33.2531C32.4178 33.2531 32.8479 33.142 33.2305 32.9301V32.9301C33.6143 32.7217 34.0437 32.6117 34.4805 32.6101" stroke="#674848" stroke-width="0.75" stroke-miterlimit="10" stroke-linecap="round"/>
</svg>
