<svg width="40" height="40" viewBox="0 0 64 64" fill="none" xmlns="http://www.w3.org/2000/svg">
<g clip-path="url(#clip0_9683_151831)">
<path d="M4.4993 50.6643V46.3281C4.50038 46.079 4.54831 45.8323 4.64056 45.6009C4.54894 45.3752 4.501 45.1342 4.4993 44.8906V28H0.769531V55.7273H2.61874C2.89855 54.1983 3.67806 52.8054 4.83496 51.7672C4.61704 51.4405 4.50029 51.0569 4.4993 50.6643ZM59.4993 28V44.8906C59.4982 45.1395 59.4504 45.386 59.3583 45.6172C59.4504 45.8484 59.4982 46.0949 59.4993 46.3438V50.6643C59.4983 51.0568 59.3816 51.4402 59.1639 51.7667C60.3215 52.8045 61.1011 54.1978 61.3799 55.7273H62.8743V28H59.4993Z" fill="#81D9E3"/>
<path d="M47.0015 13.3335H16.668V17.0015H47.0015V13.3335Z" fill="#81D9E3"/>
<path d="M27.395 50.085C25.6532 50.3491 24.0796 51.2728 23 52.665V46.5C23.0008 46.235 23.1064 45.9811 23.2938 45.7938C23.4811 45.6064 23.735 45.5008 24 45.5H25.5C25.4992 47.219 26.1808 48.8681 27.395 50.085ZM41 46.5V52.665C39.9204 51.2728 38.3468 50.3491 36.605 50.085C37.8192 48.8681 38.5008 47.219 38.5 45.5H40C40.265 45.5008 40.5189 45.6064 40.7062 45.7938C40.8936 45.9811 40.9992 46.235 41 46.5Z" fill="#E1EBF4"/>
<path d="M56.5492 20.1599V42.1349C56.0735 41.3495 55.4365 40.6738 54.6805 40.1526C53.9244 39.6313 53.0664 39.2764 52.1631 39.1111C51.2598 38.9458 50.3317 38.9739 49.4401 39.1936C48.5484 39.4133 47.7135 39.8196 46.9904 40.3857C46.2674 40.9518 45.6725 41.6648 45.2452 42.4776C44.8179 43.2905 44.5678 44.1847 44.5115 45.1013C44.4552 46.0178 44.5938 46.9359 44.9184 47.795C45.2429 48.6541 45.7459 49.4345 46.3942 50.0849C45.1416 50.2733 43.966 50.8065 42.9992 51.6249C42.9842 51.6349 42.9742 51.6499 42.9592 51.6599C42.8692 51.7349 42.7792 51.8149 42.6942 51.8999C42.6892 51.9049 42.6792 51.9099 42.6742 51.9149C42.5842 51.9999 42.4992 52.0899 42.4142 52.1799C42.3242 52.2699 42.2392 52.3649 42.1592 52.4599C42.0392 52.5999 41.9242 52.7499 41.8142 52.8999C41.8092 52.8999 41.8092 52.9049 41.8092 52.9099C41.6992 53.0649 41.5992 53.2249 41.4992 53.3899C41.4992 53.3893 41.4991 53.3886 41.4989 53.388C41.4986 53.3874 41.4982 53.3868 41.4978 53.3863C41.4973 53.3859 41.4968 53.3855 41.4961 53.3853C41.4955 53.385 41.4949 53.3849 41.4942 53.3849C41.4242 53.2749 41.3592 53.1649 41.2792 53.0549C41.2676 53.0338 41.2543 53.0137 41.2392 52.9949C41.1671 52.8794 41.0869 52.7691 40.9992 52.6649V46.4999C40.9984 46.2349 40.8928 45.981 40.7055 45.7937C40.5181 45.6063 40.2642 45.5007 39.9992 45.4999H38.4992C38.4992 45.3899 38.4942 45.2749 38.4892 45.1649C38.4842 45.0549 38.4742 44.9449 38.4642 44.8349C38.4592 44.7699 38.4492 44.7049 38.4392 44.6349C38.4192 44.4949 38.3992 44.3599 38.3692 44.2249C38.3557 44.1439 38.3373 44.0638 38.3142 43.9849C38.2792 43.8199 38.2292 43.6599 38.1792 43.4999C37.7575 42.1926 36.9321 41.0527 35.8216 40.2441C34.7111 39.4355 33.3729 38.9999 31.9992 38.9999C30.6256 38.9999 29.2873 39.4355 28.1768 40.2441C27.0664 41.0527 26.2409 42.1926 25.8192 43.4999C25.7942 43.5849 25.7642 43.6699 25.7392 43.7549C25.661 44.0425 25.6009 44.3348 25.5592 44.6299C25.5492 44.6999 25.5392 44.7649 25.5342 44.8349C25.5242 44.9449 25.5142 45.0549 25.5092 45.1649C25.5042 45.2749 25.4992 45.3849 25.4992 45.4999H23.9992C23.7342 45.5007 23.4803 45.6063 23.293 45.7937C23.1056 45.981 23 46.2349 22.9992 46.4999V52.6649C22.9115 52.772 22.8297 52.8839 22.7542 52.9999C22.6642 53.1249 22.5842 53.2549 22.5042 53.3849C22.5036 53.3849 22.5029 53.385 22.5023 53.3853C22.5017 53.3855 22.5011 53.3859 22.5007 53.3863C22.5002 53.3868 22.4998 53.3874 22.4996 53.388C22.4993 53.3886 22.4992 53.3893 22.4992 53.3899C22.3057 53.062 22.0849 52.7509 21.8392 52.4599C21.7592 52.3649 21.6742 52.2699 21.5842 52.1799C21.4992 52.0899 21.4142 51.9999 21.3242 51.9149C21.3192 51.9149 21.3192 51.9099 21.3142 51.9049C21.2242 51.8199 21.1342 51.7399 21.0392 51.6599C21.0242 51.6499 21.0142 51.6349 20.9992 51.6249C20.0324 50.8065 18.8569 50.2733 17.6042 50.0849C18.2535 49.4347 18.7574 48.6541 19.0827 47.7947C19.4079 46.9354 19.5472 46.0168 19.4912 45.0996C19.4352 44.1824 19.1853 43.2876 18.7579 42.4742C18.3305 41.6607 17.7354 40.9472 17.0118 40.3808C16.2883 39.8144 15.4528 39.4079 14.5606 39.1883C13.6684 38.9686 12.7397 38.9407 11.8359 39.1065C10.9321 39.2723 10.0738 39.628 9.3176 40.15C8.56142 40.672 7.9246 41.3486 7.44922 42.1349V20.1599H56.5492Z" fill="#FFDB80"/>
<path d="M45.5 12.0001H33V7.74506C33.455 7.43506 33.925 7.59506 35.035 8.17506C35.7949 8.64814 36.6576 8.93113 37.55 9.00006C37.9641 8.99394 38.3722 8.89983 38.7472 8.72398C39.1222 8.54813 39.4555 8.29455 39.725 7.98006C39.9017 7.79379 40.0001 7.5468 40 7.29006V1.71006C40.0002 1.51003 39.9403 1.31454 39.8283 1.14885C39.7162 0.983162 39.557 0.854886 39.3713 0.780595C39.1856 0.706304 38.9818 0.689411 38.7864 0.732099C38.591 0.774788 38.4128 0.875095 38.275 1.02006C37.705 1.62006 37.295 1.52506 35.965 0.825063C34.77 0.195063 32.965 -0.754937 31.275 1.02006C31.0991 1.20684 31.0008 1.4535 31 1.71006V12.0001H18.5C17.7045 12.0007 16.9418 12.317 16.3794 12.8794C15.8169 13.4419 15.5006 14.2046 15.5 15.0001V17.0001H17.5V15.0001C17.5008 14.7351 17.6064 14.4812 17.7938 14.2938C17.9811 14.1065 18.235 14.0008 18.5 14.0001H45.5C45.765 14.0008 46.0189 14.1065 46.2062 14.2938C46.3936 14.4812 46.4992 14.7351 46.5 15.0001V17.0001H48.5V15.0001C48.4994 14.2046 48.1831 13.4419 47.6206 12.8794C47.0582 12.317 46.2955 12.0007 45.5 12.0001ZM33 2.15506C33.455 1.85006 33.925 2.01006 35.035 2.59506C35.825 3.01006 36.885 3.57006 38 3.38506V6.84506C37.545 7.15506 37.075 6.99006 35.965 6.40506C35.2051 5.932 34.3424 5.64901 33.45 5.58006C33.2992 5.58097 33.1486 5.59435 33 5.62006V2.15506Z" fill="#2D4356"/>
<path d="M38 3.3849V6.8449C37.545 7.1549 37.075 6.9899 35.965 6.4049C35.2051 5.93183 34.3424 5.64885 33.45 5.5799C33.2992 5.58081 33.1486 5.59419 33 5.6199V2.1549C33.455 1.8499 33.925 2.0099 35.035 2.5949C35.825 3.0099 36.885 3.5699 38 3.3849Z" fill="#FC785E"/>
<path d="M18 23H14C13.735 23.0008 13.4811 23.1064 13.2938 23.2938C13.1064 23.4811 13.0008 23.735 13 24V29C13.0008 29.265 13.1064 29.5189 13.2938 29.7062C13.4811 29.8936 13.735 29.9992 14 30H18C18.265 29.9992 18.5189 29.8936 18.7062 29.7062C18.8936 29.5189 18.9992 29.265 19 29V24C18.9992 23.735 18.8936 23.4811 18.7062 23.2938C18.5189 23.1064 18.265 23.0008 18 23ZM17 28H15V25H17V28Z" fill="#2D4356"/>
<path d="M17 25H15V28H17V25Z" fill="#E1EBF4"/>
<path d="M26 23H22C21.735 23.0008 21.4811 23.1064 21.2938 23.2938C21.1064 23.4811 21.0008 23.735 21 24V29C21.0008 29.265 21.1064 29.5189 21.2938 29.7062C21.4811 29.8936 21.735 29.9992 22 30H26C26.265 29.9992 26.5189 29.8936 26.7062 29.7062C26.8936 29.5189 26.9992 29.265 27 29V24C26.9992 23.735 26.8936 23.4811 26.7062 23.2938C26.5189 23.1064 26.265 23.0008 26 23ZM25 28H23V25H25V28Z" fill="#2D4356"/>
<path d="M25 25H23V28H25V25Z" fill="#E1EBF4"/>
<path d="M34 23H30C29.735 23.0008 29.4811 23.1064 29.2938 23.2938C29.1064 23.4811 29.0008 23.735 29 24V29C29.0008 29.265 29.1064 29.5189 29.2938 29.7062C29.4811 29.8936 29.735 29.9992 30 30H34C34.265 29.9992 34.5189 29.8936 34.7062 29.7062C34.8936 29.5189 34.9992 29.265 35 29V24C34.9992 23.735 34.8936 23.4811 34.7062 23.2938C34.5189 23.1064 34.265 23.0008 34 23ZM33 28H31V25H33V28Z" fill="#2D4356"/>
<path d="M33 25H31V28H33V25Z" fill="#E1EBF4"/>
<path d="M42 23H38C37.735 23.0008 37.4811 23.1064 37.2938 23.2938C37.1064 23.4811 37.0008 23.735 37 24V29C37.0008 29.265 37.1064 29.5189 37.2938 29.7062C37.4811 29.8936 37.735 29.9992 38 30H42C42.265 29.9992 42.5189 29.8936 42.7062 29.7062C42.8936 29.5189 42.9992 29.265 43 29V24C42.9992 23.735 42.8936 23.4811 42.7062 23.2938C42.5189 23.1064 42.265 23.0008 42 23ZM41 28H39V25H41V28Z" fill="#2D4356"/>
<path d="M41 25H39V28H41V25Z" fill="#E1EBF4"/>
<path d="M50 23H46C45.735 23.0008 45.4811 23.1064 45.2938 23.2938C45.1064 23.4811 45.0008 23.735 45 24V29C45.0008 29.265 45.1064 29.5189 45.2938 29.7062C45.4811 29.8936 45.735 29.9992 46 30H50C50.265 29.9992 50.5189 29.8936 50.7062 29.7062C50.8936 29.5189 50.9992 29.265 51 29V24C50.9992 23.735 50.8936 23.4811 50.7062 23.2938C50.5189 23.1064 50.265 23.0008 50 23ZM49 28H47V25H49V28Z" fill="#2D4356"/>
<path d="M49 25H47V28H49V25Z" fill="#E1EBF4"/>
<path d="M18 32H14C13.735 32.0008 13.4811 32.1064 13.2938 32.2938C13.1064 32.4811 13.0008 32.735 13 33V38C13.0008 38.265 13.1064 38.5189 13.2938 38.7062C13.4811 38.8936 13.735 38.9992 14 39H18C18.265 38.9992 18.5189 38.8936 18.7062 38.7062C18.8936 38.5189 18.9992 38.265 19 38V33C18.9992 32.735 18.8936 32.4811 18.7062 32.2938C18.5189 32.1064 18.265 32.0008 18 32ZM17 37H15V34H17V37Z" fill="#2D4356"/>
<path d="M17 34H15V37H17V34Z" fill="#E1EBF4"/>
<path d="M26 32H22C21.735 32.0008 21.4811 32.1064 21.2938 32.2938C21.1064 32.4811 21.0008 32.735 21 33V38C21.0008 38.265 21.1064 38.5189 21.2938 38.7062C21.4811 38.8936 21.735 38.9992 22 39H26C26.265 38.9992 26.5189 38.8936 26.7062 38.7062C26.8936 38.5189 26.9992 38.265 27 38V33C26.9992 32.735 26.8936 32.4811 26.7062 32.2938C26.5189 32.1064 26.265 32.0008 26 32ZM25 37H23V34H25V37Z" fill="#2D4356"/>
<path d="M25 34H23V37H25V34Z" fill="#E1EBF4"/>
<path d="M34 32H30C29.735 32.0008 29.4811 32.1064 29.2938 32.2938C29.1064 32.4811 29.0008 32.735 29 33V38C29.0008 38.265 29.1064 38.5189 29.2938 38.7062C29.4811 38.8936 29.735 38.9992 30 39H34C34.265 38.9992 34.5189 38.8936 34.7062 38.7062C34.8936 38.5189 34.9992 38.265 35 38V33C34.9992 32.735 34.8936 32.4811 34.7062 32.2938C34.5189 32.1064 34.265 32.0008 34 32ZM33 37H31V34H33V37Z" fill="#2D4356"/>
<path d="M33 34H31V37H33V34Z" fill="#E1EBF4"/>
<path d="M42 32H38C37.735 32.0008 37.4811 32.1064 37.2938 32.2938C37.1064 32.4811 37.0008 32.735 37 33V38C37.0008 38.265 37.1064 38.5189 37.2938 38.7062C37.4811 38.8936 37.735 38.9992 38 39H42C42.265 38.9992 42.5189 38.8936 42.7062 38.7062C42.8936 38.5189 42.9992 38.265 43 38V33C42.9992 32.735 42.8936 32.4811 42.7062 32.2938C42.5189 32.1064 42.265 32.0008 42 32ZM41 37H39V34H41V37Z" fill="#2D4356"/>
<path d="M41 34H39V37H41V34Z" fill="#E1EBF4"/>
<path d="M50 32H46C45.735 32.0008 45.4811 32.1064 45.2938 32.2938C45.1064 32.4811 45.0008 32.735 45 33V38C45.0008 38.265 45.1064 38.5189 45.2938 38.7062C45.4811 38.8936 45.735 38.9992 46 39H50C50.265 38.9992 50.5189 38.8936 50.7062 38.7062C50.8936 38.5189 50.9992 38.265 51 38V33C50.9992 32.735 50.8936 32.4811 50.7062 32.2938C50.5189 32.1064 50.265 32.0008 50 32ZM49 37H47V34H49V37Z" fill="#2D4356"/>
<path d="M49 34H47V37H49V34Z" fill="#E1EBF4"/>
<path d="M32 41C31.11 41 30.24 41.2639 29.4999 41.7584C28.7599 42.2529 28.1831 42.9557 27.8425 43.7779C27.502 44.6002 27.4128 45.505 27.5865 46.3779C27.7601 47.2508 28.1887 48.0526 28.818 48.682C29.4474 49.3113 30.2492 49.7399 31.1221 49.9135C31.995 50.0872 32.8998 49.9981 33.7221 49.6575C34.5443 49.3169 35.2471 48.7401 35.7416 48.0001C36.2361 47.26 36.5 46.39 36.5 45.5C36.4982 44.3071 36.0235 43.1635 35.18 42.32C34.3365 41.4765 33.1929 41.0018 32 41ZM32 48C31.5055 48 31.0222 47.8534 30.6111 47.5787C30.2 47.304 29.8795 46.9135 29.6903 46.4567C29.5011 45.9999 29.4516 45.4972 29.548 45.0123C29.6445 44.5273 29.8826 44.0819 30.2322 43.7322C30.5819 43.3826 31.0273 43.1445 31.5123 43.048C31.9972 42.9516 32.4999 43.0011 32.9567 43.1903C33.4135 43.3795 33.804 43.6999 34.0787 44.1111C34.3534 44.5222 34.5 45.0055 34.5 45.5C34.4998 46.163 34.2363 46.7987 33.7675 47.2675C33.2987 47.7363 32.663 47.9998 32 48Z" fill="#2D4356"/>
<path d="M32 48C33.3807 48 34.5 46.8807 34.5 45.5C34.5 44.1193 33.3807 43 32 43C30.6193 43 29.5 44.1193 29.5 45.5C29.5 46.8807 30.6193 48 32 48Z" fill="#E1EBF4"/>
<path d="M35.5902 52H28.4102C27.097 52.0123 25.8424 52.5452 24.9218 53.4817C24.0012 54.4182 23.4899 55.6818 23.5002 56.995V61C23.5008 61.7955 23.8171 62.5582 24.3795 63.1206C24.942 63.6831 25.7047 63.9994 26.5002 64H37.5002C38.2956 63.9994 39.0583 63.6831 39.6208 63.1206C40.1832 62.5582 40.4995 61.7955 40.5002 61V56.995C40.5104 55.6818 39.9991 54.4182 39.0785 53.4817C38.1579 52.5452 36.9033 52.0123 35.5902 52ZM38.5002 61C38.4994 61.265 38.3938 61.5189 38.2064 61.7062C38.019 61.8936 37.7651 61.9992 37.5002 62H26.5002C26.2352 61.9992 25.9813 61.8936 25.7939 61.7062C25.6065 61.5189 25.5009 61.265 25.5002 61V56.995C25.4901 56.2123 25.7908 55.4575 26.3362 54.8961C26.8817 54.3347 27.6275 54.0125 28.4102 54H35.5902C36.3728 54.0125 37.1186 54.3347 37.6641 54.8961C38.2095 55.4575 38.5102 56.2123 38.5002 56.995V61Z" fill="#2D4356"/>
<path d="M38.5002 56.995V61C38.4995 61.265 38.3939 61.5189 38.2065 61.7062C38.0191 61.8936 37.7652 61.9992 37.5002 62H26.5002C26.2353 61.9992 25.9814 61.8936 25.794 61.7062C25.6066 61.5189 25.501 61.265 25.5002 61V56.995C25.4902 56.2123 25.7909 55.4575 26.3363 54.8961C26.8818 54.3347 27.6276 54.0125 28.4102 54H35.5902C36.3729 54.0125 37.1187 54.3347 37.6642 54.8961C38.2096 55.4575 38.5103 56.2123 38.5002 56.995Z" fill="#FC785E"/>
<path d="M3 29H4.5V27H3C2.20462 27.0009 1.44206 27.3172 0.879639 27.8796C0.317218 28.4421 0.000868196 29.2046 0 30L0 55.5C0.000434098 55.8977 0.158609 56.279 0.439819 56.5602C0.72103 56.8414 1.10231 56.9996 1.5 57H2.5V56.9963C2.50056 56.3204 2.59856 55.648 2.79096 55H2V30C2.00026 29.7349 2.10571 29.4807 2.29319 29.2932C2.48066 29.1057 2.73486 29.0003 3 29ZM6.55884 46.3281H6.5V50.6642C7.10037 50.379 7.73931 50.1834 8.39643 50.0837C7.38602 49.0691 6.73989 47.7485 6.55884 46.3281ZM13 41C12.11 41 11.24 41.2639 10.4999 41.7584C9.75991 42.2529 9.18314 42.9557 8.84254 43.7779C8.50195 44.6002 8.41283 45.505 8.58647 46.3779C8.7601 47.2508 9.18868 48.0526 9.81802 48.682C10.4474 49.3113 11.2492 49.7399 12.1221 49.9135C12.995 50.0872 13.8998 49.9981 14.7221 49.6575C15.5443 49.3169 16.2471 48.7401 16.7416 48.0001C17.2361 47.26 17.5 46.39 17.5 45.5C17.4982 44.3071 17.0235 43.1635 16.18 42.32C15.3365 41.4765 14.1929 41.0018 13 41ZM13 48C12.5055 48 12.0222 47.8534 11.6111 47.5787C11.2 47.304 10.8795 46.9135 10.6903 46.4567C10.5011 45.9999 10.4516 45.4972 10.548 45.0123C10.6445 44.5273 10.8826 44.0819 11.2322 43.7322C11.5819 43.3826 12.0273 43.1445 12.5123 43.048C12.9972 42.9516 13.4999 43.0011 13.9567 43.1903C14.4135 43.3795 14.804 43.6999 15.0787 44.1111C15.3534 44.5222 15.5 45.0055 15.5 45.5C15.4998 46.163 15.2363 46.7987 14.7675 47.2675C14.2987 47.7363 13.663 47.9998 13 48Z" fill="#2D4356"/>
<path d="M13 48C14.3807 48 15.5 46.8807 15.5 45.5C15.5 44.1193 14.3807 43 13 43C11.6193 43 10.5 44.1193 10.5 45.5C10.5 46.8807 11.6193 48 13 48Z" fill="#E1EBF4"/>
<path d="M16.5901 52H9.41015C8.09699 52.0123 6.84237 52.5452 5.92178 53.4817C5.00119 54.4182 4.48989 55.6818 4.50015 56.995V61C4.50078 61.7955 4.81705 62.5582 5.37953 63.1206C5.942 63.6831 6.70469 63.9994 7.50015 64H18.5001C19.2956 63.9994 20.0583 63.6831 20.6208 63.1206C21.1832 62.5582 21.4995 61.7955 21.5001 61V56.995C21.5104 55.6818 20.9991 54.4182 20.0785 53.4817C19.1579 52.5452 17.9033 52.0123 16.5901 52ZM19.5001 61C19.4994 61.265 19.3938 61.5189 19.2064 61.7062C19.019 61.8936 18.7651 61.9992 18.5001 62H7.50015C7.23517 61.9992 6.98127 61.8936 6.79391 61.7062C6.60654 61.5189 6.50093 61.265 6.50015 61V56.995C6.4901 56.2123 6.79076 55.4575 7.33623 54.8961C7.8817 54.3347 8.62749 54.0125 9.41015 54H16.5901C17.3728 54.0125 18.1186 54.3347 18.6641 54.8961C19.2095 55.4575 19.5102 56.2123 19.5001 56.995V61Z" fill="#2D4356"/>
<path d="M19.5002 56.995V61C19.4995 61.265 19.3939 61.5189 19.2065 61.7062C19.0191 61.8936 18.7652 61.9992 18.5002 62H7.50024C7.23527 61.9992 6.98137 61.8936 6.794 61.7062C6.60663 61.5189 6.50102 61.265 6.50024 61V56.995C6.4902 56.2123 6.79085 55.4575 7.33632 54.8961C7.8818 54.3347 8.62758 54.0125 9.41024 54H16.5902C17.3729 54.0125 18.1187 54.3347 18.6642 54.8961C19.2096 55.4575 19.5103 56.2123 19.5002 56.995Z" fill="#FC785E"/>
<path d="M51 41C50.11 41 49.24 41.2639 48.4999 41.7584C47.7599 42.2529 47.1831 42.9557 46.8425 43.7779C46.5019 44.6002 46.4128 45.505 46.5865 46.3779C46.7601 47.2508 47.1887 48.0526 47.818 48.682C48.4474 49.3113 49.2492 49.7399 50.1221 49.9135C50.995 50.0872 51.8998 49.9981 52.7221 49.6575C53.5443 49.3169 54.2471 48.7401 54.7416 48.0001C55.2361 47.26 55.5 46.39 55.5 45.5C55.4982 44.3071 55.0235 43.1635 54.18 42.32C53.3365 41.4765 52.1929 41.0018 51 41ZM51 48C50.5055 48 50.0222 47.8534 49.6111 47.5787C49.2 47.304 48.8795 46.9135 48.6903 46.4567C48.5011 45.9999 48.4516 45.4972 48.548 45.0123C48.6445 44.5273 48.8826 44.0819 49.2322 43.7322C49.5819 43.3826 50.0273 43.1445 50.5123 43.048C50.9972 42.9516 51.4999 43.0011 51.9567 43.1903C52.4135 43.3795 52.804 43.6999 53.0787 44.1111C53.3534 44.5222 53.5 45.0055 53.5 45.5C53.4998 46.163 53.2363 46.7987 52.7675 47.2675C52.2987 47.7363 51.663 47.9998 51 48Z" fill="#2D4356"/>
<path d="M51 48C52.3807 48 53.5 46.8807 53.5 45.5C53.5 44.1193 52.3807 43 51 43C49.6193 43 48.5 44.1193 48.5 45.5C48.5 46.8807 49.6193 48 51 48Z" fill="#E1EBF4"/>
<path d="M54.5901 52H47.4102C46.097 52.0123 44.8424 52.5452 43.9218 53.4817C43.0012 54.4182 42.4899 55.6818 42.5002 56.995V61C42.5008 61.7955 42.8171 62.5582 43.3795 63.1206C43.942 63.6831 44.7047 63.9994 45.5002 64H56.5001C57.2956 63.9994 58.0583 63.6831 58.6208 63.1206C59.1832 62.5582 59.4995 61.7955 59.5001 61V56.995C59.5104 55.6818 58.9991 54.4182 58.0785 53.4817C57.1579 52.5452 55.9033 52.0123 54.5901 52ZM57.5001 61C57.4994 61.265 57.3938 61.5189 57.2064 61.7062C57.019 61.8936 56.7651 61.9992 56.5001 62H45.5002C45.2352 61.9992 44.9813 61.8936 44.7939 61.7062C44.6065 61.5189 44.5009 61.265 44.5002 61V56.995C44.4901 56.2123 44.7908 55.4575 45.3362 54.8961C45.8817 54.3347 46.6275 54.0125 47.4102 54H54.5901C55.3728 54.0125 56.1186 54.3347 56.6641 54.8961C57.2095 55.4575 57.5102 56.2123 57.5001 56.995V61Z" fill="#2D4356"/>
<path d="M57.5002 56.995V61C57.4995 61.265 57.3939 61.5189 57.2065 61.7062C57.0191 61.8936 56.7652 61.9992 56.5002 62H45.5002C45.2353 61.9992 44.9814 61.8936 44.794 61.7062C44.6066 61.5189 44.501 61.265 44.5002 61V56.995C44.4902 56.2123 44.7909 55.4575 45.3363 54.8961C45.8818 54.3347 46.6276 54.0125 47.4102 54H54.5902C55.3729 54.0125 56.1187 54.3347 56.6642 54.8961C57.2096 55.4575 57.5103 56.2123 57.5002 56.995Z" fill="#FC785E"/>
<path d="M61 27H59.5V29H61C61.2651 29.0003 61.5193 29.1057 61.7068 29.2932C61.8943 29.4807 61.9997 29.7349 62 30V55H61.209C61.4014 55.648 61.4994 56.3204 61.5 56.9963V57H62.5C62.8977 56.9996 63.279 56.8414 63.5602 56.5602C63.8414 56.279 63.9996 55.8977 64 55.5V30C63.9991 29.2046 63.6828 28.4421 63.1204 27.8796C62.5579 27.3172 61.7954 27.0009 61 27ZM55.6036 50.0837C56.2607 50.1834 56.8996 50.379 57.5 50.6642V46.3438H57.4388C57.2551 47.7583 56.61 49.0728 55.6036 50.0837ZM8.5 40.8204V22C8.50026 21.7349 8.60571 21.4807 8.79319 21.2932C8.98066 21.1057 9.23486 21.0003 9.5 21H54.5C54.7651 21.0003 55.0193 21.1057 55.2068 21.2932C55.3943 21.4807 55.4997 21.7349 55.5 22V40.8204C56.6232 41.8971 57.3217 43.3417 57.4682 44.8906H57.5V22C57.4991 21.2046 57.1828 20.4421 56.6204 19.8796C56.0579 19.3172 55.2954 19.0009 54.5 19H9.5C8.70462 19.0009 7.94206 19.3172 7.37964 19.8796C6.81722 20.4421 6.50087 21.2046 6.5 22V44.8906H6.53879C6.68303 43.3425 7.37911 41.8979 8.5 40.8204Z" fill="#2D4356"/>
<path d="M25.82 43.5C25.795 43.585 25.765 43.67 25.74 43.755C25.6618 44.0426 25.6017 44.3349 25.56 44.63C25.55 44.7 25.54 44.765 25.535 44.835C25.525 44.945 25.515 45.055 25.51 45.165C25.505 45.275 25.5 45.385 25.5 45.5H24C23.735 45.5008 23.4811 45.6064 23.2938 45.7938C23.1064 45.9811 23.0008 46.235 23 46.5V52.665C22.915 52.775 22.83 52.885 22.755 53C22.665 53.125 22.585 53.255 22.505 53.385C22.3114 53.0574 22.0888 52.7479 21.84 52.46C21.76 52.365 21.675 52.27 21.585 52.18C21.505 52.09 21.415 52 21.325 51.915C21.32 51.915 21.32 51.91 21.315 51.905C21.225 51.82 21.135 51.74 21.04 51.66C21.025 51.65 21.015 51.635 21 51.625V46.5C21.0006 45.7045 21.3169 44.9418 21.8794 44.3794C22.4418 43.8169 23.2045 43.5006 24 43.5H25.82ZM43 46.5V51.625C42.985 51.635 42.975 51.65 42.96 51.66C42.87 51.735 42.78 51.815 42.695 51.9C42.69 51.905 42.68 51.91 42.675 51.915C42.585 52 42.495 52.09 42.415 52.18C42.325 52.27 42.24 52.365 42.16 52.46C42.04 52.6 41.925 52.745 41.815 52.9C41.81 52.9 41.81 52.905 41.81 52.91C41.6958 53.0621 41.5907 53.2207 41.495 53.385C41.43 53.275 41.36 53.165 41.28 53.055C41.2684 53.0339 41.255 53.0138 41.24 52.995C41.165 52.885 41.085 52.775 41 52.665V46.5C40.9992 46.235 40.8936 45.9811 40.7062 45.7938C40.5189 45.6064 40.265 45.5008 40 45.5H38.5C38.5 45.385 38.495 45.275 38.49 45.165C38.485 45.055 38.475 44.945 38.465 44.835C38.46 44.77 38.45 44.7 38.44 44.635C38.42 44.495 38.4 44.36 38.37 44.225C38.355 44.145 38.335 44.065 38.315 43.985C38.28 43.82 38.23 43.66 38.18 43.5H40C40.7955 43.5006 41.5582 43.8169 42.1206 44.3794C42.6831 44.9418 42.9994 45.7045 43 46.5Z" fill="#2D4356"/>
<path opacity="0.3" d="M38.5002 56.995V57.995C38.5103 57.2123 38.2096 56.4575 37.6642 55.8961C37.1187 55.3347 36.3729 55.0125 35.5902 55H28.4102C27.6276 55.0125 26.8818 55.3347 26.3363 55.8961C25.7909 56.4575 25.4902 57.2123 25.5002 57.995V56.995C25.4902 56.2123 25.7909 55.4575 26.3363 54.8961C26.8818 54.3347 27.6276 54.0125 28.4102 54H35.5902C36.3729 54.0125 37.1187 54.3347 37.6642 54.8961C38.2096 55.4575 38.5103 56.2123 38.5002 56.995Z" fill="#F9DBD7"/>
<path opacity="0.5" d="M34.5001 45.5C34.5013 45.6663 34.4845 45.8323 34.4501 45.995C34.3334 45.4314 34.0261 44.9253 33.5798 44.5619C33.1335 44.1985 32.5756 44.0001 32.0001 44.0001C31.4245 44.0001 30.8666 44.1985 30.4203 44.5619C29.974 44.9253 29.6667 45.4314 29.5501 45.995C29.5156 45.8323 29.4989 45.6663 29.5001 45.5C29.5001 44.837 29.7635 44.2011 30.2323 43.7322C30.7011 43.2634 31.337 43 32.0001 43C32.6631 43 33.299 43.2634 33.7678 43.7322C34.2367 44.2011 34.5001 44.837 34.5001 45.5Z" fill="white"/>
<path opacity="0.5" d="M34.5001 45.4999C34.5001 46.1629 34.2367 46.7988 33.7678 47.2677C33.299 47.7365 32.6631 47.9999 32.0001 47.9999C31.337 47.9999 30.7011 47.7365 30.2323 47.2677C29.7635 46.7988 29.5001 46.1629 29.5001 45.4999C29.4989 45.3336 29.5156 45.1676 29.5501 45.0049C29.6667 45.5685 29.974 46.0746 30.4203 46.438C30.8666 46.8014 31.4245 46.9998 32.0001 46.9998C32.5756 46.9998 33.1335 46.8014 33.5798 46.438C34.0261 46.0746 34.3334 45.5685 34.4501 45.0049C34.4845 45.1676 34.5013 45.3336 34.5001 45.4999Z" fill="#9FA5AA"/>
<path opacity="0.5" d="M38.5 60V61C38.4992 61.265 38.3936 61.5189 38.2062 61.7062C38.0189 61.8936 37.765 61.9992 37.5 62H26.5C26.235 61.9992 25.9811 61.8936 25.7938 61.7062C25.6064 61.5189 25.5008 61.265 25.5 61V60C25.5008 60.265 25.6064 60.5189 25.7938 60.7062C25.9811 60.8936 26.235 60.9992 26.5 61H37.5C37.765 60.9992 38.0189 60.8936 38.2062 60.7062C38.3936 60.5189 38.4992 60.265 38.5 60Z" fill="#A54B3F"/>
<path opacity="0.5" d="M15.5001 45.5C15.5013 45.6663 15.4845 45.8323 15.4501 45.995C15.3334 45.4314 15.0261 44.9253 14.5798 44.5619C14.1335 44.1985 13.5756 44.0001 13.0001 44.0001C12.4245 44.0001 11.8666 44.1985 11.4203 44.5619C10.974 44.9253 10.6667 45.4314 10.5501 45.995C10.5156 45.8323 10.4989 45.6663 10.5001 45.5C10.5001 44.837 10.7635 44.2011 11.2323 43.7322C11.7011 43.2634 12.337 43 13.0001 43C13.6631 43 14.299 43.2634 14.7678 43.7322C15.2367 44.2011 15.5001 44.837 15.5001 45.5Z" fill="white"/>
<path opacity="0.5" d="M15.5001 45.4999C15.5001 46.1629 15.2367 46.7988 14.7678 47.2677C14.299 47.7365 13.6631 47.9999 13.0001 47.9999C12.337 47.9999 11.7011 47.7365 11.2323 47.2677C10.7635 46.7988 10.5001 46.1629 10.5001 45.4999C10.4989 45.3336 10.5156 45.1676 10.5501 45.0049C10.6667 45.5685 10.974 46.0746 11.4203 46.438C11.8666 46.8014 12.4245 46.9998 13.0001 46.9998C13.5756 46.9998 14.1335 46.8014 14.5798 46.438C15.0261 46.0746 15.3334 45.5685 15.4501 45.0049C15.4845 45.1676 15.5013 45.3336 15.5001 45.4999Z" fill="#9FA5AA"/>
<path opacity="0.3" d="M19.5002 56.995V57.995C19.5103 57.2123 19.2096 56.4575 18.6642 55.8961C18.1187 55.3347 17.3729 55.0125 16.5902 55H9.41024C8.62758 55.0125 7.8818 55.3347 7.33632 55.8961C6.79085 56.4575 6.4902 57.2123 6.50024 57.995V56.995C6.4902 56.2123 6.79085 55.4575 7.33632 54.8961C7.8818 54.3347 8.62758 54.0125 9.41024 54H16.5902C17.3729 54.0125 18.1187 54.3347 18.6642 54.8961C19.2096 55.4575 19.5103 56.2123 19.5002 56.995Z" fill="#F9DBD7"/>
<path opacity="0.5" d="M19.5 60V61C19.4992 61.265 19.3936 61.5189 19.2062 61.7062C19.0189 61.8936 18.765 61.9992 18.5 62H7.5C7.23502 61.9992 6.98112 61.8936 6.79375 61.7062C6.60639 61.5189 6.50078 61.265 6.5 61V60C6.50078 60.265 6.60639 60.5189 6.79375 60.7062C6.98112 60.8936 7.23502 60.9992 7.5 61H18.5C18.765 60.9992 19.0189 60.8936 19.2062 60.7062C19.3936 60.5189 19.4992 60.265 19.5 60Z" fill="#A54B3F"/>
<path opacity="0.5" d="M53.5001 45.5C53.5013 45.6663 53.4845 45.8323 53.4501 45.995C53.3334 45.4314 53.0261 44.9253 52.5798 44.5619C52.1335 44.1985 51.5756 44.0001 51.0001 44.0001C50.4245 44.0001 49.8666 44.1985 49.4203 44.5619C48.974 44.9253 48.6667 45.4314 48.5501 45.995C48.5156 45.8323 48.4989 45.6663 48.5001 45.5C48.5001 44.837 48.7634 44.2011 49.2323 43.7322C49.7011 43.2634 50.337 43 51.0001 43C51.6631 43 52.299 43.2634 52.7678 43.7322C53.2367 44.2011 53.5001 44.837 53.5001 45.5Z" fill="white"/>
<path opacity="0.5" d="M53.5001 45.4999C53.5001 46.1629 53.2367 46.7988 52.7678 47.2677C52.299 47.7365 51.6631 47.9999 51.0001 47.9999C50.337 47.9999 49.7011 47.7365 49.2323 47.2677C48.7634 46.7988 48.5001 46.1629 48.5001 45.4999C48.4989 45.3336 48.5156 45.1676 48.5501 45.0049C48.6667 45.5685 48.974 46.0746 49.4203 46.438C49.8666 46.8014 50.4245 46.9998 51.0001 46.9998C51.5756 46.9998 52.1335 46.8014 52.5798 46.438C53.0261 46.0746 53.3334 45.5685 53.4501 45.0049C53.4845 45.1676 53.5013 45.3336 53.5001 45.4999Z" fill="#9FA5AA"/>
<path opacity="0.3" d="M57.5002 56.995V57.995C57.5103 57.2123 57.2096 56.4575 56.6642 55.8961C56.1187 55.3347 55.3729 55.0125 54.5902 55H47.4102C46.6276 55.0125 45.8818 55.3347 45.3363 55.8961C44.7909 56.4575 44.4902 57.2123 44.5002 57.995V56.995C44.4902 56.2123 44.7909 55.4575 45.3363 54.8961C45.8818 54.3347 46.6276 54.0125 47.4102 54H54.5902C55.3729 54.0125 56.1187 54.3347 56.6642 54.8961C57.2096 55.4575 57.5103 56.2123 57.5002 56.995Z" fill="#F9DBD7"/>
<path opacity="0.5" d="M57.5 60V61C57.4992 61.265 57.3936 61.5189 57.2062 61.7062C57.0189 61.8936 56.765 61.9992 56.5 62H45.5C45.235 61.9992 44.9811 61.8936 44.7938 61.7062C44.6064 61.5189 44.5008 61.265 44.5 61V60C44.5008 60.265 44.6064 60.5189 44.7938 60.7062C44.9811 60.8936 45.235 60.9992 45.5 61H56.5C56.765 60.9992 57.0189 60.8936 57.2062 60.7062C57.3936 60.5189 57.4992 60.265 57.5 60Z" fill="#A54B3F"/>
<path opacity="0.3" d="M38 3.3849V4.3849C36.885 4.5699 35.825 4.0099 35.035 3.5949C33.925 3.0099 33.455 2.8499 33 3.1549V2.1549C33.455 1.8499 33.925 2.0099 35.035 2.5949C35.825 3.0099 36.885 3.5699 38 3.3849Z" fill="#F9DBD7"/>
<path opacity="0.4" d="M46.5 15V16C46.4992 15.735 46.3936 15.4811 46.2062 15.2938C46.0189 15.1064 45.765 15.0008 45.5 15H18.5C18.235 15.0008 17.9811 15.1064 17.7938 15.2938C17.6064 15.4811 17.5008 15.735 17.5 16V15C17.5008 14.735 17.6064 14.4811 17.7938 14.2938C17.9811 14.1064 18.235 14.0008 18.5 14H45.5C45.765 14.0008 46.0189 14.1064 46.2062 14.2938C46.3936 14.4811 46.4992 14.735 46.5 15Z" fill="#E8FBFC"/>
<path opacity="0.5" d="M55.5 22V23C55.4992 22.735 55.3936 22.4811 55.2062 22.2938C55.0189 22.1064 54.765 22.0008 54.5 22H9.5C9.23502 22.0008 8.98112 22.1064 8.79375 22.2938C8.60639 22.4811 8.50078 22.735 8.5 23V22C8.50078 21.735 8.60639 21.4811 8.79375 21.2938C8.98112 21.1064 9.23502 21.0008 9.5 21H54.5C54.765 21.0008 55.0189 21.1064 55.2062 21.2938C55.3936 21.4811 55.4992 21.735 55.5 22Z" fill="#F9EDD2"/>
<path opacity="0.4" d="M4.5 29V30H3C2.73502 30.0008 2.48112 30.1064 2.29375 30.2938C2.10639 30.4811 2.00078 30.735 2 31V30C2.00078 29.735 2.10639 29.4811 2.29375 29.2938C2.48112 29.1064 2.73502 29.0008 3 29H4.5ZM62 30V31C61.9992 30.735 61.8936 30.4811 61.7062 30.2938C61.5189 30.1064 61.265 30.0008 61 30H59.5V29H61C61.265 29.0008 61.5189 29.1064 61.7062 29.2938C61.8936 29.4811 61.9992 29.735 62 30Z" fill="#E8FBFC"/>
</g>
<defs>
<clipPath id="clip0_9683_151831">
<rect width="64" height="64" rx="32" fill="white"/>
</clipPath>
</defs>
</svg>
