<svg id="Layer_1" data-name="Layer 1" xmlns="http://www.w3.org/2000/svg" viewBox="0 0 1000 1000"><defs><style>.cls-1{fill:#0544a3;}.cls-2{opacity:0.3;}.cls-3{fill:#ff5700;}</style></defs><path class="cls-1" d="M409.36,772.32a1,1,0,0,1,.57,0L424,776.57a.85.85,0,0,1,.47.32.82.82,0,0,1,.2.51l1.75,25.25,2.36,1.14a1.06,1.06,0,0,1,.49.49.93.93,0,0,1,0,.68L427,812.51a1,1,0,0,1-1.29.7l-18.13-5.48a1,1,0,0,1-.63-.5,1,1,0,0,1-.06-.79l2.3-7.6a.92.92,0,0,1,.36-.53,1,1,0,0,1,.64-.16l1.75.13,0-13.38L404.5,796l1.53.86a1,1,0,0,1,.44.49.93.93,0,0,1,0,.64l-2.3,7.6a1,1,0,0,1-.5.62,1,1,0,0,1-.79.07l-14.66-4.43a1,1,0,0,1-.63-.49,1,1,0,0,1-.06-.8l2.28-7.56a1,1,0,0,1,.4-.54,1,1,0,0,1,.68-.14l2.57.35,15.44-20.06A.81.81,0,0,1,409.36,772.32Z"/><path class="cls-1" d="M374,767.17a15.61,15.61,0,0,0-2.72-1,16.91,16.91,0,0,0-2.43-.43,14.63,14.63,0,0,0-2.08,0,18.5,18.5,0,0,0-1.95.23.74.74,0,0,1-.46-.07l-2.25-1a1,1,0,0,1-.55-.58,1,1,0,0,1,.05-.8l3.95-8.57a1.08,1.08,0,0,1,.58-.55,1,1,0,0,1,.8,0l25.43,11.73a1,1,0,0,1,.53.59,1,1,0,0,1,0,.79l-3.31,7.19a1.07,1.07,0,0,1-.46.48,1,1,0,0,1-.66.07l-2.07-.51-5.81,12.58,1.73,1.24a.94.94,0,0,1,.38.55,1,1,0,0,1-.07.66L379.29,797a1,1,0,0,1-.58.55,1,1,0,0,1-.79,0l-25.43-11.73a1,1,0,0,1-.55-.58,1,1,0,0,1,.05-.8l3.95-8.58a1,1,0,0,1,1.38-.5l2.35,1.08a17.73,17.73,0,0,0,1.09,1.62,14.53,14.53,0,0,0,1.51,1.72,16.07,16.07,0,0,0,2,1.67,15.13,15.13,0,0,0,2.52,1.45l2.58-5.58-5.4-1.2a1.11,1.11,0,0,1-.25-.09,1,1,0,0,1-.58-.6,1.06,1.06,0,0,1,.06-.85l2.19-4.74a1.08,1.08,0,0,1,.6-.59,1.07,1.07,0,0,1,.84,0,1.31,1.31,0,0,1,.23.13l4.42,3.33Z"/><path class="cls-1" d="M360.93,751.71a1,1,0,0,1-.14.78l-4.27,6.67a1,1,0,0,1-.52.41.91.91,0,0,1-.67,0l-2-.79-7.5,11.71,1.55,1.47a1,1,0,0,1,.3.59.93.93,0,0,1-.17.64l-4.27,6.67a1,1,0,0,1-1.43.31l-15.62-10a50.69,50.69,0,0,1-7.73-5.85,10.81,10.81,0,0,1-3.33-5.82c-.4-2.12.24-4.47,1.9-7.05a10.57,10.57,0,0,1,2.81-3.09,6.89,6.89,0,0,1,3.35-1.21,16.07,16.07,0,0,1,4.5.33,26.33,26.33,0,0,0,0-5,43.29,43.29,0,0,0-.84-6,.67.67,0,0,1,.12-.57l2.32-3.61a1,1,0,0,1,.64-.46,1,1,0,0,1,.78.14l10.72,6.87a.88.88,0,0,1,.33.36.92.92,0,0,1,.09.47c-.23,2.54-.52,4.83-.89,6.87a35,35,0,0,1-1.49,5.71l.66.43,6.11-9.53a1,1,0,0,1,.64-.46,1,1,0,0,1,.79.15l12.8,8.2A1,1,0,0,1,360.93,751.71Zm-27.25,5a3.13,3.13,0,0,0-2.17-.06,4.15,4.15,0,0,0-1.92,1.79,4,4,0,0,0-.79,2.48,3.34,3.34,0,0,0,1,2,13.56,13.56,0,0,0,2.52,2l4.27-6.67A15.81,15.81,0,0,0,333.68,756.76Z"/><path class="cls-1" d="M309.42,746.68a.91.91,0,0,1-.24.62l-5.05,6.1a1,1,0,0,1-.7.38,1,1,0,0,1-.75-.24L288.75,742a1,1,0,0,1-.39-.7,1.06,1.06,0,0,1,.25-.76l5.05-6.09a1,1,0,0,1,.57-.35.91.91,0,0,1,.66.1l1.87,1,8.86-10.71-1.35-1.65a1,1,0,0,1-.23-.62,1,1,0,0,1,.24-.62l5.05-6.1a1,1,0,0,1,1.46-.14l13.93,11.54a1,1,0,0,1,.37.7,1,1,0,0,1-.23.75l-5.06,6.1a1,1,0,0,1-.56.35.9.9,0,0,1-.66-.1l-1.87-1-8.87,10.71,1.36,1.65A.89.89,0,0,1,309.42,746.68Z"/><path class="cls-1" d="M278.86,711.93l-4.13-2.6-.13-.09-.11-.09a1.22,1.22,0,0,1-.42-.77,1.28,1.28,0,0,1,.47-.79l3.67-3.59a1.27,1.27,0,0,1,.79-.45,1.18,1.18,0,0,1,.76.43.62.62,0,0,1,.09.11l.08.13,2.52,4.18,3.15-3.08-1.15-1.86a1.1,1.1,0,0,1-.21-.64,1.16,1.16,0,0,1,.36-.55l5.62-5.51a.86.86,0,0,1,1.47,0l12.66,12.92a.84.84,0,0,1,0,1.46l-5.65,5.54a1.18,1.18,0,0,1-.59.36,1,1,0,0,1-.65-.24l-1.76-1.21-9.89,9.7,1.17,1.78a1,1,0,0,1,.23.65,1.11,1.11,0,0,1-.37.58l-5.69,5.58a1.14,1.14,0,0,1-.73.41,1.19,1.19,0,0,1-.73-.43l-18-18.39a1.16,1.16,0,0,1-.41-.74,1.24,1.24,0,0,1,.42-.73l6.75-6.61a1.1,1.1,0,0,1,.74-.4,1.14,1.14,0,0,1,.73.42c1.13,1.15,1.72,1.76,1.77,1.8l.15.16c0,.48.06,1,.13,1.58a9.81,9.81,0,0,0,.41,1.75,9.1,9.1,0,0,0,.81,1.79,9,9,0,0,0,1.33,1.73Z"/><path class="cls-1" d="M262.73,702a1,1,0,0,1-.36.56l-6.19,4.93a1,1,0,0,1-.77.22,1.06,1.06,0,0,1-.69-.39l-11.26-14.16a1,1,0,0,1-.23-.76,1,1,0,0,1,.4-.69l6.2-4.93a1,1,0,0,1,.63-.22.93.93,0,0,1,.62.24l1.61,1.38,10.89-8.65-1-1.89a1,1,0,0,1-.09-.66,1,1,0,0,1,.36-.56l6.2-4.93a1,1,0,0,1,.75-.22,1,1,0,0,1,.7.39l11.26,14.15a1.06,1.06,0,0,1-.17,1.46l-6.19,4.93a1,1,0,0,1-.63.22.91.91,0,0,1-.62-.24l-1.62-1.38-10.88,8.65,1,1.89A.85.85,0,0,1,262.73,702Z"/><path class="cls-1" d="M246.42,661.69a5.73,5.73,0,0,0,1.17-2.44,5.88,5.88,0,0,0-.12-2.69,10.55,10.55,0,0,0-1.31-2.91,24.33,24.33,0,0,0-2.53-3.3q-1.56-1.74-4.17-4.18l-.12-.13a.53.53,0,0,1-.1-.13A1.36,1.36,0,0,1,239,645c0-.21.26-.45.66-.7l7.23-4.53.41-.25a44.16,44.16,0,0,1,5.23,5,43.18,43.18,0,0,1,4.05,5.45,27.9,27.9,0,0,1,3.18,7,16.07,16.07,0,0,1,.5,7,15.79,15.79,0,0,1-2.65,6.53,22.65,22.65,0,0,1-13.43,8.55,14,14,0,0,1-6.66-.45,16.07,16.07,0,0,1-5.89-3.48,28.67,28.67,0,0,1-5-6.12,38.65,38.65,0,0,1-2.3-4.2,35.07,35.07,0,0,1-1.39-3.37c-.31-1-.56-1.83-.74-2.64s-.35-1.66-.51-2.57a1,1,0,0,1,0-.54,1,1,0,0,1,.4-.37l7.38-4.62a1.08,1.08,0,0,1,.8-.24,1.16,1.16,0,0,1,.62.57l2.89,4.61.16.25a7.5,7.5,0,0,0-.67,3.43,6,6,0,0,0,.88,2.86,6.27,6.27,0,0,0,1.72,1.8,6.47,6.47,0,0,0,2.34,1,7,7,0,0,0,2.74,0,8,8,0,0,0,2.94-1.17A10.35,10.35,0,0,0,246.42,661.69Z"/><path class="cls-1" d="M230.91,600.33a1,1,0,0,1,.58.55l4.47,10a.93.93,0,0,1,.06.65.89.89,0,0,1-.37.52l-4.17,3,3.82,8.59,5-1.1a1,1,0,0,1,.65.07.94.94,0,0,1,.46.48l4.47,10a1,1,0,0,1,0,.79,1,1,0,0,1-.55.58l-8.69,3.87a.92.92,0,0,1-.65.06,1,1,0,0,1-.53-.39l-1.18-1.65-22.69,3.08a1,1,0,0,1-.59-.11,1.06,1.06,0,0,1-.4-.46l-7-15.66a1,1,0,0,1-.07-.61.86.86,0,0,1,.31-.51l17.45-14.84-.44-2a1,1,0,0,1,.54-1.11l8.7-3.87A1,1,0,0,1,230.91,600.33ZM225.21,620l-10.76,7.83,13-2.78Z"/><path class="cls-1" d="M197.64,607.53a1,1,0,0,1-.49-.61l-8.49-28.36a1.05,1.05,0,0,1,.07-.8,1,1,0,0,1,.63-.49l9-2.71a1,1,0,0,1,1.29.7l.78,2.62a11.83,11.83,0,0,0-.71,1.14,6.52,6.52,0,0,0-.58,1.32,5.89,5.89,0,0,0-.27,1.46,4.55,4.55,0,0,0,.2,1.57l14.93-4.48-.21-2.12a1,1,0,0,1,.16-.64,1,1,0,0,1,.54-.39l7.59-2.27a1,1,0,0,1,1.29.7l5.18,17.32a1,1,0,0,1-.69,1.29l-7.59,2.27a1,1,0,0,1-.66,0,.94.94,0,0,1-.49-.45l-1-1.89-14.93,4.47a4.63,4.63,0,0,0,.69,1.41,5.33,5.33,0,0,0,.93,1,6.9,6.9,0,0,0,1,.67c.34.19.73.38,1.19.59a.82.82,0,0,1,.46.55l.68,2.24a1,1,0,0,1-.08.78,1,1,0,0,1-.62.5l-9.05,2.71A1,1,0,0,1,197.64,607.53Z"/><path class="cls-1" d="M196,567a.93.93,0,0,1-.58.32l-7.78,1.43a1,1,0,0,1-1.21-.83l-3.27-17.78a1.07,1.07,0,0,1,.15-.79,1,1,0,0,1,.68-.42l7.79-1.43a1.05,1.05,0,0,1,.66.09.91.91,0,0,1,.43.51l.78,2,13.67-2.51,0-2.13a.94.94,0,0,1,.23-.63,1,1,0,0,1,.58-.32l7.79-1.43a1,1,0,0,1,.77.15,1,1,0,0,1,.44.68l3.27,17.79a1,1,0,0,1-.17.77,1,1,0,0,1-.66.43l-7.79,1.43a.93.93,0,0,1-.66-.09,1,1,0,0,1-.44-.51l-.77-2-13.68,2.51,0,2.13A.88.88,0,0,1,196,567Z"/><path class="cls-1" d="M214.93,522.94a19.07,19.07,0,0,1-1,4.85,17.42,17.42,0,0,1-2.13,4.22,14.4,14.4,0,0,1-3.3,3.36A16.73,16.73,0,0,1,204,537.7a22.72,22.72,0,0,1-5.89,1.07,20.72,20.72,0,0,1-5.64-.4,15.92,15.92,0,0,1-4.54-1.77,14,14,0,0,1-3.5-2.94,17.17,17.17,0,0,1-2.51-3.94,22.86,22.86,0,0,1-1.59-4.73,33.65,33.65,0,0,1-.62-10.72,23.75,23.75,0,0,1,1.05-4.91,17.09,17.09,0,0,1,2.06-4.2,13.6,13.6,0,0,1,3.14-3.33,15.56,15.56,0,0,1,4.3-2.27,20.21,20.21,0,0,1,5.53-1,19.79,19.79,0,0,1,8.42,1.11,15.28,15.28,0,0,1,5.92,4,16.68,16.68,0,0,1,3.5,6.22,31.85,31.85,0,0,1,1.38,7.79A40.79,40.79,0,0,1,214.93,522.94Zm-24.61-1.48a4.77,4.77,0,0,0,1.06,1.57,4.53,4.53,0,0,0,1.43.9,8.41,8.41,0,0,0,3.12.51l1.3-.05,1.3-.09a8.57,8.57,0,0,0,1.53-.29,8.36,8.36,0,0,0,1.55-.59,4.21,4.21,0,0,0,1.35-1.06,4.87,4.87,0,0,0,.91-1.67,6.76,6.76,0,0,0,.24-2.44,6.61,6.61,0,0,0-.52-2.39,4.83,4.83,0,0,0-1.09-1.57,4.44,4.44,0,0,0-1.46-.92,8.14,8.14,0,0,0-1.61-.42,12.11,12.11,0,0,0-1.56-.1l-1.3,0-1.3.11a9.6,9.6,0,0,0-1.52.28,7.69,7.69,0,0,0-1.52.59,4.48,4.48,0,0,0-1.31,1.08,4.92,4.92,0,0,0-.88,1.69,6.69,6.69,0,0,0-.23,2.43A6.57,6.57,0,0,0,190.32,521.46Z"/><path class="cls-1" d="M215.69,469.57a.72.72,0,0,1-.31.29l-17.49,9.54,6.49.64.58-2a1,1,0,0,1,.4-.54,1,1,0,0,1,.65-.15l7.9.79a1,1,0,0,1,.7.36,1,1,0,0,1,.23.77l-1.22,12.27a1,1,0,0,1-.38.69.94.94,0,0,1-.75.23l-7.88-.78a1,1,0,0,1-.61-.27.9.9,0,0,1-.28-.61l-.2-2.12-13.83-1.37-.61,2a1,1,0,0,1-.39.54,1,1,0,0,1-.65.15l-7.88-.79a1,1,0,0,1-.71-.37,1,1,0,0,1-.22-.76l1.56-15.69A.86.86,0,0,1,181,472a.74.74,0,0,1,.32-.29l18.32-9.48-7.3-.73-.65,2.06a.92.92,0,0,1-.38.52,1,1,0,0,1-.64.15l-7.9-.78a1,1,0,0,1-.71-.38,1,1,0,0,1-.22-.76L183,450a1,1,0,0,1,1.14-.93l7.87.78a1,1,0,0,1,.61.28.89.89,0,0,1,.28.6l.2,2.12,13.83,1.38.61-2a.91.91,0,0,1,.39-.54.93.93,0,0,1,.65-.15l7.88.78a1,1,0,0,1,.7.36,1,1,0,0,1,.23.77l-1.56,15.72A1,1,0,0,1,215.69,469.57Z"/><path class="cls-1" d="M233,395.86a1,1,0,0,1,.06.8l-3.34,10.45a1,1,0,0,1-.4.53.89.89,0,0,1-.62.14l-5.12-.53-2.87,8.95,4.46,2.52a1,1,0,0,1,.44.48.88.88,0,0,1,0,.66l-3.35,10.45a.94.94,0,0,1-.51.61,1,1,0,0,1-.79.07L212,428.08a.9.9,0,0,1-.52-.39,1,1,0,0,1-.14-.65l.22-2-19-12.83a1,1,0,0,1-.37-.48,1,1,0,0,1,0-.61l5.23-16.32a.94.94,0,0,1,.35-.51.86.86,0,0,1,.57-.17l22.9.56,1-1.76a.93.93,0,0,1,.49-.45,1,1,0,0,1,.65,0l9.06,2.91A1,1,0,0,1,233,395.86Zm-17.36,10.88-13.25-1.34L214,412Z"/><path class="cls-1" d="M245.52,370.19a.91.91,0,0,1-.4.16L225.37,373l5.83,2.92,1.28-1.7a1,1,0,0,1,.56-.36,1,1,0,0,1,.66.1l7.1,3.55a1,1,0,0,1,.52.59,1,1,0,0,1-.06.8l-5.53,11a.94.94,0,0,1-.6.52,1,1,0,0,1-.79-.06l-7.07-3.55a.9.9,0,0,1-.47-.47.94.94,0,0,1-.05-.66l.58-2.05-12.43-6.24-1.3,1.69a.92.92,0,0,1-.55.36,1,1,0,0,1-.67-.09l-7.07-3.55a1,1,0,0,1-.53-.61,1,1,0,0,1,.07-.78l7.07-14.09a.79.79,0,0,1,.29-.34,1,1,0,0,1,.4-.15l20.51-2.29-6.56-3.29L225.21,356a.89.89,0,0,1-.54.35,1,1,0,0,1-.65-.08l-7.09-3.56a1,1,0,0,1-.53-.61,1.05,1.05,0,0,1,.06-.78l5.53-11a1.05,1.05,0,0,1,.6-.54,1,1,0,0,1,.79.08l7.08,3.55a.94.94,0,0,1,.47.47.88.88,0,0,1,0,.66l-.58,2,12.43,6.24,1.3-1.69a1,1,0,0,1,.56-.36,1,1,0,0,1,.66.09l7.08,3.55a1,1,0,0,1,.52.59,1,1,0,0,1-.06.8l-7.08,14.12A1,1,0,0,1,245.52,370.19Z"/><path class="cls-1" d="M229,329.3a1,1,0,0,1,.19-.76l14.75-20.39a24.07,24.07,0,0,1,5.08-3.58,14.7,14.7,0,0,1,5.32-1.63,14,14,0,0,1,5.62.59,20.36,20.36,0,0,1,5.92,3.07,18.88,18.88,0,0,1,5.79,6.25,14,14,0,0,1,1.68,7,20.28,20.28,0,0,1-1.86,7.63,45.81,45.81,0,0,1-4.78,8.15l-9.52,13.16a1,1,0,0,1-.68.42,1,1,0,0,1-.77-.19l-6.41-4.64a.95.95,0,0,1-.33-1.2l.9-1.93-11.94-8.64-1.55,1.46a.91.91,0,0,1-.61.26,1,1,0,0,1-.64-.19L229.37,330A1,1,0,0,1,229,329.3Zm30.63-1.51a10.39,10.39,0,0,0,1.75-3.31,3.86,3.86,0,0,0-.1-2.42,5.05,5.05,0,0,0-1.47-1.92c-.69-.59-1.48-1.2-2.38-1.85s-1.74-1.22-2.51-1.69a5,5,0,0,0-2.3-.8,3.76,3.76,0,0,0-2.32.66,10.23,10.23,0,0,0-2.61,2.7l-1.29,1.78,11.94,8.64Z"/><path class="cls-1" d="M321.52,276.44a1,1,0,0,1-.35.73L313,284.53a.89.89,0,0,1-.6.26.92.92,0,0,1-.61-.19l-4.17-3-7,6.31,2.6,4.41a1,1,0,0,1,.14.64.93.93,0,0,1-.31.58L295,300.89a1,1,0,0,1-.75.26,1,1,0,0,1-.71-.34l-6.39-7.05a.94.94,0,0,1-.25-.6,1,1,0,0,1,.2-.63l1.2-1.63-10-20.61a.82.82,0,0,1-.08-.59.94.94,0,0,1,.31-.53l12.71-11.5a.94.94,0,0,1,.55-.26.86.86,0,0,1,.58.14l19.54,12,1.74-1a.88.88,0,0,1,.64-.14.93.93,0,0,1,.58.31l6.38,7.06A1,1,0,0,1,321.52,276.44Zm-20.48.71-10.79-7.79,6.69,11.51Z"/><path class="cls-1" d="M343.84,231.35a.9.9,0,0,1-.29.59L342,233.45c.25.4.51.8.76,1.18l.75,1.11,2.12,3.16a23.3,23.3,0,0,1,3.5,7.54,15.79,15.79,0,0,1,.23,6.7,12.84,12.84,0,0,1-2.55,5.57,20.66,20.66,0,0,1-4.75,4.35,35.85,35.85,0,0,1-4.39,2.53,16.73,16.73,0,0,1-4.47,1.43,15.88,15.88,0,0,1-4.51.09,14.18,14.18,0,0,1-4.4-1.28,16.94,16.94,0,0,1-4.15-2.8,23.7,23.7,0,0,1-3.81-4.49l-3.65-5.44-2,.83a.92.92,0,0,1-.67,0,1,1,0,0,1-.52-.4L305.16,247a1,1,0,0,1,.28-1.44l13.81-9.26a1,1,0,0,1,1.44.29l4.4,6.58a.92.92,0,0,1,.18.64,1,1,0,0,1-.29.6l-1.51,1.5,1.61,2.41.63.94.61.88.5.73.31.46c.21.31.46.67.75,1.07a7.82,7.82,0,0,0,1,1.18,8.38,8.38,0,0,0,1.31,1,4,4,0,0,0,1.59.62,4.62,4.62,0,0,0,1.91-.07,7.67,7.67,0,0,0,4-2.69,4.86,4.86,0,0,0,.8-1.74,4.35,4.35,0,0,0,.05-1.72,7.41,7.41,0,0,0-.46-1.6,12,12,0,0,0-.7-1.39c-.26-.42-.49-.79-.7-1.1l-.32-.47c-.14-.21-.3-.45-.5-.72s-.39-.56-.6-.88l-.63-.94L333,239.48l-2,.83a.89.89,0,0,1-.66,0,1,1,0,0,1-.53-.4l-4.41-6.58a1,1,0,0,1-.17-.78,1,1,0,0,1,.45-.65l12.07-8.1a1.05,1.05,0,0,1,.78-.17,1.08,1.08,0,0,1,.66.45l4.41,6.58A1,1,0,0,1,343.84,231.35Z"/><path class="cls-1" d="M346.89,219.3a1,1,0,0,1,.53-.58l26.65-12.88a1,1,0,0,1,.8-.06,1,1,0,0,1,.59.54l4.11,8.51a1,1,0,0,1,.05.79,1,1,0,0,1-.54.59l-2.47,1.19c-.37-.18-.78-.36-1.23-.53a7.76,7.76,0,0,0-1.4-.36,6.16,6.16,0,0,0-1.49,0,4.45,4.45,0,0,0-1.5.45l6.78,14,2.06-.54a.89.89,0,0,1,.66.05.94.94,0,0,1,.46.48l3.45,7.13a1,1,0,0,1,.06.78,1,1,0,0,1-.54.6l-16.29,7.87a1,1,0,0,1-1.38-.48l-3.44-7.13a1,1,0,0,1,.28-1.22l1.71-1.27-6.78-14a4.3,4.3,0,0,0-1.28.91,5,5,0,0,0-.84,1.08,6.63,6.63,0,0,0-.51,1.08c-.13.36-.26.78-.4,1.27a.79.79,0,0,1-.46.54l-2.1,1a1,1,0,0,1-1.38-.48l-4.11-8.51A.94.94,0,0,1,346.89,219.3Z"/><path class="cls-1" d="M387.11,210.38a1,1,0,0,1-.39-.54l-2.33-7.61a1,1,0,0,1,.07-.8,1,1,0,0,1,.61-.5l17.3-5.29a1,1,0,0,1,1.29.68l2.33,7.62a1,1,0,0,1,0,.66.94.94,0,0,1-.45.49l-1.89,1,1.25,4.07,11-3.37-1.24-4.07-2.12.23a1,1,0,0,1-.65-.16,1,1,0,0,1-.39-.54l-2.33-7.61a1,1,0,0,1,.07-.8,1,1,0,0,1,.61-.5l17.3-5.29a1,1,0,0,1,.79.06,1,1,0,0,1,.5.62l2.33,7.62a1,1,0,0,1,0,.67,1,1,0,0,1-.46.49l-1.88,1,4.06,13.24,2.12-.22a.92.92,0,0,1,.65.15,1.07,1.07,0,0,1,.39.54l2.31,7.57a1,1,0,0,1-.06.79,1,1,0,0,1-.62.51L420,226.38a1,1,0,0,1-.78-.07,1,1,0,0,1-.51-.61l-2.32-7.57a1,1,0,0,1,0-.67.93.93,0,0,1,.45-.49l1.88-1-1.32-4.32-11,3.37,1.32,4.32,2.12-.22a.92.92,0,0,1,.65.15,1,1,0,0,1,.39.54l2.31,7.57a1,1,0,0,1-.68,1.29l-17.3,5.3a1,1,0,0,1-.79-.07,1,1,0,0,1-.5-.61l-2.32-7.58a1,1,0,0,1,0-.66.86.86,0,0,1,.45-.49l1.88-1-4.05-13.25-2.12.22A.91.91,0,0,1,387.11,210.38Z"/><path class="cls-1" d="M460.29,209.06a15.73,15.73,0,0,0,2.82-.67,17,17,0,0,0,2.27-1,14.27,14.27,0,0,0,1.76-1.1,14.94,14.94,0,0,0,1.51-1.25.82.82,0,0,1,.43-.2l2.44-.35a1,1,0,0,1,.78.18,1,1,0,0,1,.4.7l1.35,9.35a1,1,0,0,1-.19.76,1,1,0,0,1-.69.41l-27.72,4a1,1,0,0,1-.77-.2,1,1,0,0,1-.4-.68l-1.13-7.83a.94.94,0,0,1,.12-.66.9.9,0,0,1,.52-.41l2-.7-2-13.72-2.13-.1a.91.91,0,0,1-.61-.25,1,1,0,0,1-.3-.6l-1.14-7.88a1,1,0,0,1,.87-1.17l27.72-4a1,1,0,0,1,.78.18,1,1,0,0,1,.4.7l1.35,9.35a1,1,0,0,1-.19.76,1,1,0,0,1-.69.41l-2.56.37c-.52-.26-1.12-.51-1.79-.77a15.81,15.81,0,0,0-2.22-.62,16.88,16.88,0,0,0-2.58-.31,15.33,15.33,0,0,0-2.9.16l.87,6.08,5.18-1.93.26-.06a1,1,0,0,1,.81.19,1.09,1.09,0,0,1,.42.75l.75,5.16a1.1,1.1,0,0,1-.19.82,1,1,0,0,1-.73.43,1.33,1.33,0,0,1-.27,0l-5.51-.38Z"/><path class="cls-1" d="M502.42,215a.84.84,0,0,1-.31-.28l-11.23-16.46v6.52l2.09.38a1,1,0,0,1,.58.34,1,1,0,0,1,.21.63v7.94a1,1,0,0,1-.3.73,1,1,0,0,1-.74.31H480.4a1,1,0,0,1-.73-.3,1,1,0,0,1-.3-.74v-7.92a1,1,0,0,1,.22-.62.89.89,0,0,1,.57-.34l2.1-.41v-13.9l-2.09-.4a1,1,0,0,1-.58-.34,1,1,0,0,1-.21-.63v-7.92a1,1,0,0,1,.3-.74,1,1,0,0,1,.73-.3h15.77a1,1,0,0,1,.43.11.87.87,0,0,1,.31.29l11.26,17.3V190.9l-2.12-.45a1,1,0,0,1-.55-.33,1,1,0,0,1-.22-.62v-7.94a1,1,0,0,1,.31-.74,1,1,0,0,1,.73-.29h12.33a1,1,0,0,1,1,1v7.92a1,1,0,0,1-.21.63.88.88,0,0,1-.57.33l-2.1.41v13.9l2.09.41a.88.88,0,0,1,.57.33,1,1,0,0,1,.22.63V214a1,1,0,0,1-.29.73,1,1,0,0,1-.74.31h-15.8A1,1,0,0,1,502.42,215Z"/><path class="cls-1" d="M529.52,181.83a1,1,0,0,1,.76-.19l29.32,4.14a1,1,0,0,1,.69.39,1,1,0,0,1,.19.77l-1.32,9.36a1,1,0,0,1-.4.68.94.94,0,0,1-.77.2l-2.72-.38c-.21-.36-.45-.74-.73-1.13a6.94,6.94,0,0,0-1-1.08,5.9,5.9,0,0,0-1.22-.85,4.32,4.32,0,0,0-1.5-.47l-2.17,15.43,2,.7a.89.89,0,0,1,.52.41.93.93,0,0,1,.12.65l-1.1,7.85a1,1,0,0,1-1.17.88l-17.91-2.53a1,1,0,0,1-.68-.4,1,1,0,0,1-.2-.77l1.11-7.84a.91.91,0,0,1,.3-.59.9.9,0,0,1,.61-.26l2.13-.11,2.18-15.43a4.39,4.39,0,0,0-1.58,0,5,5,0,0,0-1.3.43,7.43,7.43,0,0,0-1,.61c-.31.23-.65.51-1,.83a.81.81,0,0,1-.69.2l-2.31-.32a1,1,0,0,1-.69-.41,1,1,0,0,1-.2-.76l1.32-9.36A1,1,0,0,1,529.52,181.83Z"/><path class="cls-1" d="M567,197.25a1,1,0,0,1,0-.66l1.94-7.67a1,1,0,0,1,.48-.65,1,1,0,0,1,.78-.1l17.53,4.44a1,1,0,0,1,.65.47,1,1,0,0,1,.1.79l-1.94,7.67a1,1,0,0,1-.37.56.93.93,0,0,1-.63.19l-2.13-.13-3.42,13.48,1.93.91a.9.9,0,0,1,.47.47.93.93,0,0,1,.06.66l-1.95,7.68a1,1,0,0,1-.46.63,1,1,0,0,1-.79.11l-17.54-4.44a1,1,0,0,1-.63-.47,1,1,0,0,1-.11-.79l1.94-7.67a1,1,0,0,1,.36-.56,1,1,0,0,1,.64-.19l2.13.13,3.41-13.48-1.93-.91A.9.9,0,0,1,567,197.25Z"/><path class="cls-1" d="M604.43,219.45a5.67,5.67,0,0,0,.55,2.66,5.85,5.85,0,0,0,1.71,2.06,10.38,10.38,0,0,0,2.81,1.52,23.73,23.73,0,0,0,4,1.1q2.28.45,5.85.81l.17,0,.16.05a.93.93,0,0,1,.65,1.47l-3,8c0,.14-.1.29-.17.46a44.18,44.18,0,0,1-7.22-.86,42.91,42.91,0,0,1-6.51-1.89,28,28,0,0,1-6.76-3.64A16.09,16.09,0,0,1,592,226a15.91,15.91,0,0,1-1.84-6.79,22.65,22.65,0,0,1,5.53-14.94,14,14,0,0,1,5.58-3.67,16.28,16.28,0,0,1,6.79-.79,28.7,28.7,0,0,1,7.71,1.84,39,39,0,0,1,4.37,2,34.36,34.36,0,0,1,3.14,1.84q1.24.86,2.19,1.65c.63.54,1.29,1.12,2,1.74a1,1,0,0,1,.3.46,1.2,1.2,0,0,1-.09.54l-3.09,8.14a.85.85,0,0,1-1.33.6l-5.09-1.93-.28-.1a7.58,7.58,0,0,0-1.54-3.14,6,6,0,0,0-2.43-1.74,6.24,6.24,0,0,0-2.46-.4,6.4,6.4,0,0,0-2.48.6,7.19,7.19,0,0,0-2.2,1.63,7.92,7.92,0,0,0-1.63,2.72A9.85,9.85,0,0,0,604.43,219.45Z"/><path class="cls-1" d="M653.84,259a1,1,0,0,1-.79-.09l-9.62-5.29a1,1,0,0,1-.44-.49.94.94,0,0,1,0-.64l1.5-4.92L636.24,243l-3.33,3.9a1,1,0,0,1-1.21.23l-9.61-5.29a1,1,0,0,1-.41-1.41l4.59-8.33a.92.92,0,0,1,1.14-.45l1.93.6,16.23-16.15a.87.87,0,0,1,.54-.27.93.93,0,0,1,.6.12l15,8.27a.9.9,0,0,1,.42.44.85.85,0,0,1,.06.59l-4.94,22.37,1.54,1.31a.94.94,0,0,1,.23,1.21l-4.59,8.33A1,1,0,0,1,653.84,259Zm-7.34-19.12,3.86-12.75-8.71,10.08Z"/><path class="cls-1" d="M676,233.13a1,1,0,0,1,.76.2l23.9,17.47a1,1,0,0,1,.43.67,1,1,0,0,1-.2.77l-5.58,7.63a1,1,0,0,1-.66.42,1,1,0,0,1-.78-.2l-2.22-1.61a13.17,13.17,0,0,0-.11-1.34,6.35,6.35,0,0,0-.34-1.4,5.36,5.36,0,0,0-.67-1.33,4.67,4.67,0,0,0-1.1-1.12l-9.2,12.58,1.45,1.56a.87.87,0,0,1,.26.61,1.07,1.07,0,0,1-.19.64l-4.68,6.39a1,1,0,0,1-.66.42,1,1,0,0,1-.79-.2L661,264.62a1,1,0,0,1-.41-.67,1,1,0,0,1,.19-.77l4.67-6.4a1,1,0,0,1,.55-.38.9.9,0,0,1,.66.07l1.93.91,9.19-12.59a4.52,4.52,0,0,0-1.4-.71,5.45,5.45,0,0,0-1.35-.23,7.71,7.71,0,0,0-1.19.06c-.38.06-.82.14-1.3.25a.87.87,0,0,1-.71-.15L670,242.63a1,1,0,0,1-.41-.68,1,1,0,0,1,.18-.77l5.58-7.63A1,1,0,0,1,676,233.13Z"/><path class="cls-1" d="M701.81,264.43a.94.94,0,0,1,.26-.61l5.34-5.86a1,1,0,0,1,1.46-.06l13.37,12.18a1,1,0,0,1,.35.72,1,1,0,0,1-.28.74L717,277.39a.92.92,0,0,1-.58.32.89.89,0,0,1-.65-.13l-1.82-1.11-9.36,10.27,1.27,1.71a1,1,0,0,1,.19.64,1,1,0,0,1-.26.61l-5.34,5.85a1,1,0,0,1-1.46.07L685.6,283.44a1,1,0,0,1-.34-.72,1,1,0,0,1,.27-.75l5.33-5.85a1,1,0,0,1,.58-.32,1,1,0,0,1,.66.13l1.81,1.11,9.37-10.27L702,265.06A.88.88,0,0,1,701.81,264.43Z"/><path class="cls-1" d="M713.41,310.94a19.29,19.29,0,0,1-2.16-4.46,16.64,16.64,0,0,1-.85-4.64,14.46,14.46,0,0,1,.58-4.68,16.2,16.2,0,0,1,2.22-4.6,21.91,21.91,0,0,1,4-4.43A20,20,0,0,1,722,285a15.66,15.66,0,0,1,4.68-1.35,14,14,0,0,1,4.57.22,16.91,16.91,0,0,1,4.38,1.61,22.86,22.86,0,0,1,4.14,2.8,32.42,32.42,0,0,1,3.81,3.79,33.57,33.57,0,0,1,3.18,4.36,24.22,24.22,0,0,1,2.14,4.54,17.38,17.38,0,0,1,.91,4.59,13.75,13.75,0,0,1-.49,4.55,15.53,15.53,0,0,1-2,4.42,22.41,22.41,0,0,1-11.13,8.4,15.39,15.39,0,0,1-7.13.41,16.76,16.76,0,0,1-6.56-2.83,31.94,31.94,0,0,1-5.82-5.36A39.83,39.83,0,0,1,713.41,310.94Zm20.47-13.74a4.67,4.67,0,0,0-1.8-.6,4.23,4.23,0,0,0-1.67.15,7.5,7.5,0,0,0-1.51.63,8,8,0,0,0-1.29.85l-1,.83c-.29.24-.62.53-1,.87a7.81,7.81,0,0,0-1,1.15,8.33,8.33,0,0,0-.87,1.41,4.25,4.25,0,0,0-.43,1.66,4.75,4.75,0,0,0,.29,1.88,6.49,6.49,0,0,0,1.29,2.08,6.42,6.42,0,0,0,1.86,1.59,4.91,4.91,0,0,0,1.82.59,4.32,4.32,0,0,0,1.72-.16,7.47,7.47,0,0,0,1.53-.64,10.46,10.46,0,0,0,1.3-.86c.39-.31.73-.58,1-.83s.61-.53,1-.87a9.46,9.46,0,0,0,1-1.14,7,7,0,0,0,.86-1.39,4.54,4.54,0,0,0,.39-1.66,4.91,4.91,0,0,0-.32-1.87,7,7,0,0,0-1.29-2.08A6.86,6.86,0,0,0,733.88,297.2Z"/><path class="cls-1" d="M745.13,353.85a.85.85,0,0,1,.07-.42l8.15-18.18-5.56,3.42.77,2a.89.89,0,0,1,0,.66,1,1,0,0,1-.43.52L741.39,346a1,1,0,0,1-.78.14,1,1,0,0,1-.64-.48l-6.46-10.5a1,1,0,0,1,.34-1.42l6.75-4.15a1.06,1.06,0,0,1,.65-.15.9.9,0,0,1,.58.32l1.44,1.57L755.12,324l-.75-2a.89.89,0,0,1,0-.66,1,1,0,0,1,.43-.52l6.74-4.14a1,1,0,0,1,1.43.34l8.26,13.43a.89.89,0,0,1,.12.43.85.85,0,0,1-.08.42L762.4,350l6.25-3.84-.73-2a.94.94,0,0,1,.41-1.15l6.76-4.15a1,1,0,0,1,.79-.13,1,1,0,0,1,.64.47l6.45,10.5a1,1,0,0,1,.14.78,1,1,0,0,1-.48.64l-6.74,4.15a1.08,1.08,0,0,1-.65.15.94.94,0,0,1-.59-.32l-1.44-1.57-11.84,7.28.75,2a.94.94,0,0,1,0,.66,1,1,0,0,1-.42.52L755,368.06a1,1,0,0,1-.78.13,1,1,0,0,1-.65-.47l-8.26-13.45A.91.91,0,0,1,745.13,353.85Z"/><path class="cls-1" d="M768.18,402.23a19.4,19.4,0,0,1-.38-4.94,17,17,0,0,1,.9-4.63,14.4,14.4,0,0,1,2.25-4.14A16.12,16.12,0,0,1,774.7,385a22.48,22.48,0,0,1,5.38-2.65,20.5,20.5,0,0,1,5.53-1.16,15.64,15.64,0,0,1,4.85.47,13.65,13.65,0,0,1,4.17,1.87,17.29,17.29,0,0,1,3.5,3.09,23.36,23.36,0,0,1,2.82,4.12,32.91,32.91,0,0,1,2.16,4.93,32.42,32.42,0,0,1,1.36,5.22,22.56,22.56,0,0,1,.33,5,17.4,17.4,0,0,1-.82,4.61,14.19,14.19,0,0,1-2.12,4.06,15.66,15.66,0,0,1-3.51,3.36,22.55,22.55,0,0,1-13.44,3.75,15.17,15.17,0,0,1-6.78-2.23,16.75,16.75,0,0,1-5.08-5,32.14,32.14,0,0,1-3.45-7.11A41.39,41.39,0,0,1,768.18,402.23Zm24.08-5.31a4.67,4.67,0,0,0-1.46-1.21,4.13,4.13,0,0,0-1.62-.47,7.4,7.4,0,0,0-1.63,0,8.09,8.09,0,0,0-1.51.32c-.47.14-.88.28-1.24.4l-1.22.45a9.53,9.53,0,0,0-1.4.69,8.73,8.73,0,0,0-1.33,1,4.25,4.25,0,0,0-1,1.38,5.08,5.08,0,0,0-.41,1.86,6.72,6.72,0,0,0,.44,2.41,6.44,6.44,0,0,0,1.15,2.16,4.87,4.87,0,0,0,1.48,1.21,4.3,4.3,0,0,0,1.66.49,7,7,0,0,0,1.66-.05,9.71,9.71,0,0,0,1.52-.32c.47-.14.89-.27,1.24-.4s.76-.27,1.22-.46a9.78,9.78,0,0,0,1.38-.68,6.84,6.84,0,0,0,1.31-1,4.31,4.31,0,0,0,1-1.39,4.89,4.89,0,0,0,.39-1.86,8.05,8.05,0,0,0-1.58-4.57Z"/><path class="cls-1" d="M800.3,444.4l2,4.43.06.15a.33.33,0,0,1,0,.13,1.16,1.16,0,0,1-.07.88,1.25,1.25,0,0,1-.82.4l-5,1a1.32,1.32,0,0,1-.92-.06,1.21,1.21,0,0,1-.39-.78.42.42,0,0,1,0-.14v-.16l.17-4.87-4.32.87,0,2.19a1.08,1.08,0,0,1-.19.64,1,1,0,0,1-.6.27l-7.71,1.56a1.21,1.21,0,0,1-.84-.06,1.11,1.11,0,0,1-.38-.75l-3.58-17.74a1.12,1.12,0,0,1,.07-.83,1.1,1.1,0,0,1,.75-.39l7.76-1.56a1.17,1.17,0,0,1,.69,0,1.08,1.08,0,0,1,.41.56l.81,2,13.59-2.73,0-2.13a1.08,1.08,0,0,1,.16-.68,1.12,1.12,0,0,1,.63-.28l7.81-1.58a1.22,1.22,0,0,1,.84.06,1.2,1.2,0,0,1,.38.75l5.08,25.25a1.11,1.11,0,0,1-.06.84,1.12,1.12,0,0,1-.75.38l-9.26,1.87a1.17,1.17,0,0,1-.84-.06,1.2,1.2,0,0,1-.38-.75c-.32-1.59-.48-2.42-.5-2.48a1.55,1.55,0,0,0,0-.21c.25-.42.5-.89.75-1.4a9.36,9.36,0,0,0,.61-1.69,9.15,9.15,0,0,0,.3-1.94,8.72,8.72,0,0,0-.17-2.18Z"/><path class="cls-1" d="M800,493.65a5.7,5.7,0,0,0-2.27,1.49,6,6,0,0,0-1.29,2.36,10.38,10.38,0,0,0-.37,3.17,23.35,23.35,0,0,0,.46,4.13q.42,2.29,1.4,5.74c0,.07,0,.13,0,.17s0,.09,0,.16a1.35,1.35,0,0,1-.22.89,1.23,1.23,0,0,1-.91.26l-8.54.14h-.48a43,43,0,0,1-1.87-7,42.34,42.34,0,0,1-.65-6.75,27.3,27.3,0,0,1,.89-7.63,15.92,15.92,0,0,1,3.17-6.21,15.67,15.67,0,0,1,5.63-4.22,22.7,22.7,0,0,1,15.92-.39,14.16,14.16,0,0,1,5.48,3.83,16.23,16.23,0,0,1,3.24,6,28.79,28.79,0,0,1,1.14,7.85,37.33,37.33,0,0,1-.2,4.78A32.12,32.12,0,0,1,820,506a23.11,23.11,0,0,1-.72,2.64c-.26.78-.56,1.61-.89,2.47a1,1,0,0,1-.32.44,1,1,0,0,1-.53.11l-8.7.14a1.1,1.1,0,0,1-.81-.21,1.08,1.08,0,0,1-.24-.8c-.06-3.54-.09-5.36-.09-5.45s0-.19,0-.29a7.77,7.77,0,0,0,2.35-2.59,6,6,0,0,0,.71-2.9,6.26,6.26,0,0,0-.53-2.44,6.52,6.52,0,0,0-1.47-2.08,7.4,7.4,0,0,0-2.33-1.44,8.14,8.14,0,0,0-3.13-.51A10.07,10.07,0,0,0,800,493.65Z"/><path class="cls-1" d="M792.19,536.51a14.85,14.85,0,0,0-.06,2.89,15.8,15.8,0,0,0,.36,2.44,14.86,14.86,0,0,0,.61,2,17,17,0,0,0,.84,1.78.81.81,0,0,1,.08.46l-.27,2.46a1,1,0,0,1-.38.71,1,1,0,0,1-.77.21l-9.39-1.05a1,1,0,0,1-.69-.37,1,1,0,0,1-.22-.78l3.1-27.83a1,1,0,0,1,.39-.69,1,1,0,0,1,.76-.22l7.87.87a1,1,0,0,1,.6.29.93.93,0,0,1,.27.6l.17,2.13,13.77,1.53.64-2a.9.9,0,0,1,.4-.53,1,1,0,0,1,.65-.15l7.91.89a1,1,0,0,1,.7.38,1,1,0,0,1,.22.76l-3.11,27.83a1,1,0,0,1-.37.71,1,1,0,0,1-.77.21l-9.39-1a1,1,0,0,1-.92-1.14l.29-2.57a18.8,18.8,0,0,0,1.19-1.55,14.16,14.16,0,0,0,1.16-2,17.18,17.18,0,0,0,.95-2.42,16.07,16.07,0,0,0,.58-2.86l-6.11-.68.57,5.5a.86.86,0,0,1,0,.27,1,1,0,0,1-.39.74,1.09,1.09,0,0,1-.82.21l-5.19-.58a1.07,1.07,0,0,1-.75-.39,1,1,0,0,1-.22-.8.81.81,0,0,1,0-.27l1.76-5.24Z"/><path class="cls-1" d="M781.66,553.85a1,1,0,0,1,.79-.12l7.67,1.95a1,1,0,0,1,.57.36.93.93,0,0,1,.18.64l-.12,2.13,13.48,3.41.9-1.93a1,1,0,0,1,.47-.48,1,1,0,0,1,.66,0l7.68,1.94a1,1,0,0,1,.65.48,1,1,0,0,1,.1.78l-4.55,18a50.32,50.32,0,0,1-3.1,9.18,10.82,10.82,0,0,1-4.47,5q-2.82,1.56-7.29.43a10.49,10.49,0,0,1-3.82-1.69,6.91,6.91,0,0,1-2.21-2.79,15.92,15.92,0,0,1-1.11-4.38,26.23,26.23,0,0,0-4.73,1.59A43.82,43.82,0,0,0,778,591a.73.73,0,0,1-.57.07L773.27,590a1,1,0,0,1-.75-1.25l3.13-12.35a.89.89,0,0,1,.65-.65q3.72-.88,6.8-1.34A35.45,35.45,0,0,1,789,574l.19-.76-11-2.78a1,1,0,0,1-.75-1.25l3.73-14.75A1,1,0,0,1,781.66,553.85Zm13.42,24.26a3.12,3.12,0,0,0,.63,2.07,4.22,4.22,0,0,0,2.31,1.26,4.11,4.11,0,0,0,2.6,0,3.44,3.44,0,0,0,1.6-1.56,14,14,0,0,0,1.07-3l-7.68-1.94A15.49,15.49,0,0,0,795.08,578.11Z"/><path class="cls-1" d="M802.4,606.8a1,1,0,0,1,0,.78L791.28,635a1,1,0,0,1-1.35.57L781.17,632a1,1,0,0,1-.56-.54,1,1,0,0,1,0-.81l1-2.54a12.69,12.69,0,0,0,1.27-.43,6.86,6.86,0,0,0,1.28-.68,6.05,6.05,0,0,0,1.13-1,4.86,4.86,0,0,0,.82-1.34l-14.45-5.86-1.16,1.79a.92.92,0,0,1-.53.4.94.94,0,0,1-.66,0l-7.34-3a1,1,0,0,1-.57-.55,1,1,0,0,1,0-.8l6.79-16.76a1,1,0,0,1,.56-.56,1,1,0,0,1,.79,0l7.34,3a.92.92,0,0,1,.5.43.94.94,0,0,1,.1.66l-.41,2.09,14.45,5.85a4.69,4.69,0,0,0,.34-1.53,5.38,5.38,0,0,0-.1-1.37,8.25,8.25,0,0,0-.35-1.13c-.15-.36-.34-.77-.56-1.21a.83.83,0,0,1,0-.72l.89-2.16a1,1,0,0,1,.55-.57,1,1,0,0,1,.79,0l8.76,3.55A1,1,0,0,1,802.4,606.8Z"/><path class="cls-1" d="M778.33,639.43a1,1,0,0,1,.66.11l7,3.76a1,1,0,0,1,.42,1.4l-8.57,15.92a1,1,0,0,1-.61.52,1,1,0,0,1-.8-.1l-7-3.75a1,1,0,0,1-.45-.49.94.94,0,0,1,0-.66l.64-2-12.24-6.59L756,649.16a.91.91,0,0,1-.57.35,1,1,0,0,1-.66-.11l-7-3.76a1,1,0,0,1-.5-.6,1,1,0,0,1,.08-.8L756,628.32a1,1,0,0,1,.62-.51,1,1,0,0,1,.79.08l7,3.76a1,1,0,0,1,.45.49.94.94,0,0,1,0,.66l-.64,2,12.25,6.59,1.34-1.65A1,1,0,0,1,778.33,639.43Z"/><path class="cls-1" d="M750.25,676.21l-1.74,4.55-.06.15a.66.66,0,0,1-.06.12,1.2,1.2,0,0,1-.68.56,1.28,1.28,0,0,1-.86-.3l-4.24-2.89a1.27,1.27,0,0,1-.6-.7,1.17,1.17,0,0,1,.27-.83l.09-.1.12-.11,3.6-3.29-3.64-2.49-1.6,1.5a1.06,1.06,0,0,1-.58.33,1.11,1.11,0,0,1-.61-.24L733.15,668a1.14,1.14,0,0,1-.54-.64,1.15,1.15,0,0,1,.27-.8l10.18-14.94c.23-.32.44-.51.65-.54a1.16,1.16,0,0,1,.8.27l6.54,4.46a1.14,1.14,0,0,1,.47.51,1,1,0,0,1-.12.68l-.84,2,11.45,7.8,1.51-1.5a1.06,1.06,0,0,1,.6-.35,1.09,1.09,0,0,1,.64.25l6.58,4.48a1.13,1.13,0,0,1,.55.65,1.16,1.16,0,0,1-.27.79l-14.51,21.28a1.15,1.15,0,0,1-.64.55,1.19,1.19,0,0,1-.8-.27l-7.81-5.32a1.18,1.18,0,0,1-.54-.65,1.11,1.11,0,0,1,.27-.79l1.43-2.09a.94.94,0,0,1,.12-.18c.47-.11,1-.26,1.52-.44a9.88,9.88,0,0,0,1.64-.74,9.25,9.25,0,0,0,1.59-1.15,8.59,8.59,0,0,0,1.44-1.64Z"/><path class="cls-1" d="M743.63,694a1,1,0,0,1,.62.24l6,5.12a1,1,0,0,1,.37.71,1,1,0,0,1-.25.75l-11.68,13.8a1,1,0,0,1-1.46.12l-6-5.11a1.06,1.06,0,0,1-.34-.57.92.92,0,0,1,.12-.66l1-1.85-10.61-9-1.66,1.34a1,1,0,0,1-.63.22,1,1,0,0,1-.62-.25l-6-5.11a1.12,1.12,0,0,1-.37-.7,1,1,0,0,1,.25-.76L724,678.48a1,1,0,0,1,.7-.37,1,1,0,0,1,.75.24l6,5.12a.94.94,0,0,1,.34.57.92.92,0,0,1-.11.66l-1,1.85,10.61,9L743,694.2A.93.93,0,0,1,743.63,694Z"/><path class="cls-1" d="M707.28,717.89a5.57,5.57,0,0,0-2.63-.68,5.84,5.84,0,0,0-2.61.64,10.54,10.54,0,0,0-2.59,1.86,23.77,23.77,0,0,0-2.74,3.12c-.94,1.24-2,2.88-3.29,4.91l-.1.14-.12.12a1.27,1.27,0,0,1-.79.44,1.21,1.21,0,0,1-.81-.5l-5.86-6.21-.33-.35a42.77,42.77,0,0,1,8.48-11.15,27.56,27.56,0,0,1,6.23-4.48,16,16,0,0,1,6.73-1.85,15.79,15.79,0,0,1,6.92,1.32,22.68,22.68,0,0,1,11,11.5,14,14,0,0,1,.86,6.63,16.32,16.32,0,0,1-2.26,6.45,28.73,28.73,0,0,1-5,6.13,39.45,39.45,0,0,1-3.66,3.08,35.54,35.54,0,0,1-3,2,24.73,24.73,0,0,1-2.44,1.25c-.76.33-1.57.66-2.42,1a.92.92,0,0,1-.54.06,1,1,0,0,1-.44-.31l-6-6.34a1.09,1.09,0,0,1-.39-.74,1.13,1.13,0,0,1,.43-.72l4-3.73.22-.2a7.72,7.72,0,0,0,3.49,0,6,6,0,0,0,4.06-3.46,6.37,6.37,0,0,0,.55-2.49,7.33,7.33,0,0,0-.51-2.7,8.07,8.07,0,0,0-1.72-2.65A10,10,0,0,0,707.28,717.89Z"/><path class="cls-1" d="M650.18,745.06a1,1,0,0,1,.43-.67l8.95-6.35a.93.93,0,0,1,.63-.18.91.91,0,0,1,.59.26l3.77,3.5,7.67-5.44-2.05-4.69a1,1,0,0,1-.06-.65.92.92,0,0,1,.37-.54l9-6.35a1,1,0,0,1,.77-.17,1,1,0,0,1,.67.42l5.5,7.76a.94.94,0,0,1,.19.63,1,1,0,0,1-.28.6l-1.38,1.47,7.45,21.65a.89.89,0,0,1,0,.6,1,1,0,0,1-.37.49l-14,9.91a1,1,0,0,1-.58.19.85.85,0,0,1-.56-.21l-18-14.2-1.85.82a1,1,0,0,1-.66.06.9.9,0,0,1-.53-.38l-5.5-7.76A1,1,0,0,1,650.18,745.06Zm20.41,1.74,9.79,9-5.27-12.23Z"/><path class="cls-1" d="M663.77,776.29a1,1,0,0,1-.51.6L637.12,790.8a1,1,0,0,1-.79.09,1,1,0,0,1-.6-.52L631.28,782a1,1,0,0,1,.43-1.4l2.42-1.29c.39.17.8.33,1.26.48a6.6,6.6,0,0,0,1.4.31,5.72,5.72,0,0,0,1.49,0,4.5,4.5,0,0,0,1.5-.5l-7.33-13.76-2,.62a.91.91,0,0,1-.67,0,1,1,0,0,1-.48-.46l-3.72-7a1,1,0,0,1-.09-.78,1,1,0,0,1,.51-.62l16-8.5a1,1,0,0,1,.79-.07,1,1,0,0,1,.61.5l3.72,7a1,1,0,0,1-.24,1.23l-1.66,1.34,7.33,13.76a4.78,4.78,0,0,0,1.25-1,5.6,5.6,0,0,0,.79-1.11,7.35,7.35,0,0,0,.46-1.1c.12-.37.24-.8.35-1.28a.84.84,0,0,1,.44-.57l2.07-1.1a1,1,0,0,1,.79-.07,1,1,0,0,1,.6.5l4.45,8.34A1,1,0,0,1,663.77,776.29Z"/><path class="cls-1" d="M602.41,777a14.61,14.61,0,0,0-2.6,1.27,15,15,0,0,0-3.48,2.89c-.43.5-.82,1-1.2,1.56a.77.77,0,0,1-.37.29l-2.31.88a1,1,0,0,1-.8,0,1,1,0,0,1-.53-.59l-3.38-8.82a1,1,0,0,1,0-.79,1,1,0,0,1,.58-.55l26.16-10a1.06,1.06,0,0,1,1.34.6l2.83,7.39a1,1,0,0,1,0,.67.87.87,0,0,1-.41.52l-1.81,1.13,4.95,12.94,2.1-.37a.95.95,0,0,1,1.08.62l2.85,7.44a1,1,0,0,1,0,.8,1,1,0,0,1-.58.53l-26.15,10a1.05,1.05,0,0,1-.8,0,1,1,0,0,1-.54-.59L596,796a1,1,0,0,1,0-.78,1,1,0,0,1,.59-.55l2.41-.93a17.06,17.06,0,0,0,1.92.35,14.09,14.09,0,0,0,2.3.12,15.89,15.89,0,0,0,2.58-.26,15.58,15.58,0,0,0,2.81-.8l-2.2-5.73-4.62,3-.25.12a1,1,0,0,1-.83,0,1.1,1.1,0,0,1-.57-.64L598.25,785a1.09,1.09,0,0,1,0-.85,1,1,0,0,1,.61-.57,1.48,1.48,0,0,1,.26-.07l5.46-.84Z"/><path class="cls-1" d="M555.83,788.63a9.31,9.31,0,0,1,1-3.3,10.76,10.76,0,0,1,2-2.67,15.34,15.34,0,0,1,2.77-2.11,16.46,16.46,0,0,1,3.32-1.52c1.19-.39,2.4-.74,3.63-1q3.32-.81,5.89-1.17a30.33,30.33,0,0,1,4.19-.1,25.1,25.1,0,0,1,3.79.32,1,1,0,0,1,.49.2,1.21,1.21,0,0,1,.21.48l1.73,7.06a1.11,1.11,0,0,1,0,.84,1.12,1.12,0,0,1-.73.41l-5.3,1.3-.27.07a7.73,7.73,0,0,0-3.14-1.68,6.46,6.46,0,0,0-3.12,0,5.33,5.33,0,0,0-.86.28,2,2,0,0,0-.81.59,2.31,2.31,0,0,0-.49,1.14,4.63,4.63,0,0,0,.16,1.91c1.28-.19,2.56-.33,3.85-.42a25.85,25.85,0,0,1,3.74,0,17.11,17.11,0,0,1,3.49.66,10.46,10.46,0,0,1,3,1.47,9.17,9.17,0,0,1,2.37,2.47,11.34,11.34,0,0,1,1.54,3.66,12.71,12.71,0,0,1,.39,4.22,9.86,9.86,0,0,1-.93,3.45,9.34,9.34,0,0,1-2,2.73A14,14,0,0,1,583,810a15.64,15.64,0,0,1-3.27,1.48c-1.16.38-2.34.71-3.52,1-1.71.42-3.28.74-4.69,1a26.74,26.74,0,0,1-3.61.33,25.87,25.87,0,0,1-2.74-.11c-.82-.09-1.69-.19-2.6-.32a.93.93,0,0,1-.5-.22,1,1,0,0,1-.23-.49l-1.7-6.92a1.11,1.11,0,0,1,0-.84,1.15,1.15,0,0,1,.74-.41l5.28-1.3.29-.07a7.68,7.68,0,0,0,3,1.7,6.07,6.07,0,0,0,3,.06,5.25,5.25,0,0,0,.87-.32,2.26,2.26,0,0,0,.83-.69,2.88,2.88,0,0,0,.48-1.23,4.93,4.93,0,0,0-.15-2,34.93,34.93,0,0,1-6.94.83,13.88,13.88,0,0,1-5.35-.92,9.13,9.13,0,0,1-3.81-2.89,13.38,13.38,0,0,1-2.28-5.06A11.86,11.86,0,0,1,555.83,788.63Z"/><circle class="cls-1" cx="499.84" cy="805.31" r="11.92"/><g class="cls-2"><path class="cls-1" d="M696.11,558.67a4.15,4.15,0,0,0-1.26-.2c-2.19,0-4.12,1.8-4.69,4.37-8.76,39.82-26,76.46-50,105.95L626.84,684.9a6.76,6.76,0,0,0,0,8.3,4.27,4.27,0,0,0,6.86,0l13.35-16.14c25.16-31,43.3-69.42,52.5-111.2C700.23,562.73,698.69,559.51,696.11,558.67Z"/><path class="cls-1" d="M645.76,323C608.93,278.44,560,252.4,507.82,249.67h-.21c-2.61,0-4.74,2.47-4.85,5.62s2,6,4.63,6.12c49.7,2.61,96.4,27.43,131.5,69.89,37.16,44.94,57.75,104.79,58,168.51,0,5.38-.11,10.81-.39,16.14a6.63,6.63,0,0,0,1.41,4.53,4.55,4.55,0,0,0,3.13,1.7h.31c2.55,0,4.68-2.41,4.84-5.5.29-5.63.43-11.32.41-16.92C706.34,432.91,684.74,370.13,645.76,323Z"/><path class="cls-1" d="M329.75,363.73a4.41,4.41,0,0,0,3.43-1.71l21-25.39,5.7-6.91c29.31-34.82,66.25-57.45,106.82-65.42,2.64-.52,4.44-3.54,4-6.73-.39-2.87-2.41-4.94-4.8-4.94a3.5,3.5,0,0,0-.78.08c-42.56,8.36-81.32,32.11-112.09,68.67l-5.74,6.94-21,25.39a6.78,6.78,0,0,0,0,8.3A4.42,4.42,0,0,0,329.75,363.73Z"/><path class="cls-1" d="M312.14,414a4.46,4.46,0,0,0,3.43-1.73l55-66.47c34.19-41.35,79.72-64.12,128.2-64.12a154.18,154.18,0,0,1,68.23,16,4,4,0,0,0,1.82.43,4.93,4.93,0,0,0,4.5-3.67c1-3-.2-6.43-2.68-7.64a162.24,162.24,0,0,0-71.86-16.87h0c-51.08,0-99.05,24-135.06,67.55l-55,66.48a6.79,6.79,0,0,0,0,8.31A4.49,4.49,0,0,0,312.14,414Z"/><path class="cls-1" d="M689.65,500.82c0-61.79-19.84-119.8-55.86-163.37a195.81,195.81,0,0,0-50.6-43.87,4.22,4.22,0,0,0-2.14-.6,4.85,4.85,0,0,0-4.36,3.28,7,7,0,0,0-.23,4.49,5.61,5.61,0,0,0,2.45,3.37,185.89,185.89,0,0,1,48,41.64c34.18,41.34,53,96.41,53,155.06s-18.83,113.71-53,155.05l-55,66.48a6.75,6.75,0,0,0,0,8.31,4.28,4.28,0,0,0,6.86,0l55-66.48C669.81,620.61,689.65,562.6,689.65,500.82Z"/><path class="cls-1" d="M302.17,455a4.42,4.42,0,0,0,3.43-1.72L346.32,404a6.75,6.75,0,0,0,0-8.31,4.28,4.28,0,0,0-6.86,0l-40.72,49.25a6.75,6.75,0,0,0,0,8.31A4.42,4.42,0,0,0,302.17,455Z"/><path class="cls-1" d="M621.83,351.93c-32.83-39.71-76.55-61.57-123.1-61.58s-90.27,21.87-123.1,61.58l-14.51,17.55a6.79,6.79,0,0,0,0,8.31,4.28,4.28,0,0,0,6.86,0l14.52-17.56c31-37.49,72.27-58.13,116.23-58.13S584,322.74,615,360.23A194.14,194.14,0,0,1,630.51,382a4.65,4.65,0,0,0,3.9,2.36,4.32,4.32,0,0,0,2.9-1.17,6.16,6.16,0,0,0,1.89-3.86,6.74,6.74,0,0,0-.91-4.36A207.1,207.1,0,0,0,621.83,351.93Z"/><path class="cls-1" d="M615,641.4l-15.2,18.39a6.78,6.78,0,0,0,0,8.3,4.28,4.28,0,0,0,6.86,0l15.21-18.39c32.83-39.7,50.91-92.58,50.91-148.88,0-37.66-8.29-74.6-24-106.83a4.78,4.78,0,0,0-4.19-2.89,4.26,4.26,0,0,0-2.46.81,6.61,6.61,0,0,0-1.72,8C655.2,430.37,663,465.25,663,500.82,663,554,646,603.91,615,641.4Z"/><path class="cls-1" d="M589.1,686.85a6.48,6.48,0,0,0-1.42-4.15,4.29,4.29,0,0,0-6.87,0l-42.74,51.71a6.76,6.76,0,0,0,0,8.3,4.28,4.28,0,0,0,6.86,0L587.68,691A6.46,6.46,0,0,0,589.1,686.85Z"/><path class="cls-1" d="M298.56,488.28a4.45,4.45,0,0,0,3.43-1.72l92.47-111.85c24.13-29.18,56.13-47.41,90.12-51.34,2.67-.31,4.63-3.18,4.38-6.41-.25-3-2.33-5.31-4.84-5.31l-.46,0c-36.23,4.19-70.35,23.63-96.06,54.73L295.12,478.25a6.8,6.8,0,0,0,0,8.31A4.45,4.45,0,0,0,298.56,488.28Z"/><path class="cls-1" d="M507.4,311.1h-.27c-2.57,0-4.7,2.43-4.84,5.54a6.66,6.66,0,0,0,1.23,4.25,4.54,4.54,0,0,0,3.36,1.94c36.3,2.41,70.44,20.83,96.11,51.89,27.81,33.63,43.12,78.42,43.12,126.11a216.62,216.62,0,0,1-2.8,34.75,6.73,6.73,0,0,0,1.33,5.29,4.66,4.66,0,0,0,2.49,1.61,4.4,4.4,0,0,0,1,.11c2.31,0,4.31-2,4.76-4.74a230.9,230.9,0,0,0,3-37c0-50.83-16.32-98.57-46-134.42C582.49,333.3,546.1,313.66,507.4,311.1Z"/><path class="cls-1" d="M647.67,561.46a7,7,0,0,0-.26-4.49,5.27,5.27,0,0,0-2.81-3,4.06,4.06,0,0,0-1.54-.3,5,5,0,0,0-4.6,4c-7.27,26.24-19.2,49.52-35.47,69.2L510.52,738.78a6.77,6.77,0,0,0,0,8.3,4.28,4.28,0,0,0,6.86,0l92.48-111.85C627.2,614.26,639.92,589.44,647.67,561.46Z"/><path class="cls-1" d="M301.89,515.62,406.43,389.18C431,359.41,463.82,343,498.73,343s67.69,16.39,92.3,46.16a158,158,0,0,1,20.15,31.44,4.8,4.8,0,0,0,4.19,2.89,4.18,4.18,0,0,0,2.46-.82,5.82,5.82,0,0,0,2.24-3.58,6.92,6.92,0,0,0-.52-4.45,169.29,169.29,0,0,0-21.66-33.78c-26.44-32-61.66-49.61-99.16-49.61S426,348.89,399.57,380.88L295,507.32a6.74,6.74,0,0,0,0,8.3,4.28,4.28,0,0,0,6.86,0Z"/><path class="cls-1" d="M638.9,500.82a203.36,203.36,0,0,0-6.54-51.38,5,5,0,0,0-4.63-4.1,4.1,4.1,0,0,0-1.46.27,5.2,5.2,0,0,0-2.84,2.89,6.89,6.89,0,0,0-.32,4.48,189.33,189.33,0,0,1,6.08,47.84c0,42.22-13.55,81.86-38.16,111.63L486.49,738.89a6.79,6.79,0,0,0,0,8.31,4.29,4.29,0,0,0,6.87,0L597.89,620.76C624.34,588.77,638.9,546.17,638.9,500.82Z"/><path class="cls-1" d="M304.22,541.75,418.4,403.65a121.6,121.6,0,0,1,18.33-18,5.94,5.94,0,0,0,2.1-3.71,6.85,6.85,0,0,0-.68-4.42,4.71,4.71,0,0,0-4.07-2.66,4.28,4.28,0,0,0-2.65.95,132,132,0,0,0-19.9,19.54L297.36,533.44a6.8,6.8,0,0,0,0,8.31,4.3,4.3,0,0,0,6.86,0Z"/><path class="cls-1" d="M498.73,351.73h0A104.62,104.62,0,0,0,453.56,362a5.37,5.37,0,0,0-2.68,3.12,7,7,0,0,0-.07,4.49,6.09,6.09,0,0,0,1.09,2,4.5,4.5,0,0,0,3.43,1.72,4.1,4.1,0,0,0,1.77-.41,95.9,95.9,0,0,1,79.78-1.56,4.17,4.17,0,0,0,1.63.33,5,5,0,0,0,4.57-3.9c.89-3.06-.43-6.42-3-7.5A104.41,104.41,0,0,0,498.73,351.73Z"/><path class="cls-1" d="M622,500.82c0-39.89-12.81-77.34-36.06-105.47a131,131,0,0,0-21.64-20.88,4.22,4.22,0,0,0-2.58-.9,4.72,4.72,0,0,0-4.11,2.75,6.93,6.93,0,0,0-.62,4.45,6,6,0,0,0,2.16,3.66,120.27,120.27,0,0,1,19.92,19.22c21.42,25.91,33.22,60.42,33.22,97.17s-11.8,71.25-33.22,97.16L464.89,736.07a6.79,6.79,0,0,0,0,8.31,4.28,4.28,0,0,0,6.87,0L585.93,606.28C609.19,578.15,622,540.7,622,500.82Z"/><path class="cls-1" d="M330.92,567.35a6.78,6.78,0,0,0,0-8.31,4.29,4.29,0,0,0-6.87,0l-16.72,20.22a6.8,6.8,0,0,0,0,8.31,4.29,4.29,0,0,0,6.87,0Z"/><path class="cls-1" d="M575.45,463.49a4,4,0,0,0,2-.55,5.48,5.48,0,0,0,2.51-3.3,7,7,0,0,0-.15-4.49A110,110,0,0,0,562,424.3c-16.87-20.41-39.34-31.65-63.26-31.65s-46.39,11.24-63.27,31.65L346.59,531.79a6.78,6.78,0,0,0,0,8.3,4.29,4.29,0,0,0,6.87,0L442.33,432.6c15-18.19,35.07-28.21,56.4-28.21s41.36,10,56.4,28.21A98.21,98.21,0,0,1,571,460.09,4.9,4.9,0,0,0,575.45,463.49Z"/><path class="cls-1" d="M588.16,500.82a131,131,0,0,0-2-23c-.49-2.69-2.48-4.63-4.75-4.63a3.91,3.91,0,0,0-1,.13c-2.62.69-4.29,3.82-3.72,7a117.35,117.35,0,0,1,1.81,20.55c0,25.79-8.28,50-23.32,68.21L427,724a6.78,6.78,0,0,0,0,8.3,4.29,4.29,0,0,0,6.87,0L562,577.34C578.87,556.93,588.16,529.75,588.16,500.82Z"/><path class="cls-1" d="M426.55,478.2a6.54,6.54,0,0,0-1.42-4.15,4.29,4.29,0,0,0-6.87,0L314.44,599.63a6.76,6.76,0,0,0,0,8.3,4.28,4.28,0,0,0,6.86,0L425.13,482.35A6.54,6.54,0,0,0,426.55,478.2Z"/><path class="cls-1" d="M498.73,413.11h0c-19.4,0-37.62,9.11-51.3,25.66l-9.37,11.33a6.79,6.79,0,0,0,0,8.31,4.29,4.29,0,0,0,6.87,0l9.37-11.34c11.84-14.32,27.62-22.22,44.43-22.22s32.59,7.9,44.43,22.22,18.38,33.42,18.38,53.75-6.53,39.4-18.38,53.74l-76.89,93a6.77,6.77,0,0,0,0,8.31,4.28,4.28,0,0,0,6.86,0l76.9-93c13.68-16.55,21.22-38.58,21.22-62s-7.54-45.5-21.22-62.05S518.13,413.11,498.73,413.11Z"/><path class="cls-1" d="M459.57,669.84a6.51,6.51,0,0,0-1.43-4.15,4.28,4.28,0,0,0-6.86,0l-41.11,49.73a6.78,6.78,0,0,0,0,8.3,4.28,4.28,0,0,0,6.86,0L458.14,674A6.51,6.51,0,0,0,459.57,669.84Z"/><path class="cls-1" d="M492,445.91c2.65-.47,4.48-3.46,4.09-6.67-.34-2.85-2.41-5-4.8-5a4.34,4.34,0,0,0-.71.06c-11.89,2.12-22.66,8.67-31.16,18.95L322.73,618.55a6.78,6.78,0,0,0,0,8.3,4.28,4.28,0,0,0,6.86,0l136.67-165.3C473.28,453.07,482.17,447.66,492,445.91Z"/><path class="cls-1" d="M554.33,500.82c0-18-5.78-34.89-16.27-47.58-7.87-9.51-17.79-15.89-28.71-18.44a3.56,3.56,0,0,0-.92-.11c-2.32,0-4.32,2-4.76,4.76-.51,3.17,1.21,6.25,3.83,6.88,9,2.1,17.2,7.36,23.7,15.22,8.65,10.47,13.42,24.41,13.42,39.27s-4.77,28.79-13.42,39.26L394.53,705.39a6.76,6.76,0,0,0,0,8.3,4.28,4.28,0,0,0,6.86,0l136.67-165.3C548.55,535.7,554.33,518.81,554.33,500.82Z"/><path class="cls-1" d="M498.73,465.77c7.75,0,15,3.64,20.5,10.25a40.49,40.49,0,0,1,0,49.59l-42.56,51.48a6.75,6.75,0,0,0,0,8.31,4.28,4.28,0,0,0,6.86,0l42.56-51.49c7.31-8.83,11.33-20.58,11.33-33.09s-4-24.27-11.33-33.1-17-13.69-27.36-13.7-20.07,4.87-27.37,13.7L332.17,636.07a6.79,6.79,0,0,0,0,8.31,4.29,4.29,0,0,0,6.87,0L478.23,476C483.7,469.41,491,465.77,498.73,465.77Z"/><path class="cls-1" d="M377.76,618.19a4.29,4.29,0,0,0-6.87,0l-28.26,34.18a6.78,6.78,0,0,0,0,8.3,4.28,4.28,0,0,0,6.86,0l28.27-34.18A6.78,6.78,0,0,0,377.76,618.19Z"/><path class="cls-1" d="M520.51,500.82a29.25,29.25,0,0,0-6.38-18.63,21.76,21.76,0,0,0-7.21-5.78,18.41,18.41,0,0,0-8.18-1.93h0a18.6,18.6,0,0,0-8.19,1.92,21.82,21.82,0,0,0-7.21,5.79l-96,116.13a6.76,6.76,0,0,0,0,8.3,4.28,4.28,0,0,0,6.86,0l96-116.13a12,12,0,0,1,4-3.2,10.19,10.19,0,0,1,9.09,0,12.08,12.08,0,0,1,4,3.2,16.83,16.83,0,0,1,0,20.65L366.56,681.32a6.77,6.77,0,0,0,0,8.3,4.29,4.29,0,0,0,6.87,0l140.7-170.18A29.18,29.18,0,0,0,520.51,500.82Z"/><path class="cls-1" d="M473,540.25l22.66-27.41a6.75,6.75,0,0,0,0-8.31,4.28,4.28,0,0,0-6.86,0l-22.66,27.41a6.8,6.8,0,0,0,0,8.31,4.28,4.28,0,0,0,6.86,0Z"/><path class="cls-1" d="M461,552.3a6.48,6.48,0,0,0-1.42-4.15,4.29,4.29,0,0,0-6.87,0l-98.64,119.3a6.79,6.79,0,0,0,0,8.31,4.29,4.29,0,0,0,6.87,0L459.6,556.45A6.54,6.54,0,0,0,461,552.3Z"/><path class="cls-1" d="M468,601.74a6.5,6.5,0,0,0-1.42-4.15,4.28,4.28,0,0,0-6.86,0L380,694a6.76,6.76,0,0,0,0,8.3,4.28,4.28,0,0,0,6.86,0l79.68-96.37A6.51,6.51,0,0,0,468,601.74Z"/><path class="cls-1" d="M548.57,614.22a4.29,4.29,0,0,0-6.87,0L445.16,731a6.76,6.76,0,0,0,0,8.3,4.27,4.27,0,0,0,6.86,0l96.55-116.77A6.78,6.78,0,0,0,548.57,614.22Z"/><path class="cls-1" d="M430.36,418.13c18.23-22.05,42.51-34.19,68.37-34.19s50.14,12.14,68.37,34.19,28.26,51.41,28.26,82.69-10,60.64-28.26,82.68a6.75,6.75,0,0,0,0,8.31,4.28,4.28,0,0,0,6.86,0c20.06-24.27,31.11-56.58,31.11-91S594,434.09,574,409.82s-46.78-37.63-75.22-37.63h0c-28.45,0-55.17,13.37-75.23,37.63L301.56,557.31a6.78,6.78,0,0,0,0,8.3,4.29,4.29,0,0,0,6.87,0Z"/></g><path class="cls-3" d="M482.74,347.14,370.19,533.5l16,48L513.08,367.82ZM352.81,523.89,314.28,455l-25.2,26.22,75,138.38,22.08-38.11-23.22-40Z"/><polygon class="cls-1" points="588.69 619.57 484.31 438.55 461.33 478.87 500.98 546.6 420.28 548 403.45 578.74 518.38 576.91 542.89 619.57 588.69 619.57"/><path class="cls-1" d="M563.28,525.87a96,96,0,0,0,95.9,95.9h40.63V588.4H659.18a62.53,62.53,0,0,1,0-125.06h40.63V430H659.18A96,96,0,0,0,563.28,525.87Z"/></svg>