<svg width="40" height="40" viewBox="0 0 64 64" fill="none" xmlns="http://www.w3.org/2000/svg">
<path d="M58.0013 30.5334C56.1347 30.6667 54.268 30 52.8013 28.8C51.3347 27.6 50.4013 25.8667 50.0013 24C49.7347 23.0667 49.6013 22.1334 49.868 21.0667C50.1347 20.1334 50.5347 19.3334 51.2013 18.6667C51.868 18 52.5347 17.3334 53.2013 16.8L53.3347 17.2C52.668 19.6 53.868 20.8 55.068 21.8667C55.468 22.1334 55.6013 22.6667 55.7347 23.0667C56.1347 24 55.868 24.9334 55.868 25.8667C55.868 27.3334 56.668 28.5334 57.7347 29.4667L58.0013 30.5334Z" fill="#F3705A"/>
<path d="M60.9318 37.6L61.0651 36.9333C61.0651 36.9333 61.1984 31.4666 58.5318 29.8666C55.7318 28.1333 54.3984 27.2 54.3984 27.2L44.1318 28.5333L41.8651 29.6C40.3984 30.4 39.3318 31.8666 39.0651 33.4666L38.3984 37.6H60.9318Z" fill="#415A6B"/>
<path d="M44.1315 37.6001L48.2648 31.7334L53.1982 24.6667L43.7315 32.9334L41.4648 37.6001H44.1315Z" fill="#E8EAE9"/>
<path d="M48.132 37.6001L51.4654 32.8001L49.0654 32.9334L52.132 31.6001L54.3987 27.2001L53.1987 24.6667L48.2654 31.7334L44.132 37.6001H48.132ZM41.4654 37.6001L43.732 32.9334L41.332 32.4001L39.332 37.6001H41.4654Z" fill="#344A5E"/>
<path d="M44.9339 24.5334C44.9339 24.5334 46.1339 27.0667 46.0005 27.8667C45.8672 28.6667 44.8005 30.8001 44.9339 30.9334C45.0672 31.0667 43.8672 34.9334 43.8672 34.9334C43.8672 34.9334 45.0672 33.2001 45.7339 32.9334C45.7339 32.9334 46.5338 31.4667 46.8005 31.2001L50.1338 26.0001L51.6005 23.2001C51.6005 23.2001 50.9339 21.6001 51.6005 20.2667L52.2672 17.7334L47.0672 19.4667L45.6005 23.2001L44.9339 24.5334Z" fill="#F7B64C"/>
<path d="M43.3326 37.5999L45.0659 36.3999L48.7992 31.0666C48.7992 31.0666 50.7992 31.7333 51.7326 31.3333C51.7326 31.3333 53.0659 26.6666 53.1992 25.1999C53.1992 25.1999 53.3326 24.2666 52.3992 23.3333C52.3992 23.3333 51.7326 22.5333 51.4659 22.6666C51.5992 23.1999 51.4659 23.7333 51.1992 24.2666C50.2659 25.9999 47.9992 29.5999 47.9992 29.5999C47.9992 29.5999 46.6659 31.5999 46.3992 31.8666C46.1326 32.1333 45.7325 33.0666 45.7325 33.0666C44.5325 33.8666 43.7325 35.1999 43.4659 36.6666C43.3325 37.0666 43.3326 37.4666 43.1992 37.7333H43.3326V37.5999Z" fill="#E8EAE9"/>
<path d="M42.5326 32.7999C43.1992 33.9999 42.7992 36.2666 42.3992 37.5999H42.6659C43.3326 36.3999 43.9992 34.3999 43.9992 34.3999L45.0659 30.5333C45.0659 30.5333 45.5992 28.7999 45.8659 27.9999C46.1326 27.5999 45.3326 25.3333 45.1992 25.3333L41.1992 30.9333C41.3326 31.0666 41.5992 31.0666 42.5326 32.7999Z" fill="#F3F3F3"/>
<path d="M50.3986 15.0666C49.0653 14.2666 44.3986 11.3333 44.3986 11.3333H41.8653L41.1986 13.5999C41.1986 13.5999 40.532 18.6666 41.1986 20.3999C41.8653 22.1333 43.732 25.8666 45.0653 25.8666C46.3986 25.8666 48.532 24.3999 49.332 23.3333C49.8653 22.6666 50.532 21.5999 50.932 20.6666C51.0653 19.1999 52.932 17.0666 51.8653 16.3999C51.8653 16.2666 50.532 15.0666 50.3986 15.0666Z" fill="#FFD15C"/>
<path d="M43.2 12.1334C44.2666 12.1334 45.6 13.4667 46.8 14.5334C48 15.6 50.1333 16.1334 51.2 16.6667C52.4 17.0667 51.8666 20.1334 51.4666 20.8C51.4666 20.8 52.4 19.4667 52.2666 18.5334C52.2666 18.5334 51.8666 21.4667 52.7999 23.2C52.4 19.8667 53.2 18.8 53.8666 16.1334C53.8666 16.1334 55.2 9.20003 47.6 7.73336C47.6 7.73336 45.2 7.60003 44.2666 8.66669C44.2666 8.66669 41.8666 9.46669 40.8 12.1334C39.7333 14.8 39.6 17.3334 40.8 18.5334C40.9333 18.2667 40.5333 12.1334 43.2 12.1334Z" fill="#F3705A"/>
<path d="M50.2658 21.3334C50.3992 21.2001 50.7991 21.2001 51.0658 20.0001C51.0658 20.0001 53.8658 17.8668 51.7325 16.1334C51.7325 16.1334 50.9325 15.6001 50.5325 16.9334L49.9991 18.0001L49.5992 20.6668C49.7325 20.9334 50.1325 21.4668 50.2658 21.3334ZM27.4658 18.8001C27.1992 20.0001 26.5325 20.6668 25.7325 20.5334C25.0658 20.2668 24.6658 19.2001 24.9325 18.1334C25.1992 17.0668 25.9992 16.4001 26.6658 16.5334C27.3325 16.6668 27.7325 17.7334 27.4658 18.8001ZM13.5992 18.8001C13.8658 20.0001 14.5325 20.6668 15.3325 20.5334C15.9992 20.2668 16.3992 19.2001 16.1325 18.1334C15.8658 17.0668 15.0658 16.4001 14.3992 16.5334C13.7325 16.6668 13.3325 17.7334 13.5992 18.8001Z" fill="#FFD15C"/>
<path d="M25.8664 19.6001H15.1997C15.1997 19.6001 10.6664 6.53345 20.5331 6.53345C30.3997 6.66678 25.8664 19.6001 25.8664 19.6001Z" fill="#415A6B"/>
<path d="M34.6651 38L33.1984 30C32.9318 28.4 31.7318 27.0667 30.1318 26.5333L24.9318 25.0667H16.1318L10.9318 26.5333C9.33177 26.9333 8.13177 28.2667 7.8651 30L6.39844 38H34.6651Z" fill="#E8EAE9"/>
<path d="M18 38.0001H23.0667L21.7333 31.7334L22.6667 30.6668C22.6667 30.6668 21.2 28.5334 20.5333 28.5334C19.7333 28.5334 18.4 30.6668 18.4 30.6668L19.3333 31.6001L18 38.0001Z" fill="#F3705A"/>
<path d="M16.532 23.6001L20.532 28.4001C19.332 29.2001 18.532 30.1334 17.8654 31.4668L15.332 24.9334C15.732 24.4001 16.532 23.6001 16.532 23.6001Z" fill="#F3F3F3"/>
<path d="M24.5352 23.6001L20.5352 28.4001C21.8685 29.3334 22.6685 30.2668 23.2018 31.4668L25.7352 24.9334C25.3352 24.4001 24.5352 23.6001 24.5352 23.6001Z" fill="#F3F3F3"/>
<path d="M16.5352 19.0667V23.6C17.4685 25.4667 18.8018 26.8 20.5352 28.5333C22.1352 27.0667 23.4685 25.8667 24.5352 23.6V19.0667H16.5352Z" fill="#F7B64C"/>
<path d="M20.4003 13.4666C18.6669 13.4666 17.2003 13.0666 16.0003 12.3999C15.3336 13.7333 14.9336 15.4666 14.9336 17.3333C14.9336 21.8666 17.4669 25.5999 20.5336 25.5999C23.6003 25.5999 26.1336 21.8666 26.1336 17.3333C26.1336 15.4666 25.7336 13.5999 24.9336 12.2666C23.7336 13.0666 22.1336 13.4666 20.4003 13.4666Z" fill="#FFD15C"/>
<path d="M61.0667 43.6001H2.93333C1.33333 43.6001 0 42.2667 0 40.6667C0 39.0667 1.33333 37.7334 2.93333 37.7334H60.9333C62.5333 37.7334 63.8667 39.0667 63.8667 40.6667C64 42.2667 62.6667 43.6001 61.0667 43.6001Z" fill="#FFD15C"/>
<path d="M4.26562 43.6001H59.599V57.4668H4.26562V43.6001Z" fill="#F7B64C"/>
<path d="M38.6651 30.9333V36.6667C38.6651 37.2 38.2651 37.6 37.7318 37.6H33.3318C32.7984 37.6 32.3984 37.2 32.3984 36.6667V30.9333H38.6651Z" fill="#8AD7F8"/>
<path d="M38.131 36.1334L37.8643 35.3334C39.9977 34.8001 39.8643 32.8001 39.8643 32.6667C39.8643 32.1334 39.1977 32.1334 39.1977 32.1334C39.0643 32.1334 38.531 32.1334 38.531 32.6667H37.5977C37.5977 30.6667 40.7977 30.6667 40.7977 32.6667C40.7977 33.6001 40.3977 35.6001 38.131 36.1334Z" fill="#8AD7F8"/>
<path d="M34.2667 28.5334C34.1333 28.5334 34 28.6668 34 28.8001V30.1334C34 30.2668 34.1333 30.4001 34.2667 30.4001C34.4 30.4001 34.5333 30.2668 34.5333 30.1334V28.8001C34.5333 28.5334 34.4 28.5334 34.2667 28.5334ZM35.6 27.6001C35.4667 27.6001 35.3333 27.7334 35.3333 27.8668V29.2001C35.3333 29.3334 35.4667 29.4668 35.6 29.4668C35.7333 29.4668 35.8667 29.3334 35.8667 29.2001V27.8668C35.8667 27.6001 35.7333 27.6001 35.6 27.6001ZM36.8 28.5334C36.6667 28.5334 36.5333 28.6668 36.5333 28.8001V30.1334C36.5333 30.2668 36.6667 30.4001 36.8 30.4001C36.9333 30.4001 37.0667 30.2668 37.0667 30.1334V28.8001C37.0667 28.5334 36.9333 28.5334 36.8 28.5334Z" fill="#415A6B"/>
<path d="M5.33203 30.9333V36.6667C5.33203 37.2 5.73203 37.6 6.26536 37.6H10.6654C11.1987 37.6 11.5987 37.2 11.5987 36.6667V30.9333H5.33203Z" fill="#8AD7F8"/>
<path d="M5.73307 36.1334L5.99974 35.3334C3.86641 34.8001 3.99974 32.8001 3.99974 32.6667C3.99974 32.1334 4.66641 32.1334 4.66641 32.1334C4.79974 32.1334 5.33307 32.1334 5.33307 32.6667H6.26641C6.26641 30.6667 3.06641 30.6667 3.06641 32.6667C3.06641 33.6001 3.46641 35.6001 5.73307 36.1334Z" fill="#8AD7F8"/>
<path d="M9.60026 28.5334C9.73359 28.5334 9.86693 28.6668 9.86693 28.8001V30.1334C9.86693 30.2668 9.73359 30.4001 9.60026 30.4001C9.46693 30.4001 9.33359 30.2668 9.33359 30.1334V28.8001C9.33359 28.5334 9.46693 28.5334 9.60026 28.5334ZM8.40026 27.6001C8.53359 27.6001 8.66693 27.7334 8.66693 27.8668V29.2001C8.66693 29.3334 8.53359 29.4668 8.40026 29.4668C8.26693 29.4668 8.13359 29.3334 8.13359 29.2001V27.8668C8.13359 27.6001 8.26693 27.6001 8.40026 27.6001ZM7.20026 28.5334C7.33359 28.5334 7.46693 28.6668 7.46693 28.8001V30.1334C7.46693 30.2668 7.33359 30.4001 7.20026 30.4001C7.06693 30.4001 6.93359 30.2668 6.93359 30.1334V28.8001C6.93359 28.5334 6.93359 28.5334 7.20026 28.5334Z" fill="#415A6B"/>
</svg>
