<svg width="2500" height="393" viewBox="0 0 2500 393" fill="none" xmlns="http://www.w3.org/2000/svg">
<g clip-path="url(#clip0_14350_608671)">
<path d="M460.691 37.4986L165.114 37.4986C155.188 37.4986 146.732 45.9542 146.732 56.2479V89.7025C146.732 99.9962 155.188 108.452 165.114 108.452L460.691 108.452C470.985 108.452 479.073 99.9962 479.441 89.7025V56.6155C479.441 45.9541 470.985 37.4986 460.691 37.4986ZM460.691 223.153L165.114 223.153C160.335 223.153 155.556 224.992 152.247 228.668C148.571 232.344 146.732 236.756 146.732 241.903V275.357C146.732 285.651 155.188 294.107 165.114 294.107L460.691 294.107C470.985 294.107 479.073 286.019 479.441 275.357L479.441 241.903C479.073 231.241 470.985 223.153 460.691 223.153ZM331.652 315.797H165.114C160.335 315.797 155.556 317.635 152.247 321.311C148.938 324.988 146.732 329.399 146.732 334.546V368.001C146.732 378.295 155.188 386.75 165.114 386.75H331.284C341.578 386.75 349.666 378.295 349.666 368.369V334.914C350.034 323.885 341.946 315.429 331.652 315.797ZM479.441 130.142L165.114 130.142C160.335 130.142 155.556 131.98 152.247 135.657C148.938 139.333 146.732 143.745 146.732 148.891L146.732 182.346C146.732 192.64 155.188 201.095 165.114 201.095L479.073 201.095C489.367 201.095 497.455 192.64 497.455 182.346V148.891C497.822 138.598 489.367 130.51 479.441 130.142Z" fill="#00C3F7"/>
<path d="M823.178 112.496C813.987 102.937 803.325 95.5847 791.193 90.4378C779.062 85.2909 766.194 82.7175 752.96 82.7175C740.092 82.3499 727.593 85.2909 715.829 90.8054C708.108 94.4817 701.123 99.6286 695.241 105.878V99.9962C695.241 97.0552 694.138 94.1141 692.3 91.9083C690.462 89.7025 687.521 88.232 684.212 88.232H643.405C640.464 88.232 637.523 89.3349 635.685 91.9083C633.479 94.1141 632.376 97.0552 632.743 99.9962V374.986C632.743 377.927 633.846 380.868 635.685 383.074C637.89 385.28 640.464 386.383 643.405 386.383H685.315C688.256 386.383 690.83 385.28 693.035 383.074C695.241 381.236 696.712 378.295 696.344 374.986V280.872C702.226 287.489 709.946 292.268 718.402 295.209C729.431 299.253 740.828 301.459 752.592 301.459C765.827 301.459 779.062 298.886 791.193 293.739C803.325 288.592 814.354 281.239 823.545 271.681C833.104 261.755 840.456 249.991 845.603 237.123C851.485 222.786 854.059 207.345 853.691 191.905C854.059 176.464 851.118 161.023 845.603 146.318C840.089 134.186 832.736 122.422 823.178 112.496ZM785.679 212.124C783.473 218.007 780.164 223.153 775.753 227.933C767.297 237.123 755.165 242.27 742.666 242.27C736.416 242.27 730.166 241.167 724.284 238.226C718.77 235.653 713.623 232.344 709.211 227.933C704.8 223.521 701.491 218.007 699.285 212.124C694.506 199.625 694.506 186.022 699.285 173.523C701.491 167.641 705.167 162.494 709.211 158.082C713.623 153.671 718.77 149.994 724.284 147.421C730.166 144.848 736.416 143.377 742.666 143.377C749.283 143.377 755.165 144.48 761.415 147.421C766.93 149.994 772.077 153.303 776.12 157.715C780.532 162.126 783.473 167.273 786.047 173.155C790.458 186.022 790.091 199.625 785.679 212.124ZM1078.32 88.5996L1036.77 88.5996C1033.83 88.5996 1030.89 89.7025 1029.05 91.9083C1026.85 94.1141 1025.74 97.0552 1025.74 100.364V105.511C1020.6 99.261 1013.98 94.4818 1006.99 91.1731C995.598 85.6586 983.098 83.0851 970.599 83.0851C943.761 83.0851 918.395 93.7465 899.278 112.496C889.352 122.422 881.631 134.186 876.484 147.053C870.602 161.391 867.661 176.832 868.029 192.64C867.661 208.08 870.602 223.521 876.484 238.226C881.999 251.093 889.352 262.858 899.278 272.784C918.027 291.901 943.761 302.562 970.231 302.562C982.73 302.93 995.23 299.989 1006.63 294.474C1013.61 290.798 1020.6 286.019 1025.74 280.137V285.651C1025.74 288.592 1026.85 291.533 1029.05 293.739C1031.26 295.577 1033.83 297.048 1036.77 297.048H1078.32C1081.26 297.048 1084.2 295.945 1086.04 293.739C1088.24 291.533 1089.34 288.592 1089.34 285.651V100.732C1089.34 97.7904 1088.24 94.8494 1086.4 92.6436C1084.2 90.0701 1081.26 88.5996 1078.32 88.5996ZM1022.07 212.124C1019.86 218.007 1016.55 223.153 1012.14 227.933C1007.73 232.344 1002.95 236.021 997.436 238.594C985.671 244.108 972.069 244.108 960.305 238.594C954.79 236.021 949.643 232.344 945.232 227.933C940.82 223.521 937.512 218.007 935.306 212.124C930.894 199.625 930.894 186.022 935.306 173.523C937.512 167.641 940.82 162.862 945.232 158.082C949.643 153.671 954.423 149.994 960.305 147.421C972.069 141.906 985.671 141.906 997.068 147.421C1002.58 149.994 1007.73 153.303 1011.77 157.715C1015.82 162.126 1019.13 167.273 1021.7 173.155C1026.85 186.022 1026.85 199.625 1022.07 212.124ZM1492.27 187.125C1486.39 181.978 1479.4 177.567 1472.05 174.626C1464.33 171.317 1455.87 169.111 1447.79 167.273L1416.17 161.023C1408.08 159.553 1402.2 157.347 1399.26 154.774C1396.69 152.935 1394.85 149.994 1394.85 146.686C1394.85 143.377 1396.69 140.436 1400.73 137.862C1406.24 134.921 1412.13 133.451 1418.38 133.818C1426.46 133.818 1434.55 135.657 1441.9 138.598C1449.26 141.906 1456.24 145.215 1462.86 149.627C1472.05 155.509 1480.14 154.406 1485.65 147.789L1500.73 130.51C1503.67 127.569 1505.14 123.892 1505.5 119.848C1505.14 115.437 1502.93 111.761 1499.62 108.819C1493.37 103.305 1483.08 97.4228 1469.48 91.5407C1455.87 85.6585 1438.6 82.7175 1418.38 82.7175C1405.88 82.3499 1393.74 84.188 1381.98 87.8643C1372.05 91.173 1362.5 95.9523 1354.04 102.202C1346.32 108.084 1340.44 115.437 1336.03 124.26C1331.98 132.716 1329.78 141.906 1329.78 151.097C1329.78 168.376 1334.92 182.346 1345.22 192.64C1355.51 202.934 1369.11 209.919 1386.02 213.227L1419.11 220.58C1426.1 221.683 1433.45 223.889 1440.07 227.197C1443.74 228.668 1445.95 232.344 1445.95 236.388C1445.95 240.064 1444.11 243.373 1440.07 246.314C1436.02 249.255 1429.4 251.093 1420.58 251.093C1411.76 251.093 1402.57 249.255 1394.48 245.211C1386.76 241.535 1379.77 236.756 1373.16 231.241C1370.22 229.036 1367.27 227.197 1363.6 225.727C1359.92 224.624 1355.14 225.727 1350.36 229.771L1332.35 243.373C1327.2 247.05 1324.63 253.299 1326.1 259.181C1327.2 265.431 1331.98 271.313 1341.17 278.298C1363.97 293.739 1391.17 301.827 1418.74 301.092C1431.61 301.092 1444.48 299.621 1456.61 295.945C1467.27 292.636 1477.2 287.857 1486.02 281.239C1494.11 275.357 1500.73 267.637 1505.14 258.446C1509.55 249.623 1511.75 240.065 1511.75 230.138C1512.12 221.315 1510.28 212.492 1506.61 204.404C1502.93 198.522 1498.15 192.272 1492.27 187.125ZM1673.88 237.491C1672.04 234.182 1668.73 231.977 1664.69 231.241C1661.01 231.241 1656.97 232.344 1654.03 234.55C1648.88 237.859 1643 239.697 1637.12 240.064C1635.28 240.064 1633.07 239.697 1631.24 239.329C1629.03 238.962 1627.19 237.859 1625.72 236.388C1623.88 234.55 1622.41 232.344 1621.31 230.138C1619.84 226.462 1619.1 222.786 1619.47 219.109V143.745H1673.15C1676.45 143.745 1679.4 142.274 1681.6 140.068C1683.81 137.863 1685.28 135.289 1685.28 131.98V99.9962C1685.28 96.6875 1684.17 93.7465 1681.6 91.9083C1679.4 89.7025 1676.45 88.5996 1673.51 88.5996H1619.47V37.131C1619.47 34.1899 1618.37 30.8812 1616.16 29.043C1613.96 27.2048 1611.38 26.102 1608.44 25.7343L1566.53 25.7343C1563.59 25.7343 1560.65 26.8372 1558.44 29.043C1556.24 31.2488 1554.77 34.1899 1554.77 37.131V88.5996H1530.87C1527.93 88.5996 1524.99 89.7025 1522.78 92.276C1520.95 94.4818 1519.84 97.4228 1519.84 100.364V132.348C1519.84 135.289 1520.95 138.23 1522.78 140.436C1524.62 143.009 1527.56 144.112 1530.87 144.112H1554.77V233.815C1554.4 244.476 1556.61 255.138 1561.02 264.696C1565.06 272.784 1570.21 279.769 1577.19 285.651C1583.81 291.166 1591.53 295.21 1599.99 297.415C1608.44 299.989 1617.27 301.459 1626.09 301.459C1637.49 301.459 1649.25 299.621 1660.28 295.945C1670.57 292.636 1679.76 286.754 1687.12 279.034C1691.89 274.254 1692.26 266.534 1688.59 261.02L1673.88 237.491ZM1901.08 88.5996H1859.54C1856.59 88.5996 1854.02 89.7025 1851.82 91.9083C1849.61 94.1141 1848.51 97.0552 1848.51 100.364V105.511C1843.36 99.261 1837.11 94.4818 1829.76 91.1731C1818.36 85.6586 1805.86 83.0851 1793.36 83.0851C1766.52 83.0851 1741.16 93.7465 1722.04 112.496C1712.11 122.422 1704.39 134.186 1699.25 147.053C1693.37 161.391 1690.42 176.832 1690.79 192.272C1690.42 207.713 1693.37 223.153 1699.25 237.859C1704.39 250.726 1712.48 262.49 1722.04 272.416C1740.79 291.533 1766.16 302.195 1792.99 302.195C1805.49 302.562 1817.99 299.621 1829.39 294.474C1836.74 290.798 1843.36 286.019 1848.51 280.137V285.651C1848.51 288.592 1849.61 291.533 1851.82 293.371C1854.02 295.577 1856.59 296.68 1859.54 296.68H1901.08C1907.33 296.68 1912.11 291.901 1912.11 285.651V100.732C1912.11 97.7904 1911 94.8494 1909.17 92.6436C1907.33 90.0701 1904.39 88.5996 1901.08 88.5996ZM1845.2 212.124C1842.99 218.007 1839.68 223.153 1835.27 227.933C1830.86 232.344 1826.08 236.021 1820.57 238.594C1814.68 241.167 1808.43 242.638 1801.82 242.638C1795.2 242.638 1789.32 241.167 1783.44 238.594C1777.92 236.021 1772.77 232.344 1768.36 227.933C1763.95 223.521 1760.64 218.007 1758.8 212.124C1754.39 199.625 1754.39 186.022 1758.8 173.523C1761.01 167.641 1764.32 162.494 1768.36 158.082C1772.77 153.671 1777.92 149.994 1783.44 147.421C1789.32 144.848 1795.57 143.377 1801.82 143.377C1808.07 143.377 1814.32 144.48 1820.57 147.421C1826.08 149.994 1830.86 153.303 1835.27 157.715C1839.68 162.126 1842.99 167.273 1845.2 173.155C1849.98 185.655 1849.98 199.625 1845.2 212.124ZM2129.01 234.55L2105.11 216.168C2100.7 212.492 2096.29 211.389 2092.62 212.86C2089.31 214.33 2086.37 216.536 2083.79 219.109C2078.65 225.359 2072.4 230.874 2065.78 235.653C2058.43 239.697 2050.71 241.903 2042.62 241.167C2033.06 241.167 2024.24 238.594 2016.52 233.079C2008.79 227.565 2002.91 220.212 1999.97 211.021C1997.77 204.772 1996.66 198.522 1996.66 192.272C1996.66 185.655 1997.77 179.405 1999.97 172.788C2002.18 166.906 2005.12 161.759 2009.53 157.347C2013.94 152.935 2018.72 149.259 2024.24 147.053C2030.12 144.48 2036.37 143.009 2042.98 143.009C2051.07 142.642 2059.16 144.848 2066.15 148.891C2073.13 153.303 2079.01 158.818 2084.16 165.435C2086.37 168.008 2089.31 170.214 2092.62 171.685C2096.29 173.155 2100.7 172.052 2105.11 168.376L2129.01 150.362C2131.95 148.524 2134.16 145.583 2135.26 142.274C2136.73 138.598 2136.36 134.554 2134.16 131.245C2124.97 116.907 2112.47 105.143 2097.39 96.6876C2081.59 87.8644 2062.84 83.0851 2041.88 83.0851C2027.18 83.0851 2012.47 86.0262 1998.5 91.5407C1985.27 97.0552 1973.5 104.775 1963.58 114.702C1953.65 124.628 1945.56 136.392 1940.05 149.627C1928.65 177.199 1928.65 208.08 1940.05 235.653C1945.56 248.52 1953.28 260.652 1963.58 270.21C1984.53 290.798 2012.47 301.827 2041.88 301.827C2062.84 301.827 2081.59 297.048 2097.39 288.224C2112.47 279.769 2125.33 268.005 2134.53 253.299C2136.36 249.991 2136.73 245.947 2135.63 242.638C2134.16 239.697 2131.95 236.756 2129.01 234.55ZM2350.33 277.563L2284.52 181.243L2340.77 106.981C2343.34 103.673 2344.44 98.8934 2342.97 94.8494C2341.87 91.9083 2339.3 88.9672 2332.31 88.9672L2287.83 88.9672C2285.26 88.9672 2282.68 89.7025 2280.48 90.8054C2277.53 92.2759 2275.33 94.4817 2273.86 97.0552L2229.01 159.92H2218.35V11.3967C2218.35 8.45559 2217.24 5.51448 2215.04 3.30868C2212.83 1.10288 2210.26 0 2207.32 0L2165.77 0C2162.83 0 2159.89 1.10288 2157.69 3.30868C2155.48 5.51448 2154.38 8.08796 2154.38 11.3967V285.283C2154.38 288.592 2155.48 291.166 2157.69 293.371C2159.89 295.577 2162.83 296.68 2165.77 296.68H2207.32C2210.26 296.68 2213.2 295.577 2215.04 293.371C2217.24 291.166 2218.35 288.225 2218.35 285.283V212.86H2230.11L2279.01 287.857C2281.95 293.371 2287.46 296.68 2293.34 296.68H2340.03C2347.02 296.68 2349.96 293.371 2351.43 290.43C2353.27 286.019 2352.9 281.239 2350.33 277.563ZM1314.34 88.5996L1267.65 88.5996C1263.97 88.5996 1260.66 89.7025 1258.09 92.276C1255.88 94.4818 1254.41 97.0552 1253.68 99.9962L1219.12 227.933L1210.66 227.933L1173.9 99.9962C1173.16 97.4228 1172.06 94.8494 1170.22 92.276C1168.02 89.7025 1165.08 88.232 1161.77 88.232L1114.34 88.232C1108.09 88.232 1104.42 90.0701 1102.58 94.4817C1101.48 98.1581 1101.48 102.202 1102.58 105.878L1161.4 286.019C1162.5 288.592 1163.61 291.533 1165.81 293.371C1168.02 295.577 1171.33 296.68 1174.63 296.68H1199.63L1197.43 302.562L1191.91 319.106C1190.08 324.253 1187.13 328.664 1182.72 331.973C1178.68 334.914 1173.9 336.752 1168.75 336.384C1164.34 336.384 1160.3 335.282 1156.25 333.811C1152.21 331.973 1148.53 329.767 1145.22 327.194C1142.28 324.988 1138.61 323.885 1134.56 323.885H1134.2C1129.78 324.253 1125.74 326.458 1123.53 330.502L1108.83 352.193C1102.95 361.751 1106.26 367.633 1109.93 370.942C1118.02 378.295 1127.21 383.809 1137.5 387.118C1148.9 391.162 1160.66 393 1172.43 393C1193.75 393 1211.4 387.118 1225 375.721C1238.97 363.222 1249.63 347.046 1254.78 328.664L1323.16 105.878C1324.63 101.834 1325 97.7905 1323.53 94.1141C1323.16 91.5407 1320.59 88.5996 1314.34 88.5996Z" fill="#011B33"/>
</g>
<defs>
<clipPath id="clip0_14350_608671">
<rect width="2500" height="-393" fill="white" transform="matrix(-1 0 0 -1 2500 0)"/>
</clipPath>
</defs>
</svg>
