<svg width="20" height="20" viewBox="0 0 20 20" fill="none" xmlns="http://www.w3.org/2000/svg">
<path fill-rule="evenodd" clip-rule="evenodd" d="M7.36584 4.21893C7.01108 4.21267 6.65862 4.27713 6.32904 4.40856C5.99946 4.53999 5.69936 4.73575 5.44626 4.98442C5.19316 5.23309 4.99213 5.52968 4.8549 5.85689C4.71767 6.1841 4.64699 6.53536 4.64699 6.89018C4.64699 7.245 4.71767 7.59627 4.8549 7.92347C4.99213 8.25068 5.19316 8.54728 5.44626 8.79595C5.69936 9.04461 5.99946 9.24038 6.32904 9.37181C6.65862 9.50324 7.01108 9.5677 7.36584 9.56143V10.3948C6.43626 10.3948 5.54475 10.0255 4.88743 9.36818C4.23012 8.71086 3.86084 7.81935 3.86084 6.88977C3.86084 5.96018 4.23012 5.06867 4.88743 4.41136C5.54475 3.75404 6.43626 3.38477 7.36584 3.38477V4.2181V4.21893Z" fill="#F9FAFB"/>
<path fill-rule="evenodd" clip-rule="evenodd" d="M7.36492 10.3953C6.01939 10.3953 4.72897 10.9298 3.77753 11.8813C2.8261 12.8327 2.29159 14.1231 2.29159 15.4687H1.45825C1.45825 13.9021 2.08056 12.3997 3.18827 11.292C4.29599 10.1843 5.79837 9.56199 7.36492 9.56199V10.3953ZM12.2916 4.21866C11.9154 4.21866 11.5429 4.29275 11.1954 4.43671C10.8478 4.58067 10.532 4.79167 10.266 5.05768C10 5.32368 9.78901 5.63947 9.64506 5.98701C9.5011 6.33456 9.427 6.70706 9.427 7.08324C9.427 7.45942 9.5011 7.83192 9.64506 8.17947C9.78901 8.52702 10 8.84281 10.266 9.10881C10.532 9.37481 10.8478 9.58581 11.1954 9.72977C11.5429 9.87373 11.9154 9.94783 12.2916 9.94783C13.0512 9.94783 13.7797 9.64607 14.3169 9.10893C14.854 8.5718 15.1558 7.84328 15.1558 7.08366C15.1558 6.32403 14.854 5.59552 14.3169 5.05839C13.7797 4.52125 13.0512 4.21949 12.2916 4.21949V4.21866ZM8.59325 7.08366C8.59325 6.10291 8.98285 5.16233 9.67635 4.46884C10.3698 3.77534 11.3104 3.38574 12.2912 3.38574C13.2719 3.38574 14.2125 3.77534 14.906 4.46884C15.5995 5.16233 15.9891 6.10291 15.9891 7.08366C15.9891 8.06441 15.5995 9.00499 14.906 9.69848C14.2125 10.392 13.2719 10.7816 12.2912 10.7816C11.3104 10.7816 10.3698 10.392 9.67635 9.69848C8.98285 9.00499 8.59325 8.06441 8.59325 7.08366Z" fill="#F9FAFB"/>
<path fill-rule="evenodd" clip-rule="evenodd" d="M12.2917 10.7816C10.8552 10.7816 9.47741 11.3523 8.46159 12.3681C7.44576 13.3839 6.87508 14.7617 6.87508 16.1982H6.04175C6.04175 14.5406 6.70023 12.9509 7.87233 11.7788C9.04443 10.6067 10.6341 9.94824 12.2917 9.94824C13.9494 9.94824 15.5391 10.6067 16.7112 11.7788C17.8833 12.9509 18.5417 14.5406 18.5417 16.1982H17.7084C17.7084 14.7617 17.1377 13.3839 16.1219 12.3681C15.1061 11.3523 13.7283 10.7816 12.2917 10.7816Z" fill="#F9FAFB"/>
</svg>
