<svg width="57" height="56" viewBox="0 0 57 56" fill="none" xmlns="http://www.w3.org/2000/svg">
<rect x="4.5" y="4" width="48" height="48" rx="24" fill="#EBF3FF"/>
<path d="M38.4999 32.9201V35.9201C38.5011 36.1986 38.444 36.4743 38.3324 36.7294C38.2209 36.9846 38.0572 37.2137 37.852 37.402C37.6468 37.5902 37.4045 37.7336 37.1407 37.8228C36.8769 37.912 36.5973 37.9452 36.3199 37.9201C33.2428 37.5857 30.2869 36.5342 27.6899 34.8501C25.2738 33.3148 23.2253 31.2663 21.6899 28.8501C19.9999 26.2413 18.9482 23.2711 18.6199 20.1801C18.5949 19.9036 18.6278 19.6249 18.7164 19.3617C18.8051 19.0986 18.9475 18.8568 19.1347 18.6517C19.3219 18.4466 19.5497 18.2828 19.8037 18.1706C20.0577 18.0584 20.3323 18.0004 20.6099 18.0001H23.6099C24.0952 17.9953 24.5657 18.1672 24.9337 18.4836C25.3017 18.8001 25.542 19.2395 25.6099 19.7201C25.7366 20.6802 25.9714 21.6228 26.3099 22.5301C26.4445 22.888 26.4736 23.277 26.3938 23.651C26.3141 24.0249 26.1288 24.3682 25.8599 24.6401L24.5899 25.9101C26.0135 28.4136 28.0864 30.4865 30.5899 31.9101L31.8599 30.6401C32.1318 30.3712 32.4751 30.1859 32.8491 30.1062C33.223 30.0264 33.612 30.0556 33.9699 30.1901C34.8772 30.5286 35.8199 30.7635 36.7799 30.8901C37.2657 30.9586 37.7093 31.2033 38.0265 31.5776C38.3436 31.9519 38.5121 32.4297 38.4999 32.9201Z" stroke="#4086EF" stroke-width="2" stroke-linecap="round" stroke-linejoin="round"/>
<rect x="4.5" y="4" width="48" height="48" rx="24" stroke="#F5F9FF" stroke-width="8"/>
</svg>
