<?xml version="1.0" encoding="UTF-8"?>
<!DOCTYPE svg PUBLIC "-//W3C//DTD SVG 1.1//EN" "http://www.w3.org/Graphics/SVG/1.1/DTD/svg11.dtd">
<!-- Creator: CorelDRAW -->
<svg xmlns="http://www.w3.org/2000/svg" xml:space="preserve" width="2048px" height="2048px" style="shape-rendering:geometricPrecision; text-rendering:geometricPrecision; image-rendering:optimizeQuality; fill-rule:evenodd; clip-rule:evenodd"
viewBox="0 0 2048 2048"
 xmlns:xlink="http://www.w3.org/1999/xlink">
 <defs>
  <style type="text/css">
   <![CDATA[
    .fil6 {fill:none}
    .fil0 {fill:#263238}
    .fil2 {fill:#37474F}
    .fil3 {fill:#ECEFF1}
    .fil1 {fill:#263238;fill-rule:nonzero}
    .fil5 {fill:#37474F;fill-rule:nonzero}
    .fil4 {fill:#E53935;fill-rule:nonzero}
   ]]>
  </style>
 </defs>
 <g id="Layer_x0020_1">
  <metadata id="CorelCorpID_0Corel-Layer"/>
  <g id="_490147520">
   <g>
    <rect id="_360986840" class="fil0" transform="matrix(1.54655 1.54655 -0.352972 0.352972 1460.96 488.929)" width="128" height="128"/>
    <path id="_360986768" class="fil1" d="M1560.77 636.485c10.5378,-10.5366 8.01969,-30.1418 -5.62441,-43.7847 -13.6429,-13.6441 -33.2481,-16.1622 -43.7847,-5.62559l-79.2107 79.2107c-10.5366,10.5378 -8.01851,30.1418 5.62441,43.7859 13.6441,13.6429 33.2481,16.161 43.7859,5.62441l79.2095 -79.2107z"/>
    <rect id="_360986912" class="fil2" transform="matrix(0.707107 0.707107 -0.359268 0.359268 1460.96 488.929)" width="23.2205" height="125.756"/>
    <rect id="_360986288" class="fil2" transform="matrix(0.707107 0.707107 -0.359268 0.359268 1493.8 521.768)" width="23.2205" height="125.756"/>
    <rect id="_360986048" class="fil2" transform="matrix(0.707107 0.707107 -0.359268 0.359268 1526.63 554.607)" width="23.2205" height="125.756"/>
    <rect id="_360985832" class="fil2" transform="matrix(0.707107 0.707107 -0.359268 0.359268 1559.47 587.445)" width="23.2205" height="125.756"/>
    <rect id="_360985664" class="fil2" transform="matrix(0.707107 0.707107 -0.359268 0.359268 1592.31 620.284)" width="23.2205" height="125.756"/>
    <rect id="_360985568" class="fil2" transform="matrix(0.707107 0.707107 -0.359268 0.359268 1625.15 653.123)" width="23.2205" height="125.756"/>
   </g>
   <g>
    <rect id="_360985496" class="fil0" x="884.022" y="317.861" width="279.956" height="63.8946"/>
    <path id="_360986192" class="fil1" d="M1058.94 351.622c0,-14.9032 -15.6437,-26.9847 -34.9382,-26.9847 -19.2957,0 -34.9382,12.0815 -34.9382,26.9847l0 112.019c0,14.902 15.6425,26.9835 34.9382,26.9835 19.2945,0 34.9382,-12.0815 34.9382,-26.9835l0 -112.019z"/>
    <rect id="_360985448" class="fil2" x="884.023" y="317.861" width="23.2205" height="63.8941"/>
    <rect id="_360984728" class="fil2" x="930.464" y="317.861" width="23.2205" height="63.8941"/>
    <rect id="_360985256" class="fil2" x="976.905" y="317.861" width="23.2205" height="63.8941"/>
    <rect id="_360984920" class="fil2" x="1023.35" y="317.861" width="23.2205" height="63.8941"/>
    <rect id="_360985112" class="fil2" x="1069.79" y="317.861" width="23.2205" height="63.8941"/>
    <rect id="_360985400" class="fil2" x="1116.23" y="317.861" width="23.2205" height="63.8941"/>
   </g>
   <g>
    <rect id="_490149752" class="fil0" transform="matrix(1.54655 -1.54655 0.352972 0.352972 389.085 686.887)" width="128" height="128"/>
    <path id="_490149344" class="fil1" d="M536.641 587.076c-10.5366,-10.5378 -30.1418,-8.01969 -43.7847,5.62441 -13.6441,13.6429 -16.1622,33.2481 -5.62559,43.7847l79.2107 79.2107c10.5378,10.5366 30.1418,8.01851 43.7859,-5.62441 13.6429,-13.6441 16.161,-33.2481 5.62441,-43.7859l-79.2107 -79.2095z"/>
    <rect id="_490149680" class="fil2" transform="matrix(0.707107 -0.707107 0.359268 0.359268 389.086 686.887)" width="23.2205" height="125.756"/>
    <rect id="_490149296" class="fil2" transform="matrix(0.707107 -0.707107 0.359268 0.359268 421.925 654.048)" width="23.2205" height="125.756"/>
    <rect id="_490149200" class="fil2" transform="matrix(0.707107 -0.707107 0.359268 0.359268 454.763 621.21)" width="23.2205" height="125.756"/>
    <rect id="_490149152" class="fil2" transform="matrix(0.707107 -0.707107 0.359268 0.359268 487.602 588.371)" width="23.2205" height="125.756"/>
    <rect id="_490149704" class="fil2" transform="matrix(0.707107 -0.707107 0.359268 0.359268 520.441 555.532)" width="23.2205" height="125.756"/>
    <rect id="_490148960" class="fil2" transform="matrix(0.707107 -0.707107 0.359268 0.359268 553.279 522.693)" width="23.2205" height="125.756"/>
   </g>
   <circle id="_490148888" class="fil3" cx="1024" cy="1123.84" r="570.032"/>
   <rect id="_490148816" class="fil0" x="884.021" y="255.999" width="279.956" height="125.757"/>
   <path id="_490148744" class="fil1" d="M1058.94 351.622c0,-14.9032 -15.6437,-26.9847 -34.9382,-26.9847 -19.2957,0 -34.9382,12.0815 -34.9382,26.9847l0 112.019c0,14.902 15.6425,26.9835 34.9382,26.9835 19.2945,0 34.9382,-12.0815 34.9382,-26.9835l0 -112.019z"/>
   <path id="_490148864" class="fil2" d="M1024 455.686c369.012,0 668.156,299.145 668.156,668.157 0,369.012 -299.144,668.157 -668.156,668.157 -369.012,0 -668.156,-299.145 -668.156,-668.157 0,-369.012 299.144,-668.157 668.156,-668.157zm0 117.84c303.932,0 550.317,246.385 550.317,550.317 0,303.932 -246.385,550.317 -550.317,550.317 -303.932,0 -550.317,-246.385 -550.317,-550.317 0,-303.932 246.385,-550.317 550.317,-550.317z"/>
   <path id="_490148648" class="fil4" d="M1024 637.505c134.296,0 255.882,54.437 343.891,142.447 88.0099,88.0087 142.447,209.597 142.447,343.891l-52.4067 0c0,-119.828 -48.5693,-228.316 -127.093,-306.839 -78.5245,-78.5233 -187.01,-127.093 -306.839,-127.093l0 -52.4067z"/>
   <polygon id="_490148432" class="fil5" points="1020.87,1092.4 1218.65,894.622 1319.48,828.152 1253.47,928.946 1055.44,1126.97 "/>
   <rect id="_490147712" class="fil2" x="884.022" y="255.999" width="23.2205" height="125.756"/>
   <rect id="_490148144" class="fil2" x="930.463" y="255.999" width="23.2205" height="125.756"/>
   <rect id="_490147976" class="fil2" x="976.904" y="255.999" width="23.2205" height="125.756"/>
   <rect id="_490147760" class="fil2" x="1023.34" y="255.999" width="23.2205" height="125.756"/>
   <rect id="_490147880" class="fil2" x="1069.79" y="255.999" width="23.2205" height="125.756"/>
   <rect id="_490148024" class="fil2" x="1116.23" y="255.999" width="23.2205" height="125.756"/>
   <circle id="_490146992" class="fil0" transform="matrix(1.54633 1.54633 -1.54633 1.54633 1024 1123.84)" r="31.9996"/>
  </g>
 </g>
 <rect class="fil6" width="2048" height="2048"/>
</svg>
