<svg width="36" height="36" viewBox="0 0 36 36" fill="none" xmlns="http://www.w3.org/2000/svg">
<rect x="2" y="2" width="32" height="32" rx="16" fill="#EBF3FF"/>
<path d="M18.666 11.334H13.9993C13.6457 11.334 13.3066 11.4745 13.0565 11.7245C12.8065 11.9746 12.666 12.3137 12.666 12.6673V23.334C12.666 23.6876 12.8065 24.0267 13.0565 24.2768C13.3066 24.5268 13.6457 24.6673 13.9993 24.6673H21.9993C22.353 24.6673 22.6921 24.5268 22.9422 24.2768C23.1922 24.0267 23.3327 23.6876 23.3327 23.334V16.0007M18.666 11.334L23.3327 16.0007M18.666 11.334V16.0007H23.3327" stroke="#4086EF" stroke-width="1.33333" stroke-linecap="round" stroke-linejoin="round"/>
<rect x="2" y="2" width="32" height="32" rx="16" stroke="#F5F9FF" stroke-width="4"/>
</svg>
