<svg width="57" height="56" viewBox="0 0 57 56" fill="none" xmlns="http://www.w3.org/2000/svg">
<rect x="4.5" y="4" width="48" height="48" rx="24" fill="#EBF3FF"/>
<path d="M37.5 26C37.5 33 28.5 39 28.5 39C28.5 39 19.5 33 19.5 26C19.5 23.6131 20.4482 21.3239 22.136 19.636C23.8239 17.9482 26.1131 17 28.5 17C30.8869 17 33.1761 17.9482 34.864 19.636C36.5518 21.3239 37.5 23.6131 37.5 26Z" stroke="#4086EF" stroke-width="2" stroke-linecap="round" stroke-linejoin="round"/>
<path d="M28.5 29C30.1569 29 31.5 27.6569 31.5 26C31.5 24.3431 30.1569 23 28.5 23C26.8431 23 25.5 24.3431 25.5 26C25.5 27.6569 26.8431 29 28.5 29Z" stroke="#4086EF" stroke-width="2" stroke-linecap="round" stroke-linejoin="round"/>
<rect x="4.5" y="4" width="48" height="48" rx="24" stroke="#F5F9FF" stroke-width="8"/>
</svg>
