<svg width="179" height="142" viewBox="0 0 179 142" fill="none" xmlns="http://www.w3.org/2000/svg">
<circle cx="89.5" cy="64" r="64" fill="#EBF3FF"/>
<circle cx="23.5" cy="6" r="6" fill="#EBF3FF"/>
<circle cx="20.5" cy="112" r="8" fill="#EBF3FF"/>
<circle cx="163.5" cy="36" r="8" fill="#EBF3FF"/>
<circle cx="152.5" cy="9" r="5" fill="#EBF3FF"/>
<g filter="url(#filter0_dd_8437_506227)">
<rect x="20.5" y="16" width="138" height="86" rx="6" fill="url(#paint0_linear_8437_506227)"/>
<rect x="32.5" y="36" width="24" height="18" rx="2" fill="#BDD5FA"/>
<circle cx="136.5" cy="42" r="10" fill="#92BAF6"/>
<circle cx="124.5" cy="42" r="10" fill="#BDD5FA"/>
<path d="M32.5 89C32.5 87.8954 33.3954 87 34.5 87H54.5C55.6046 87 56.5 87.8954 56.5 89C56.5 90.1046 55.6046 91 54.5 91H34.5C33.3954 91 32.5 90.1046 32.5 89Z" fill="#BDD5FA"/>
<path d="M62.5 89C62.5 87.8954 63.3954 87 64.5 87H84.5C85.6046 87 86.5 87.8954 86.5 89C86.5 90.1046 85.6046 91 84.5 91H64.5C63.3954 91 62.5 90.1046 62.5 89Z" fill="#BDD5FA"/>
<path d="M92.5 89C92.5 87.8954 93.3954 87 94.5 87H114.5C115.605 87 116.5 87.8954 116.5 89C116.5 90.1046 115.605 91 114.5 91H94.5C93.3954 91 92.5 90.1046 92.5 89Z" fill="#BDD5FA"/>
<path d="M122.5 89C122.5 87.8954 123.395 87 124.5 87H144.5C145.605 87 146.5 87.8954 146.5 89C146.5 90.1046 145.605 91 144.5 91H124.5C123.395 91 122.5 90.1046 122.5 89Z" fill="#BDD5FA"/>
</g>
<g filter="url(#filter1_b_8437_506227)">
<rect x="61.5" y="78" width="56" height="56" rx="28" fill="#38649E" fill-opacity="0.5"/>
<path d="M90.6667 94.3335L79 108.333H89.5L88.3333 117.667L100 103.667H89.5L90.6667 94.3335Z" stroke="#101828" stroke-width="2.33333" stroke-linecap="round" stroke-linejoin="round"/>
</g>
<defs>
<filter id="filter0_dd_8437_506227" x="0.5" y="16" width="178" height="126" filterUnits="userSpaceOnUse" color-interpolation-filters="sRGB">
<feFlood flood-opacity="0" result="BackgroundImageFix"/>
<feColorMatrix in="SourceAlpha" type="matrix" values="0 0 0 0 0 0 0 0 0 0 0 0 0 0 0 0 0 0 127 0" result="hardAlpha"/>
<feMorphology radius="4" operator="erode" in="SourceAlpha" result="effect1_dropShadow_8437_506227"/>
<feOffset dy="8"/>
<feGaussianBlur stdDeviation="4"/>
<feColorMatrix type="matrix" values="0 0 0 0 0.0627451 0 0 0 0 0.0941176 0 0 0 0 0.156863 0 0 0 0.03 0"/>
<feBlend mode="normal" in2="BackgroundImageFix" result="effect1_dropShadow_8437_506227"/>
<feColorMatrix in="SourceAlpha" type="matrix" values="0 0 0 0 0 0 0 0 0 0 0 0 0 0 0 0 0 0 127 0" result="hardAlpha"/>
<feMorphology radius="4" operator="erode" in="SourceAlpha" result="effect2_dropShadow_8437_506227"/>
<feOffset dy="20"/>
<feGaussianBlur stdDeviation="12"/>
<feColorMatrix type="matrix" values="0 0 0 0 0.0627451 0 0 0 0 0.0941176 0 0 0 0 0.156863 0 0 0 0.08 0"/>
<feBlend mode="normal" in2="effect1_dropShadow_8437_506227" result="effect2_dropShadow_8437_506227"/>
<feBlend mode="normal" in="SourceGraphic" in2="effect2_dropShadow_8437_506227" result="shape"/>
</filter>
<filter id="filter1_b_8437_506227" x="55.5" y="72" width="68" height="68" filterUnits="userSpaceOnUse" color-interpolation-filters="sRGB">
<feFlood flood-opacity="0" result="BackgroundImageFix"/>
<feGaussianBlur in="BackgroundImageFix" stdDeviation="3"/>
<feComposite in2="SourceAlpha" operator="in" result="effect1_backgroundBlur_8437_506227"/>
<feBlend mode="normal" in="SourceGraphic" in2="effect1_backgroundBlur_8437_506227" result="shape"/>
</filter>
<linearGradient id="paint0_linear_8437_506227" x1="25.3058" y1="100.982" x2="22.8193" y2="22.2707" gradientUnits="userSpaceOnUse">
<stop stop-color="#D7E8FE"/>
<stop offset="1" stop-color="#EBF4FF"/>
</linearGradient>
</defs>
</svg>
