<svg width="23" height="22" viewBox="0 0 23 22" fill="none" xmlns="http://www.w3.org/2000/svg">
<path d="M9.06705 8C9.30215 7.33167 9.7662 6.76811 10.377 6.40913C10.9878 6.05016 11.7059 5.91894 12.4042 6.03871C13.1025 6.15849 13.7359 6.52152 14.1921 7.06353C14.6484 7.60553 14.8981 8.29152 14.8971 9C14.8971 11 11.8971 12 11.8971 12M11.9771 16H11.9871M21.9771 11C21.9771 16.5228 17.4999 21 11.9771 21C6.4542 21 1.97705 16.5228 1.97705 11C1.97705 5.47715 6.4542 1 11.9771 1C17.4999 1 21.9771 5.47715 21.9771 11Z" stroke="#1059C6" stroke-width="2" stroke-linecap="round" stroke-linejoin="round"/>
</svg>
