<svg width="56" height="56" viewBox="0 0 56 56" fill="none" xmlns="http://www.w3.org/2000/svg">
<rect x="4" y="4" width="48" height="48" rx="24" fill="#568FD9"/>
<g clip-path="url(#clip0_989_92932)">
<path d="M21.19 28.81C19.5059 26.213 18.4544 23.2572 18.12 20.18C18.095 19.9035 18.1279 19.6248 18.2165 19.3616C18.3051 19.0985 18.4476 18.8567 18.6348 18.6516C18.822 18.4466 19.0498 18.2827 19.3038 18.1705C19.5578 18.0583 19.8323 18.0003 20.11 18H23.11C23.5953 17.9952 24.0658 18.1671 24.4338 18.4835C24.8017 18.8 25.0421 19.2394 25.11 19.72C25.2366 20.6801 25.4714 21.6227 25.81 22.53C25.9445 22.8879 25.9737 23.2769 25.8939 23.6509C25.8142 24.0248 25.6289 24.3681 25.36 24.64L24.09 25.91M39 17L17 39M26.68 29.31C27.6949 30.3257 28.8418 31.2003 30.09 31.91L31.36 30.64C31.6319 30.3711 31.9752 30.1858 32.3491 30.1061C32.7231 30.0263 33.1121 30.0555 33.47 30.19C34.3773 30.5286 35.3199 30.7634 36.28 30.89C36.7606 30.9579 37.2 31.1983 37.5165 31.5662C37.8329 31.9342 38.0048 32.4047 38 32.89V35.89C38.0011 36.1685 37.9441 36.4442 37.8325 36.6993C37.7209 36.9545 37.5573 37.1836 37.3521 37.3719C37.1469 37.5601 36.9046 37.7035 36.6407 37.7927C36.3769 37.8819 36.0974 37.9151 35.82 37.89C32.7428 37.5556 29.787 36.5041 27.19 34.82C25.9853 34.0551 24.8685 33.1596 23.86 32.15L26.68 29.31Z" stroke="white" stroke-width="2" stroke-linecap="round" stroke-linejoin="round"/>
</g>
<rect x="4" y="4" width="48" height="48" rx="24" stroke="#417BC6" stroke-width="8"/>
<defs>
<clipPath id="clip0_989_92932">
<rect width="24" height="24" fill="white" transform="translate(16 16)"/>
</clipPath>
</defs>
</svg>
