<svg width="712" height="40" viewBox="0 0 712 40" fill="none" xmlns="http://www.w3.org/2000/svg">
<rect x="20" y="19" width="336" height="2" fill="#4086EF"/>
<rect x="356" y="19" width="336" height="2" fill="#4086EF"/>
<g clip-path="url(#clip0_3_271)">
<rect width="40" height="40" rx="20" fill="#EBF3FF"/>
<path fill-rule="evenodd" clip-rule="evenodd" d="M28.494 12.3168L16.5607 23.8334L13.394 20.4501C12.8107 19.9001 11.894 19.8668 11.2273 20.3334C10.5773 20.8168 10.394 21.6668 10.794 22.3501L14.544 28.4501C14.9107 29.0168 15.544 29.3668 16.2607 29.3668C16.944 29.3668 17.594 29.0168 17.9607 28.4501C18.5607 27.6668 30.0107 14.0168 30.0107 14.0168C31.5107 12.4834 29.694 11.1334 28.494 12.3001V12.3168Z" fill="#4086EF"/>
<rect x="1" y="1" width="38" height="38" rx="19" stroke="#4086EF" stroke-width="2"/>
</g>
<g clip-path="url(#clip1_3_271)">
<rect x="336" width="40" height="40" rx="20" fill="#EBF3FF"/>
<path fill-rule="evenodd" clip-rule="evenodd" d="M364.494 12.3168L352.561 23.8334L349.394 20.4501C348.811 19.9001 347.894 19.8668 347.227 20.3334C346.577 20.8168 346.394 21.6668 346.794 22.3501L350.544 28.4501C350.911 29.0168 351.544 29.3668 352.261 29.3668C352.944 29.3668 353.594 29.0168 353.961 28.4501C354.561 27.6668 366.011 14.0168 366.011 14.0168C367.511 12.4834 365.694 11.1334 364.494 12.3001V12.3168Z" fill="#4086EF"/>
<rect x="337" y="1" width="38" height="38" rx="19" stroke="#4086EF" stroke-width="2"/>
</g>
<g clip-path="url(#clip2_3_271)">
<rect x="672" width="40" height="40" rx="20" fill="#EBF3FF"/>
<path fill-rule="evenodd" clip-rule="evenodd" d="M700.494 12.3168L688.561 23.8334L685.394 20.4501C684.811 19.9001 683.894 19.8668 683.227 20.3334C682.577 20.8168 682.394 21.6668 682.794 22.3501L686.544 28.4501C686.911 29.0168 687.544 29.3668 688.261 29.3668C688.944 29.3668 689.594 29.0168 689.961 28.4501C690.561 27.6668 702.011 14.0168 702.011 14.0168C703.511 12.4834 701.694 11.1334 700.494 12.3001V12.3168Z" fill="#4086EF"/>
<rect x="673" y="1" width="38" height="38" rx="19" stroke="#4086EF" stroke-width="2"/>
</g>
<defs>
<clipPath id="clip0_3_271">
<rect width="40" height="40" rx="20" fill="white"/>
</clipPath>
<clipPath id="clip1_3_271">
<rect x="336" width="40" height="40" rx="20" fill="white"/>
</clipPath>
<clipPath id="clip2_3_271">
<rect x="672" width="40" height="40" rx="20" fill="white"/>
</clipPath>
</defs>
</svg>
