<svg width="91" height="99" viewBox="0 0 91 99" fill="none" xmlns="http://www.w3.org/2000/svg">
<path d="M45.4031 2.83339C46.0257 2.05429 46.7967 1.40643 47.6714 0.927296C48.5461 0.448166 49.5072 0.147289 50.4989 0.0420804C51.4907 -0.0631285 52.4935 0.0294205 53.4492 0.314371C54.405 0.599321 55.2948 1.07101 56.067 1.70214L80.6679 21.7931C82.0208 22.8978 82.9484 24.4377 83.2922 26.1502C83.6361 27.8626 83.3749 29.6412 82.5533 31.1825C80.4025 30.5252 78.1657 30.1922 75.9167 30.1946H73.6542L75.9016 27.6304L62.945 17.0494L52.2585 30.2021H42.5372L57.1002 12.2831L51.2931 7.53939L33.2082 30.1946H23.5549L45.4031 2.83339ZM64.6042 67.9029C63.6041 67.9029 62.645 68.3002 61.9378 69.0073C61.2306 69.7145 60.8333 70.6736 60.8333 71.6737C60.8333 72.6738 61.2306 73.6329 61.9378 74.3401C62.645 75.0473 63.6041 75.4446 64.6042 75.4446H72.1458C73.1459 75.4446 74.105 75.0473 74.8122 74.3401C75.5194 73.6329 75.9167 72.6738 75.9167 71.6737C75.9167 70.6736 75.5194 69.7145 74.8122 69.0073C74.105 68.3002 73.1459 67.9029 72.1458 67.9029H64.6042ZM8.04167 33.9654C8.04167 32.9653 8.43895 32.0062 9.14612 31.299C9.85329 30.5918 10.8124 30.1946 11.8125 30.1946H16.0208L22.0164 22.6529H11.8125C8.81224 22.6529 5.93486 23.8447 3.81335 25.9662C1.69185 28.0877 0.5 30.9651 0.5 33.9654V79.2154C0.5 84.2158 2.48642 89.0115 6.02226 92.5473C9.5581 96.0831 14.3537 98.0696 19.3542 98.0696H75.9167C79.917 98.0696 83.7535 96.4804 86.5822 93.6517C89.4109 90.8231 91 86.9866 91 82.9862V52.8196C91 48.8192 89.4109 44.9827 86.5822 42.154C83.7535 39.3254 79.917 37.7362 75.9167 37.7362H11.8125C10.8124 37.7362 9.85329 37.3389 9.14612 36.6318C8.43895 35.9246 8.04167 34.9655 8.04167 33.9654ZM8.04167 79.2154V44.6368C9.21817 45.0516 10.4927 45.2779 11.8125 45.2779H75.9167C77.9168 45.2779 79.8351 46.0725 81.2494 47.4868C82.6638 48.9011 83.4583 50.8194 83.4583 52.8196V82.9862C83.4583 84.9864 82.6638 86.9046 81.2494 88.319C79.8351 89.7333 77.9168 90.5279 75.9167 90.5279H19.3542C16.3539 90.5279 13.4765 89.336 11.355 87.2145C9.23352 85.093 8.04167 82.2157 8.04167 79.2154Z" fill="#D7E7FE"/>
</svg>
